<svg width="17" height="18" viewBox="0 0 17 18" fill="none" xmlns="http://www.w3.org/2000/svg">
<path fill-rule="evenodd" clip-rule="evenodd" d="M15.6112 8.65626V18H1.38885V8.65626H1.22224C0.555566 8.65626 0 8.1 0 7.43249V5.26317C0 4.59566 0.555566 4.0394 1.22224 4.0394H7.72232C6.38897 3.98384 5.05562 3.76134 4.05547 3.31633C1.16656 2.14825 3.33331 -1.24505 5.77764 0.479505C6.61091 1.03576 7.3332 2.03701 7.88876 2.87132C7.94426 2.87132 8.05537 2.81576 8.11099 2.81576H8.83315C8.94427 2.81576 8.99976 2.87132 9.11087 2.87132C9.61083 2.03701 10.3886 1.03573 11.222 0.479505C13.6108 -1.24481 15.7777 2.14825 12.8887 3.31633C11.8887 3.76135 10.6109 3.98384 9.27769 4.0394H15.7778C16.4444 4.0394 17 4.59566 17 5.26317V7.43249C17 8.1 16.4444 8.65626 15.7778 8.65626H15.6112ZM3.11105 11.4465H7.28573V8.71188H3.11105V11.4465ZM9.94168 11.4465H13.8887V8.71188H9.94168V11.4465ZM13.8887 13.46H9.94168V16.3324H13.8887V13.46ZM7.28573 13.46H3.11105V16.3324H7.28573V13.46Z" fill="white"/>
</svg>
