<svg width="13" height="11" viewBox="0 0 13 11" fill="none" xmlns="http://www.w3.org/2000/svg">
<path d="M11.9557 8.4031L7.71784 1.37504C7.54648 1.10697 7.31038 0.886351 7.03132 0.733532C6.75226 0.580713 6.43922 0.50061 6.12106 0.50061C5.80289 0.50061 5.48985 0.580713 5.21079 0.733532C4.93173 0.886351 4.69563 1.10697 4.52427 1.37504L0.286443 8.4031C0.136739 8.65265 0.0553726 8.93721 0.0505232 9.22818C0.0456737 9.51915 0.117512 9.80626 0.258817 10.0607C0.422186 10.347 0.658653 10.5849 0.944053 10.7499C1.22945 10.9149 1.55355 11.0012 1.88323 10.9999H10.3589C10.6864 11.0034 11.009 10.9205 11.2942 10.7594C11.5794 10.5984 11.8171 10.365 11.9833 10.0828C12.1288 9.82572 12.2029 9.53448 12.198 9.23917C12.1932 8.94387 12.1095 8.65522 11.9557 8.4031ZM6.12106 8.78986C6.01178 8.78986 5.90495 8.75746 5.81409 8.69675C5.72323 8.63604 5.65241 8.54974 5.61059 8.44878C5.56878 8.34782 5.55783 8.23673 5.57915 8.12955C5.60047 8.02237 5.65309 7.92392 5.73037 7.84665C5.80764 7.76938 5.90609 7.71676 6.01327 7.69544C6.12044 7.67412 6.23154 7.68506 6.3325 7.72688C6.43346 7.7687 6.51975 7.83952 6.58046 7.93038C6.64117 8.02124 6.67358 8.12807 6.67358 8.23734C6.67358 8.38388 6.61537 8.52442 6.51175 8.62803C6.40813 8.73165 6.26759 8.78986 6.12106 8.78986ZM6.67358 6.57978C6.67358 6.72632 6.61537 6.86686 6.51175 6.97047C6.40813 7.07409 6.26759 7.1323 6.12106 7.1323C5.97452 7.1323 5.83398 7.07409 5.73037 6.97047C5.62675 6.86686 5.56854 6.72632 5.56854 6.57978V4.3697C5.56854 4.22316 5.62675 4.08263 5.73037 3.97901C5.83398 3.87539 5.97452 3.81718 6.12106 3.81718C6.26759 3.81718 6.40813 3.87539 6.51175 3.97901C6.61537 4.08263 6.67358 4.22316 6.67358 4.3697V6.57978Z" fill="#FFA629"/>
</svg>
