<svg width="19" height="18" viewBox="0 0 19 18" fill="none" xmlns="http://www.w3.org/2000/svg">
<path d="M18.67 0.290001C18.48 0.100001 18.23 0 17.96 0H1.95996C1.68996 0 1.43995 0.110001 1.24995 0.290001C1.05995 0.480001 0.959961 0.73 0.959961 1V17C0.959961 17.27 1.06995 17.52 1.24995 17.71C1.43995 17.9 1.68996 18 1.95996 18H17.96C18.23 18 18.48 17.89 18.67 17.71C18.86 17.53 18.96 17.27 18.96 17V1C18.96 0.73 18.85 0.480001 18.67 0.290001ZM15.33 7.63L8.96996 13.99L5.42995 10.45C5.03995 10.06 5.03995 9.43 5.42995 9.04C5.81995 8.65 6.44995 8.65 6.83995 9.04L8.95996 11.16L13.91 6.21C14.3 5.82 14.93 5.82 15.32 6.21C15.72 6.61 15.72 7.24 15.33 7.63Z" fill="#52A5FF"/>
</svg>
