<svg width="24" height="24" viewBox="0 0 24 24" fill="none" xmlns="http://www.w3.org/2000/svg">
<path d="M12 24C5.3724 24 0 18.6276 0 12C0 5.3724 5.3724 0 12 0C18.6276 0 24 5.3724 24 12C24 18.6276 18.6276 24 12 24ZM12 21.6C14.5461 21.6 16.9879 20.5886 18.7882 18.7882C20.5886 16.9879 21.6 14.5461 21.6 12C21.6 9.45392 20.5886 7.01212 18.7882 5.21178C16.9879 3.41143 14.5461 2.4 12 2.4C9.45392 2.4 7.01212 3.41143 5.21178 5.21178C3.41143 7.01212 2.4 9.45392 2.4 12C2.4 14.5461 3.41143 16.9879 5.21178 18.7882C7.01212 20.5886 9.45392 21.6 12 21.6ZM12 10.3032L14.5448 7.75755C15.0135 7.2886 15.7737 7.28854 16.2426 7.7574C16.7115 8.22627 16.7114 8.98647 16.2425 9.45525L13.6968 12L16.2425 14.5448C16.7114 15.0135 16.7115 15.7737 16.2426 16.2426C15.7737 16.7115 15.0135 16.7114 14.5448 16.2425L12 13.6968L9.45525 16.2425C8.98647 16.7114 8.22627 16.7115 7.7574 16.2426C7.28854 15.7737 7.2886 15.0135 7.75755 14.5448L10.3032 12L7.75755 9.45525C7.2886 8.98647 7.28854 8.22627 7.7574 7.7574C8.22627 7.28854 8.98647 7.2886 9.45525 7.75755L12 10.3032Z" fill="black"/>
</svg>
