<svg width="20" height="20" viewBox="0 0 20 20" fill="none" xmlns="http://www.w3.org/2000/svg">
<path opacity="0.7" fill-rule="evenodd" clip-rule="evenodd" d="M0 10C0 15.523 4.477 20 10 20C15.523 20 20 15.523 20 10C20 4.477 15.523 0 10 0C4.477 0 0 4.477 0 10ZM7.87939 6.4647L10 8.58608L12.1206 6.46471C12.5113 6.07392 13.1448 6.07386 13.5355 6.46458C13.9262 6.8553 13.9262 7.4888 13.5354 7.87945L11.414 10.0001L13.5354 12.1207C13.9262 12.5114 13.9262 13.1449 13.5355 13.5356C13.1448 13.9263 12.5113 13.9262 12.1206 13.5355L10 11.4141L7.87939 13.5355C7.48874 13.9262 6.85524 13.9263 6.46452 13.5356C6.0738 13.1449 6.07385 12.5114 6.46464 12.1207L8.58602 10.0001L6.46464 7.87946C6.07385 7.4888 6.0738 6.8553 6.46452 6.46458C6.85524 6.07386 7.48874 6.07391 7.87939 6.4647Z" fill="white"/>
</svg>
