<svg width="31" height="31" viewBox="0 0 31 31" fill="none" xmlns="http://www.w3.org/2000/svg">
<path fill-rule="evenodd" clip-rule="evenodd" d="M15.973 24C8.88108 24 3 17.2108 3 16C3 14.7892 8.88102 8 15.973 8C22.9784 8 28.9459 15.1351 28.9459 16C28.9459 17.1674 22.8919 24 15.973 24ZM3.86486 16C4.12427 17.0379 9.44331 23.1351 15.973 23.1351C22.4162 23.1351 27.6054 17.0379 28.0811 16C27.5623 14.9621 22.3296 8.86486 15.973 8.86486C9.52973 8.86486 4.16757 14.9621 3.86486 16ZM15.9732 20.5409C13.3354 20.5409 11.2164 18.4219 11.2164 15.7841C11.2164 15.2653 11.3028 14.7462 11.4758 14.2706C12.1245 12.3246 13.9408 11.0273 15.9732 11.0273C18.0055 11.0273 19.8219 12.3246 20.4705 14.2706C20.6436 14.7462 20.7299 15.2653 20.7299 15.7841C20.7299 18.4219 18.611 20.5409 15.9732 20.5409H15.9732ZM15.9732 11.8922C14.2866 11.8922 12.8163 12.9733 12.2975 14.53C12.1677 14.9192 12.0813 15.3517 12.0813 15.7841C12.0813 17.9463 13.811 19.676 15.9732 19.676C18.1353 19.676 19.8651 17.9463 19.8651 15.7841C19.8651 15.3517 19.7787 14.9624 19.6488 14.5732C19.13 12.9733 17.6597 11.8922 15.9732 11.8922ZM13.8109 15.784C13.8109 16.995 14.7621 17.9462 15.9731 17.9462C17.184 17.9462 18.1352 16.995 18.1352 15.784C18.1352 15.5246 18.0918 15.3084 18.0054 15.0922C17.746 14.2273 16.9243 13.6219 15.9731 13.6219C15.065 13.6219 14.2434 14.2273 13.9408 15.0922C13.8541 15.3084 13.8109 15.5678 13.8109 15.784ZM14.7622 15.3516C14.9352 14.8328 15.4108 14.4867 15.9731 14.4867L15.9731 14.4868C16.5353 14.4868 17.011 14.8328 17.184 15.3948L17.1842 15.3956C17.2273 15.5251 17.2704 15.6545 17.2704 15.784C17.2704 16.5191 16.7081 17.0813 15.9731 17.0813C15.238 17.0813 14.6758 16.519 14.6758 15.784C14.6758 15.6113 14.7189 15.4818 14.762 15.3521L14.7622 15.3516Z" fill="black"/>
<path d="M4 26L27 6" stroke="black"/>
</svg>
