<svg width="12" height="12" viewBox="0 0 12 12" fill="none" xmlns="http://www.w3.org/2000/svg">
<path fill-rule="evenodd" clip-rule="evenodd" d="M0 6C0 9.3138 2.6862 12 6 12C9.3138 12 12 9.3138 12 6C12 2.6862 9.3138 0 6 0C2.6862 0 0 2.6862 0 6ZM4.72764 3.87882L6.00001 5.15165L7.27239 3.87882C7.50678 3.64435 7.88688 3.64432 8.12131 3.87875C8.35575 4.11318 8.35571 4.49328 8.12124 4.72767L6.84841 6.00005L8.12124 7.27242C8.35571 7.50681 8.35575 7.88692 8.12131 8.12135C7.88688 8.35578 7.50678 8.35575 7.27239 8.12127L6.00001 6.84845L4.72764 8.12127C4.49325 8.35575 4.11314 8.35578 3.87871 8.12135C3.64428 7.88692 3.64431 7.50681 3.87879 7.27242L5.15161 6.00005L3.87879 4.72767C3.64431 4.49328 3.64428 4.11318 3.87871 3.87875C4.11314 3.64432 4.49325 3.64435 4.72764 3.87882Z" fill="#FC223B"/>
</svg>
