<svg width="17" height="18" viewBox="0 0 17 18" fill="none" xmlns="http://www.w3.org/2000/svg">
<path d="M14.8563 2.7101L14.8798 2.77682H14.9506H16.0556C16.2795 2.77682 16.4943 2.86577 16.6527 3.02409C16.811 3.18241 16.9 3.39712 16.9 3.62101C16.9 3.84489 16.811 4.05961 16.6527 4.21793C16.4943 4.37625 16.2795 4.4652 16.0556 4.4652H14.9506H14.8798L14.8563 4.53191C14.668 5.06525 14.3189 5.52709 13.8571 5.85377C13.3953 6.18045 12.8435 6.35589 12.2778 6.35589C11.712 6.35589 11.1602 6.18045 10.6984 5.85377C10.2366 5.52709 9.88754 5.06525 9.6993 4.53191L9.67575 4.4652H9.605H0.944444C0.720475 4.4652 0.505684 4.37625 0.347322 4.21793C0.188961 4.05961 0.1 3.84489 0.1 3.62101C0.1 3.39713 0.188961 3.18241 0.347322 3.02409C0.505684 2.86577 0.720475 2.77682 0.944444 2.77682H9.605H9.67575L9.6993 2.7101C9.88754 2.17677 10.2366 1.71493 10.6984 1.38825C11.1602 1.06157 11.712 0.886133 12.2778 0.886133C12.8435 0.886133 13.3953 1.06157 13.8571 1.38825C14.3189 1.71493 14.668 2.17677 14.8563 2.7101ZM2.04944 8.44195H2.1202L2.14374 8.37523C2.33198 7.84189 2.68106 7.38005 3.14287 7.05337C3.60468 6.72669 4.15649 6.55126 4.72222 6.55126C5.28796 6.55126 5.83976 6.72669 6.30157 7.05337C6.76338 7.38005 7.11246 7.84189 7.3007 8.37523L7.32425 8.44195H7.395H16.0556C16.2795 8.44195 16.4943 8.53089 16.6527 8.68921C16.811 8.84753 16.9 9.06225 16.9 9.28613C16.9 9.51002 16.811 9.72474 16.6527 9.88305C16.4943 10.0414 16.2795 10.1303 16.0556 10.1303H7.395H7.32425L7.3007 10.197C7.11246 10.7304 6.76338 11.1922 6.30157 11.5189C5.83976 11.8456 5.28796 12.021 4.72222 12.021C4.15649 12.021 3.60468 11.8456 3.14287 11.5189C2.68106 11.1922 2.33198 10.7304 2.14374 10.197L2.1202 10.1303H2.04944H0.944444C0.720475 10.1303 0.505684 10.0414 0.347322 9.88305C0.188961 9.72474 0.1 9.51002 0.1 9.28613C0.1 9.06225 0.188961 8.84753 0.347322 8.68921C0.505684 8.53089 0.720475 8.44195 0.944444 8.44195H2.04944ZM9.6993 15.8622L9.67575 15.7954H9.605H0.944444C0.720475 15.7954 0.505684 15.7065 0.347322 15.5482C0.188961 15.3899 0.1 15.1751 0.1 14.9513C0.1 14.7274 0.188961 14.5127 0.347322 14.3543C0.505684 14.196 0.720475 14.1071 0.944444 14.1071H9.605H9.67575L9.6993 14.0404C9.88754 13.507 10.2366 13.0452 10.6984 12.7185C11.1602 12.3918 11.712 12.2164 12.2778 12.2164C12.8435 12.2164 13.3953 12.3918 13.8571 12.7185C14.3189 13.0452 14.668 13.507 14.8563 14.0404L14.8798 14.1071H14.9506H16.0556C16.2795 14.1071 16.4943 14.196 16.6527 14.3543C16.811 14.5127 16.9 14.7274 16.9 14.9513C16.9 15.1751 16.811 15.3899 16.6527 15.5482C16.4943 15.7065 16.2795 15.7954 16.0556 15.7954H14.9506H14.8798L14.8563 15.8622C14.668 16.3955 14.3189 16.8573 13.8571 17.184C13.3953 17.5107 12.8435 17.6861 12.2778 17.6861C11.712 17.6861 11.1602 17.5107 10.6984 17.184C10.2366 16.8573 9.88754 16.3955 9.6993 15.8622ZM12.2778 4.6652C12.5548 4.6652 12.8204 4.55519 13.0163 4.35937C13.2122 4.16355 13.3222 3.89795 13.3222 3.62101C13.3222 3.34406 13.2122 3.07847 13.0163 2.88265C12.8204 2.68683 12.5548 2.57682 12.2778 2.57682C12.0008 2.57682 11.7351 2.68683 11.5393 2.88265C11.3434 3.07847 11.2333 3.34406 11.2333 3.62101C11.2333 3.89795 11.3434 4.16355 11.5393 4.35937C11.7351 4.55519 12.0008 4.6652 12.2778 4.6652ZM4.72222 10.3303C4.99922 10.3303 5.26487 10.2203 5.46075 10.0245C5.65662 9.82867 5.76667 9.56308 5.76667 9.28613C5.76667 9.00919 5.65662 8.74359 5.46075 8.54777C5.26487 8.35195 4.99922 8.24195 4.72222 8.24195C4.44523 8.24195 4.17957 8.35195 3.9837 8.54777C3.78782 8.74359 3.67778 9.00919 3.67778 9.28613C3.67778 9.56308 3.78782 9.82867 3.9837 10.0245C4.17957 10.2203 4.44523 10.3303 4.72222 10.3303ZM13.0163 15.6896C13.2122 15.4938 13.3222 15.2282 13.3222 14.9513C13.3222 14.6743 13.2122 14.4087 13.0163 14.2129C12.8204 14.0171 12.5548 13.9071 12.2778 13.9071C12.0008 13.9071 11.7351 14.0171 11.5393 14.2129C11.3434 14.4087 11.2333 14.6743 11.2333 14.9513C11.2333 15.2282 11.3434 15.4938 11.5393 15.6896C11.7351 15.8854 12.0008 15.9954 12.2778 15.9954C12.5548 15.9954 12.8204 15.8854 13.0163 15.6896Z" fill="#1E1E1E" stroke="#FAF9F9" stroke-width="0.2"/>
</svg>
