<svg width="102" height="174" viewBox="0 0 102 174" fill="none" xmlns="http://www.w3.org/2000/svg">
<path fill-rule="evenodd" clip-rule="evenodd" d="M51.9227 0.37793C53.0793 2.32877 54.3747 4.23336 55.3771 6.2536C59.0721 13.8512 61.3655 22.0534 62.1472 30.4656C62.6484 35.3929 62.8102 40.3586 63.1341 45.309C63.1341 45.4015 63.25 45.4941 63.4659 45.8025C65.7016 43.187 67.2868 40.0798 68.0922 36.7345C69.0946 33.5114 69.7117 30.1726 70.5522 26.6488C70.9915 27.0126 71.3918 27.4209 71.7471 27.8671C75.119 33.3912 77.5355 39.4442 78.8951 45.7716C80.2721 52.2668 81.1971 58.8497 81.6634 65.4728C81.7276 65.7555 81.8099 66.0336 81.91 66.3056C82.3718 65.8921 82.7929 65.4351 83.167 64.9408C85.2705 61.2082 86.5312 57.0603 86.8605 52.7885C86.9068 52.3336 86.953 51.8786 87.0224 51.4237C87.0224 51.3312 87.1535 51.2541 87.3462 51.015C87.6502 51.2337 87.9224 51.4932 88.1557 51.7861C92.5335 58.9165 95.9778 66.5794 98.4037 74.5871C100.42 81.0909 101.573 87.8312 101.835 94.6353C102.079 104.802 99.261 114.806 93.7464 123.35C88.3213 131.54 81.9977 139.097 74.8933 145.881C69.3955 151.48 63.7818 156.977 58.5153 162.791C56.1312 165.753 53.9471 168.87 51.9768 172.121C51.7532 172.445 51.5756 172.808 51.2055 173.386C50.6433 173.012 50.1074 172.6 49.6015 172.152C40.5413 162.899 31.7123 153.477 23.5003 143.468C18.2556 137.172 13.4658 130.511 9.16622 123.535C6.0903 118.509 3.67939 113.105 1.99473 107.458C0.05078 100.696 0.147432 93.5092 2.2724 86.801C5.19033 78.025 9.62733 69.8298 15.3809 62.589C21.6653 54.1071 28.2427 45.8333 34.5347 37.3514C40.1404 30.1433 44.6126 22.1215 47.7971 13.5635C49 10.0936 49.7017 6.45408 50.627 2.88396C50.8275 2.11287 51.0051 1.3418 51.1979 0.570712L51.8686 0.37793H51.9227Z" fill="white"/>
</svg>
