<svg width="91" height="156" viewBox="0 0 91 156" fill="none" xmlns="http://www.w3.org/2000/svg">
<g opacity="0.2">
<mask id="mask0_621_2158" style="mask-type:alpha" maskUnits="userSpaceOnUse" x="0" y="0" width="91" height="156">
<path fill-rule="evenodd" clip-rule="evenodd" d="M46.1254 0C47.165 1.75344 48.3293 3.4653 49.2303 5.28112C52.5514 12.11 54.6127 19.4821 55.3153 27.0432C55.7658 31.4718 55.9112 35.9351 56.2023 40.3846C56.2023 40.4677 56.3065 40.5509 56.5006 40.8281C58.5101 38.4773 59.9348 35.6845 60.6587 32.6777C61.5597 29.7808 62.1144 26.7798 62.8698 23.6125C63.2647 23.9395 63.6245 24.3065 63.9438 24.7076C66.9745 29.6727 69.1465 35.1132 70.3685 40.8004C71.6062 46.6383 72.4376 52.5551 72.8567 58.5081C72.9144 58.7621 72.9883 59.0121 73.0783 59.2566C73.4934 58.8849 73.8719 58.4741 74.2082 58.0299C76.0988 54.675 77.2319 50.9468 77.5279 47.1072C77.5695 46.6983 77.6111 46.2894 77.6735 45.8805C77.6735 45.7974 77.7912 45.7281 77.9645 45.5132C78.2377 45.7098 78.4824 45.943 78.6921 46.2063C82.6268 52.6151 85.7227 59.5027 87.9031 66.7C89.7149 72.5458 90.7514 78.604 90.9868 84.7196C91.2063 93.8571 88.6736 102.85 83.717 110.529C78.8409 117.89 73.1571 124.682 66.7717 130.78C61.8301 135.812 56.7845 140.753 52.0509 145.979C49.908 148.641 47.9449 151.442 46.174 154.365C45.9731 154.656 45.8134 154.982 45.4807 155.502C44.9755 155.165 44.4938 154.795 44.0391 154.393C35.8957 146.076 27.9601 137.607 20.579 128.611C15.8651 122.952 11.5599 116.965 7.69538 110.695C4.93071 106.178 2.76375 101.32 1.24956 96.2451C-0.497683 90.1666 -0.410811 83.7075 1.49914 77.6781C4.12181 69.7901 8.10983 62.4241 13.2812 55.916C18.9297 48.2924 24.8415 40.8559 30.4969 33.2322C35.5353 26.7534 39.555 19.5434 42.4173 11.8513C43.4985 8.73257 44.1292 5.46131 44.9609 2.25245C45.141 1.55939 45.3007 0.866335 45.474 0.173275L46.0768 0H46.1254Z" fill="white"/>
</mask>
<g mask="url(#mask0_621_2158)">
<rect x="-11" y="-6" width="113" height="74" fill="url(#paint0_linear_621_2158)"/>
</g>
</g>
<defs>
<linearGradient id="paint0_linear_621_2158" x1="45.5" y1="-6" x2="36.5" y2="104" gradientUnits="userSpaceOnUse">
<stop stop-color="#D9D9D9"/>
<stop offset="1" stop-color="#D9D9D9" stop-opacity="0"/>
</linearGradient>
</defs>
</svg>
