<svg width="21" height="22" viewBox="0 0 21 22" fill="none" xmlns="http://www.w3.org/2000/svg">
<path fill-rule="evenodd" clip-rule="evenodd" d="M8.38403 0C9.70531 0 10.8997 0.536106 11.7651 1.40145C12.6304 2.2668 13.1665 3.46123 13.1665 4.7825C13.1665 6.10378 12.6304 7.29821 11.7651 8.16355C10.8997 9.0289 9.70531 9.56501 8.38403 9.56501C7.06275 9.56501 5.86832 9.0289 5.00298 8.16355C4.13763 7.29821 3.60153 6.10378 3.60153 4.7825C3.60153 3.46123 4.13763 2.2668 5.00298 1.40145C5.86832 0.536106 7.06275 0 8.38403 0ZM11.5408 18.2523H11.5395C11.4899 17.9848 11.4651 17.7091 11.4651 17.4335C11.4651 16.2306 11.9379 15.0866 12.7906 14.2339C13.6433 13.3812 14.7871 12.9084 15.9901 12.9084C16.0746 12.9084 16.1632 12.9127 16.2476 12.9169C16.0028 12.4483 15.6609 12.0135 15.2008 11.6294C14.3649 10.9329 13.103 10.3546 11.1696 9.81423C11.0683 9.78468 10.967 9.81001 10.8868 9.86488C10.5407 10.1139 10.1523 10.3081 9.74284 10.439C9.34603 10.5656 8.9197 10.6331 8.47647 10.6331C8.03325 10.6331 7.61112 10.5656 7.21432 10.439C6.80485 10.3081 6.42074 10.1139 6.07459 9.8691C5.9775 9.80156 5.85931 9.7889 5.75799 9.82689C4.00214 10.3841 2.80329 10.916 1.9717 11.5239C1.09786 12.1611 0.629317 12.8745 0.371818 13.7736C0.0806567 14.7761 0.0477022 16.0734 0.0185298 17.2218L0.01723 17.2729C0.0130082 17.4882 0.00878726 17.695 0.00034479 17.9061C-0.00809973 18.0918 0.139646 18.248 0.325385 18.2523H0.338048H11.5395L11.5411 18.2609L11.5408 18.2523ZM19.4133 20.7758C18.6577 21.5314 17.611 22 16.4544 22C15.2979 22 14.2511 21.5315 13.4954 20.7758C12.7398 20.0202 12.2713 18.9735 12.2713 17.8169C12.2713 16.6604 12.7398 15.6136 13.4954 14.858C14.2511 14.1024 15.2977 13.6338 16.4544 13.6338C17.6108 13.6338 18.6577 14.1023 19.4133 14.858C20.1689 15.6136 20.6375 16.6602 20.6375 17.8169C20.6375 18.9733 20.1689 20.0202 19.4133 20.7758Z" fill="white"/>
<path fill-rule="evenodd" clip-rule="evenodd" d="M14.5972 17.3398H18.3159V18.2938H14.5972V17.3398Z" fill="#FC223B"/>
</svg>
