<svg width="96" height="43" viewBox="0 0 96 43" fill="none" xmlns="http://www.w3.org/2000/svg">
<g clip-path="url(#clip0_10967_108545)">
<path d="M51.7421 5.73259C52.9894 7.7521 53.7571 9.72237 53.4931 11.5449C52.9894 15.0913 48.6236 17.5049 47.736 19.6723C44.5697 16.3473 42.6266 14.0816 42.3148 11.9636C41.835 8.04765 47.3043 4.84596 47.736 0.4375C48.7196 1.71817 49.0075 3.93472 49.0075 5.21539C49.4872 4.57505 49.775 3.76232 49.775 2.94959C50.7106 4.08248 50.9985 6.05276 50.9985 7.53045C51.4542 7.06252 51.7181 6.42217 51.7421 5.73259Z" fill="#FF0000"/>
<path d="M27.682 26.0508H36.5816V21.8887H22.3328V41.7883H36.5816V37.6754H27.682V33.9319H35.4782V29.7944H27.682V26.0508Z" fill="white"/>
<path d="M58.8905 21.8887V26.0508H63.976V41.7883H69.3253V26.0508H74.3628V21.8887H58.8905Z" fill="white"/>
<path d="M91.6582 34.7692C93.0255 34.1289 94.129 33.0452 94.8005 31.6661C95.4723 30.2869 95.6641 28.7106 95.3523 27.2084C95.0404 25.706 94.2248 24.3515 93.0495 23.3909C91.8741 22.4305 90.4347 21.8887 88.9236 21.8887C85.2053 21.8887 81.4873 21.8887 77.769 21.8887C77.769 28.6368 77.769 35.4096 77.769 42.1578C79.5682 42.1578 81.3433 42.1578 83.1424 42.1578C83.1424 39.892 83.1424 37.6261 83.1424 35.3603C84.006 35.3603 84.8696 35.3603 85.7331 35.3603C87.0764 37.6261 88.3958 39.892 89.7392 42.1578C91.8261 42.1578 93.9131 42.1578 96 42.1578C94.5607 39.6948 93.1214 37.232 91.6582 34.7692ZM89.4033 30.4592C88.9236 30.9518 88.2998 31.2227 87.6281 31.2227C86.1409 31.2227 84.6536 31.2227 83.1424 31.2227C83.1424 29.4988 83.1424 27.7748 83.1424 26.0508C84.6296 26.0508 86.1169 26.0508 87.6281 26.0508C88.2998 26.0508 88.9476 26.3217 89.4033 26.8143C89.883 27.3068 90.1469 27.9472 90.1469 28.6368C90.1469 29.3263 89.883 29.9667 89.4033 30.4592Z" fill="white"/>
<path d="M50.4228 26.0508H54.2849L56.7316 21.8887H38.7405L41.1873 26.0508H45.0494V41.7883H50.4228V26.0508Z" fill="white"/>
<path d="M17.7991 40.6554C15.6642 41.5913 13.3373 42.1578 10.9865 42.1578C9.35532 42.1578 7.72413 41.8869 6.23689 41.2711C5.32534 40.877 4.46176 40.3352 3.71813 39.695C2.95052 39.0299 2.30285 38.2665 1.75112 37.4291C1.1994 36.5918 0.767615 35.6559 0.455771 34.6953C0.143926 33.7349 0 32.7004 0 31.6907C0 29.6465 0.599698 27.627 1.70315 25.9276C2.8066 24.2284 4.38981 22.8984 6.23689 22.1103C7.17242 21.7162 8.10794 21.4699 9.11545 21.3468C9.61919 21.2729 10.099 21.2483 10.6027 21.2236C11.1064 21.199 11.5862 21.2236 12.09 21.2483C14.081 21.3961 16.024 21.9133 17.8471 22.726C17.0075 24.1545 16.1679 25.5829 15.3283 26.9867C13.985 26.2724 12.5217 25.8785 11.0105 25.8785C9.37931 25.8785 7.84408 26.5926 6.76461 27.8487C5.68516 29.1047 5.20539 30.7794 5.3973 32.4295C5.61319 34.0797 6.50075 35.5573 7.84408 36.4932C9.18741 37.4292 10.8666 37.7001 12.4498 37.2813C12.4498 35.2618 12.4498 33.2422 12.4498 31.2228C14.2489 31.2228 16.024 31.2228 17.8231 31.2228C17.7991 34.3751 17.7991 37.5029 17.7991 40.6554Z" fill="white"/>
</g>
<defs>
<clipPath id="clip0_10967_108545">
<rect width="96" height="41.8187" fill="white" transform="translate(0 0.4375)"/>
</clipPath>
</defs>
</svg>
