<svg width="230" height="394" viewBox="0 0 230 394" fill="none" xmlns="http://www.w3.org/2000/svg">
<path fill-rule="evenodd" clip-rule="evenodd" d="M116.581 0C119.208 4.43177 122.151 8.75846 124.428 13.3479C132.822 30.6076 138.032 49.2406 139.808 68.3509C140.946 79.5442 141.314 90.825 142.05 102.071C142.05 102.281 142.313 102.491 142.804 103.192C147.883 97.2504 151.484 90.1915 153.313 82.5921C155.59 75.27 156.992 67.6853 158.902 59.68C159.9 60.5065 160.809 61.434 161.616 62.4477C169.276 74.997 174.766 88.7477 177.854 103.122C180.983 117.877 183.084 132.832 184.143 147.878C184.289 148.52 184.476 149.152 184.703 149.769C185.753 148.83 186.709 147.792 187.559 146.669C192.338 138.189 195.202 128.767 195.95 119.062C196.055 118.029 196.16 116.995 196.318 115.962C196.318 115.752 196.615 115.576 197.053 115.033C197.744 115.53 198.362 116.12 198.892 116.785C208.837 132.983 216.662 150.391 222.173 168.582C226.752 183.357 229.372 198.67 229.967 214.126C230.521 237.221 224.12 259.949 211.592 279.359C199.268 297.963 184.903 315.131 168.764 330.544C156.274 343.261 143.521 355.75 131.557 368.958C126.141 375.686 121.179 382.767 116.704 390.154C116.196 390.889 115.792 391.713 114.951 393.026C113.674 392.176 112.457 391.24 111.308 390.224C90.7253 369.203 70.6683 347.798 52.0128 325.061C40.0985 310.758 29.2173 295.626 19.4499 279.78C12.4622 268.362 6.9853 256.085 3.15823 243.257C-1.25788 227.894 -1.03831 211.568 3.78902 196.329C10.4178 176.393 20.4974 157.775 33.5679 141.326C47.8442 122.058 62.7862 103.262 77.08 83.9935C89.8146 67.6185 99.9742 49.3954 107.209 29.9539C109.941 22.0713 111.535 13.8033 113.637 5.693C114.093 3.94131 114.496 2.18964 114.934 0.437949L116.458 0H116.581Z" fill="white"/>
</svg>
