<svg width="114" height="114" viewBox="0 0 114 114" fill="none" xmlns="http://www.w3.org/2000/svg">
<circle cx="57" cy="57" r="57" fill="#FF4040" fill-opacity="0.08"/>
<circle cx="57" cy="57" r="47.5" fill="#FF4040" fill-opacity="0.15"/>
<circle cx="56.9999" cy="57.0004" r="38.8636" fill="#FC3E3E" fill-opacity="0.26"/>
<path d="M57.432 25.9092C63.4958 25.9092 69.4234 27.7073 74.4653 31.0762C79.5072 34.445 83.4368 39.2333 85.7573 44.8355C88.0778 50.4378 88.685 56.6023 87.502 62.5496C86.319 68.4968 83.399 73.9598 79.1113 78.2475C74.8235 82.5353 69.3606 85.4553 63.4133 86.6382C57.466 87.8212 51.3015 87.2141 45.6993 84.8936C40.0971 82.573 35.3088 78.6434 31.9399 73.6015C28.5711 68.5597 26.7729 62.6321 26.7729 56.5683C26.7729 48.437 30.0031 40.6387 35.7528 34.889C41.5025 29.1393 49.3007 25.9092 57.432 25.9092V25.9092Z" fill="url(#paint0_linear_633_18330)"/>
<path d="M77.7274 78.5908L80.4388 86.243L88.091 88.9545L80.4388 91.6659L77.7274 99.3181L75.016 91.6659L67.3638 88.9545L75.016 86.243L77.7274 78.5908Z" fill="#F9DC79"/>
<path d="M29.7955 35.4092L31.7161 40.8295L37.1364 42.7501L31.7161 44.6707L29.7955 50.091L27.8749 44.6707L22.4546 42.7501L27.8749 40.8295L29.7955 35.4092Z" fill="#F9DC79"/>
<path d="M82.4774 31.9541L83.9461 36.099L88.091 37.5677L83.9461 39.0364L82.4774 43.1814L81.0087 39.0364L76.8638 37.5677L81.0087 36.099L82.4774 31.9541Z" fill="#F9DC79"/>
<path d="M33.2501 76.8633L35.1707 82.2836L40.591 84.2042L35.1707 86.1248L33.2501 91.5451L31.3295 86.1248L25.9092 84.2042L31.3295 82.2836L33.2501 76.8633Z" fill="#F9DC79"/>
<path fill-rule="evenodd" clip-rule="evenodd" d="M57.5444 43.1816C57.7318 43.4978 57.9418 43.8065 58.1042 44.1339C58.7031 45.3653 59.0748 46.6947 59.2015 48.0581C59.2827 48.8566 59.3089 49.6614 59.3614 50.4638C59.3614 50.4788 59.3802 50.4938 59.4152 50.5438C59.7776 50.1199 60.0345 49.6163 60.165 49.0741C60.3275 48.5517 60.4275 48.0106 60.5637 47.4394C60.6349 47.4984 60.6998 47.5646 60.7574 47.6369C61.3039 48.5322 61.6955 49.5132 61.9159 50.5388C62.1391 51.5915 62.289 52.6584 62.3645 53.7318C62.3749 53.7776 62.3883 53.8227 62.4045 53.8668C62.4794 53.7998 62.5476 53.7257 62.6082 53.6456C62.9492 53.0406 63.1535 52.3683 63.2069 51.676C63.2144 51.6023 63.2219 51.5285 63.2331 51.4548C63.2331 51.4398 63.2543 51.4273 63.2856 51.3886C63.3348 51.424 63.379 51.4661 63.4168 51.5135C64.1263 52.6692 64.6845 53.9111 65.0777 55.209C65.4044 56.2631 65.5913 57.3555 65.6338 58.4582C65.6733 60.1059 65.2167 61.7274 64.3229 63.1122C63.4436 64.4395 62.4187 65.6643 61.2673 66.7639C60.3762 67.6712 59.4664 68.5622 58.6129 69.5045C58.2265 69.9845 57.8725 70.4897 57.5531 71.0167C57.5169 71.0692 57.4881 71.1279 57.4281 71.2217C57.337 71.161 57.2502 71.0942 57.1682 71.0217C55.6997 69.522 54.2688 67.9949 52.9378 66.3727C52.0878 65.3523 51.3115 64.2728 50.6147 63.1422C50.1162 62.3276 49.7254 61.4517 49.4524 60.5365C49.1373 59.4405 49.153 58.2757 49.4974 57.1885C49.9703 55.7662 50.6894 54.4379 51.6219 53.2644C52.6404 51.8897 53.7065 50.5488 54.7262 49.1741C55.6348 48.0058 56.3596 46.7057 56.8757 45.3187C57.0707 44.7563 57.1844 44.1664 57.3344 43.5878C57.3669 43.4628 57.3957 43.3379 57.4269 43.2129L57.5356 43.1816H57.5444Z" fill="white"/>
<defs>
<linearGradient id="paint0_linear_633_18330" x1="39.0366" y1="25.9092" x2="84.9639" y2="90.6612" gradientUnits="userSpaceOnUse">
<stop stop-color="#9F0303"/>
<stop offset="0.473" stop-color="#FF4040"/>
<stop offset="1" stop-color="#A70000"/>
</linearGradient>
</defs>
</svg>
