<svg width="12" height="12" viewBox="0 0 12 12" fill="none" xmlns="http://www.w3.org/2000/svg">
<path fill-rule="evenodd" clip-rule="evenodd" d="M0 6C0 9.3138 2.6862 12 6 12C9.3138 12 12 9.3138 12 6C12 2.6862 9.3138 0 6 0C2.6862 0 0 2.6862 0 6ZM9.21967 5.18153L5.40181 8.99994L3.28021 6.87834C3.04593 6.64406 3.04593 6.26421 3.28021 6.02994C3.51449 5.79566 3.89433 5.79566 4.12861 6.02994L5.40181 7.30314L8.37121 4.33321C8.60548 4.09889 8.98535 4.09888 9.21964 4.33317C9.45391 4.56744 9.45392 4.94725 9.21967 5.18153Z" fill="#03BD64"/>
</svg>
