<svg width="23" height="23" viewBox="0 0 23 23" fill="none" xmlns="http://www.w3.org/2000/svg">
<rect width="23" height="23" rx="11.5" fill="url(#paint0_linear_837_83459)"/>
<path fill-rule="evenodd" clip-rule="evenodd" d="M11.5511 5.32922C11.6353 5.47115 11.7295 5.60971 11.8024 5.75669C12.0712 6.30943 12.2381 6.90615 12.295 7.51815C12.3314 7.87661 12.3432 8.23788 12.3668 8.59803C12.3668 8.60476 12.3752 8.61149 12.3909 8.63393C12.5535 8.44365 12.6689 8.21759 12.7275 7.97422C12.8004 7.73974 12.8453 7.49683 12.9064 7.24047C12.9384 7.26694 12.9675 7.29664 12.9934 7.3291C13.2387 7.73099 13.4145 8.17135 13.5134 8.63169C13.6136 9.10422 13.6809 9.58314 13.7148 10.065C13.7195 10.0855 13.7254 10.1058 13.7327 10.1256C13.7663 10.0955 13.797 10.0622 13.8242 10.0263C13.9772 9.75472 14.0689 9.45296 14.0929 9.14217C14.0963 9.10908 14.0996 9.07598 14.1047 9.04288C14.1047 9.03615 14.1142 9.03054 14.1282 9.01315C14.1503 9.02906 14.1701 9.04794 14.1871 9.06925C14.5056 9.58799 14.7562 10.1455 14.9327 10.7281C15.0793 11.2012 15.1632 11.6916 15.1823 12.1866C15.2 12.9262 14.995 13.6541 14.5938 14.2757C14.1992 14.8715 13.7391 15.4213 13.2223 15.9148C12.8223 16.3221 12.4139 16.7221 12.0307 17.1451C11.8573 17.3605 11.6984 17.5873 11.555 17.8238C11.5388 17.8474 11.5259 17.8738 11.4989 17.9158C11.458 17.8886 11.419 17.8586 11.3822 17.8261C10.7231 17.1529 10.0808 16.4674 9.48333 15.7392C9.10178 15.2812 8.75331 14.7966 8.44051 14.2891C8.21673 13.9235 8.04133 13.5303 7.91877 13.1195C7.77734 12.6275 7.78438 12.1047 7.93897 11.6166C8.15125 10.9782 8.47405 10.382 8.89264 9.85518C9.34983 9.2381 9.82835 8.63618 10.2861 8.0191C10.6939 7.4947 11.0193 6.9111 11.251 6.28849C11.3385 6.03605 11.3895 5.77127 11.4568 5.51154C11.4714 5.45544 11.4844 5.39935 11.4984 5.34325L11.5472 5.32922H11.5511Z" fill="white"/>
<defs>
<linearGradient id="paint0_linear_837_83459" x1="0" y1="0" x2="23" y2="23" gradientUnits="userSpaceOnUse">
<stop stop-color="#B41111"/>
<stop offset="0.489583" stop-color="#FF4141"/>
<stop offset="1" stop-color="#C81818"/>
</linearGradient>
</defs>
</svg>
