<svg width="24" height="24" viewBox="0 0 24 24" fill="none" xmlns="http://www.w3.org/2000/svg">
<path fill-rule="evenodd" clip-rule="evenodd" d="M10.1367 2.25C9.72252 2.25 9.38673 2.58579 9.38673 3V4.41572C9.38673 4.96611 8.98873 5.53882 8.33198 5.91145C7.71119 6.26367 7.06503 6.31017 6.59292 6.04686L5.22882 5.28604C4.8747 5.08853 4.42773 5.20824 4.21971 5.55629L2.35643 8.67398C2.25239 8.84806 2.22328 9.05686 2.27575 9.25276C2.32821 9.44866 2.45777 9.61496 2.63489 9.71375L4.00131 10.4759C4.44446 10.723 4.72853 11.2947 4.72853 12C4.72853 12.7051 4.4445 13.2767 4.00144 13.5238L2.63468 14.2861C2.45756 14.3849 2.328 14.5512 2.27553 14.7471C2.22307 14.943 2.25218 15.1518 2.35622 15.3259L4.2195 18.4436C4.42751 18.7917 4.87449 18.9114 5.22861 18.7139L6.59266 17.9531C7.06482 17.6897 7.71105 17.7362 8.3319 18.0885C8.9887 18.4612 9.38673 19.0339 9.38673 19.5844V21C9.38673 21.4142 9.72252 21.75 10.1367 21.75H13.8633C14.2775 21.75 14.6133 21.4142 14.6133 21V19.5844C14.6133 19.0339 15.0113 18.4612 15.6682 18.0885C16.289 17.7362 16.9353 17.6897 17.4075 17.953L18.7714 18.7137C19.1255 18.9113 19.5725 18.7915 19.7805 18.4435L21.6438 15.3258C21.7478 15.1517 21.7769 14.9429 21.7245 14.747C21.672 14.5511 21.5424 14.3848 21.3653 14.286L19.9985 13.5237C19.5555 13.2766 19.2715 12.7051 19.2715 12C19.2715 11.2948 19.5556 10.7231 19.9987 10.476L21.3651 9.71385C21.5422 9.61506 21.6718 9.44876 21.7243 9.25286C21.7767 9.05696 21.7476 8.84817 21.6436 8.67408L19.7803 5.55639C19.5723 5.20834 19.1253 5.08863 18.7712 5.28614L17.4072 6.04689C16.9351 6.31021 16.2889 6.2637 15.6681 5.91147C15.0113 5.53883 14.6133 4.9661 14.6133 4.41569V3C14.6133 2.58579 14.2775 2.25 13.8633 2.25H10.1367ZM9.75 12C9.75 10.7574 10.7574 9.75 12 9.75C13.2426 9.75 14.25 10.7574 14.25 12C14.25 13.2426 13.2426 14.25 12 14.25C10.7574 14.25 9.75 13.2426 9.75 12ZM12 8.25C9.92893 8.25 8.25 9.92893 8.25 12C8.25 14.0711 9.92893 15.75 12 15.75C14.0711 15.75 15.75 14.0711 15.75 12C15.75 9.92893 14.0711 8.25 12 8.25Z" fill="black"/>
</svg>
