<svg width="56" height="58" viewBox="0 0 56 58" fill="none" xmlns="http://www.w3.org/2000/svg">
<g filter="url(#filter0_d_1196_83544)">
<rect x="4" y="2" width="48" height="49.0909" rx="24" fill="#1E1E1E"/>
</g>
<path d="M30.0156 36.3049C30.0156 36.7558 29.8632 37.1704 29.56 37.4735C29.2569 37.7766 28.8423 37.9291 28.3915 37.9291C27.9406 37.9291 27.526 37.7766 27.2229 37.4735C26.9198 37.1704 26.7673 36.7558 26.7673 36.3049V18.3185C26.7673 17.8676 26.9198 17.453 27.2229 17.1499C27.526 16.8468 27.9406 16.6943 28.3915 16.6943C28.8423 16.6943 29.2569 16.8468 29.56 17.1499C29.8632 17.453 30.0156 17.8676 30.0156 18.3185V36.3049Z" fill="white" stroke="white"/>
<path d="M19.6277 28.936C19.1768 28.936 18.7623 28.7836 18.4592 28.4804C18.156 28.1773 18.0036 27.7628 18.0036 27.3119C18.0036 26.861 18.156 26.4464 18.4592 26.1433C18.7623 25.8402 19.1768 25.6877 19.6277 25.6877L37.6141 25.6877C38.065 25.6877 38.4796 25.8402 38.7827 26.1433C39.0858 26.4464 39.2383 26.861 39.2383 27.3119C39.2383 27.7628 39.0858 28.1773 38.7827 28.4804C38.4796 28.7836 38.065 28.936 37.6141 28.936L19.6277 28.936Z" fill="white" stroke="white"/>
<defs>
<filter id="filter0_d_1196_83544" x="0" y="0" width="56" height="57.0908" filterUnits="userSpaceOnUse" color-interpolation-filters="sRGB">
<feFlood flood-opacity="0" result="BackgroundImageFix"/>
<feColorMatrix in="SourceAlpha" type="matrix" values="0 0 0 0 0 0 0 0 0 0 0 0 0 0 0 0 0 0 127 0" result="hardAlpha"/>
<feOffset dy="2"/>
<feGaussianBlur stdDeviation="2"/>
<feComposite in2="hardAlpha" operator="out"/>
<feColorMatrix type="matrix" values="0 0 0 0 0 0 0 0 0 0 0 0 0 0 0 0 0 0 0.15 0"/>
<feBlend mode="normal" in2="BackgroundImageFix" result="effect1_dropShadow_1196_83544"/>
<feBlend mode="normal" in="SourceGraphic" in2="effect1_dropShadow_1196_83544" result="shape"/>
</filter>
</defs>
</svg>
