<svg width="56" height="57" viewBox="0 0 56 57" fill="none" xmlns="http://www.w3.org/2000/svg">
<g filter="url(#filter0_d_1196_83532)">
<rect x="4" y="2" width="47.8657" height="48.9535" rx="23.9328" fill="#1E1E1E"/>
</g>
<path d="M30.2152 31.5568C30.4154 31.5568 30.6188 31.5818 30.8207 31.6595C31.0249 31.738 31.2012 31.8601 31.3614 32.0203C31.5215 32.1804 31.6437 32.3568 31.7222 32.561C31.7999 32.7629 31.8249 32.9662 31.8249 33.1665C31.8249 34.0768 31.1254 34.7762 30.2152 34.7762L22.2885 34.7762C21.3782 34.7762 20.6787 34.0768 20.6787 33.1665C20.6787 32.2562 21.3782 31.5568 22.2885 31.5568L30.2152 31.5568Z" fill="white" stroke="white"/>
<path d="M22.2889 23.63L22.2889 24.13L22.2889 23.63C22.4892 23.63 22.6926 23.6551 22.8945 23.7327C23.0986 23.8112 23.275 23.9334 23.4352 24.0935C23.5953 24.2537 23.7175 24.4301 23.796 24.6342C23.8736 24.8361 23.8987 25.0395 23.8987 25.2398V33.1665C23.8987 34.0768 23.1992 34.7762 22.2889 34.7762C21.3786 34.7762 20.6792 34.0768 20.6792 33.1665L20.6792 25.2398C20.6792 24.3295 21.3786 23.63 22.2889 23.63Z" fill="white" stroke="white"/>
<path d="M33.825 19.3376C34.1431 19.0194 34.5433 18.8344 34.9712 18.8344C35.3991 18.8344 35.7993 19.0194 36.1174 19.3376C36.4356 19.6557 36.6206 20.0559 36.6206 20.4838C36.6206 20.9117 36.4356 21.3119 36.1174 21.63L23.4347 34.3127C23.1165 34.6309 22.7164 34.8159 22.2885 34.8159C21.8606 34.8159 21.4604 34.6309 21.1422 34.3127C20.8241 33.9946 20.6391 33.5944 20.6391 33.1665C20.6391 32.7386 20.8241 32.3384 21.1422 32.0203L33.825 19.3376Z" fill="white" stroke="white"/>
<defs>
<filter id="filter0_d_1196_83532" x="0" y="0" width="55.8652" height="56.9536" filterUnits="userSpaceOnUse" color-interpolation-filters="sRGB">
<feFlood flood-opacity="0" result="BackgroundImageFix"/>
<feColorMatrix in="SourceAlpha" type="matrix" values="0 0 0 0 0 0 0 0 0 0 0 0 0 0 0 0 0 0 127 0" result="hardAlpha"/>
<feOffset dy="2"/>
<feGaussianBlur stdDeviation="2"/>
<feComposite in2="hardAlpha" operator="out"/>
<feColorMatrix type="matrix" values="0 0 0 0 0 0 0 0 0 0 0 0 0 0 0 0 0 0 0.15 0"/>
<feBlend mode="normal" in2="BackgroundImageFix" result="effect1_dropShadow_1196_83532"/>
<feBlend mode="normal" in="SourceGraphic" in2="effect1_dropShadow_1196_83532" result="shape"/>
</filter>
</defs>
</svg>
