<svg width="56" height="57" viewBox="0 0 56 57" fill="none" xmlns="http://www.w3.org/2000/svg">
<g filter="url(#filter0_d_1196_83538)">
<rect x="4" y="2" width="47.8657" height="48.9535" rx="23.9328" fill="#1E1E1E"/>
</g>
<path d="M26.3044 22.5096C26.1041 22.5096 25.9007 22.4846 25.6988 22.407C25.4947 22.3284 25.3183 22.2063 25.1581 22.0461C24.998 21.886 24.8758 21.7096 24.7973 21.5055C24.7196 21.3035 24.6946 21.1002 24.6946 20.8999C24.6946 19.9896 25.3941 19.2902 26.3044 19.2902L34.2311 19.2902C35.1413 19.2902 35.8408 19.9896 35.8408 20.8999C35.8408 21.8102 35.1413 22.5096 34.2311 22.5096L26.3044 22.5096Z" fill="white" stroke="white"/>
<path d="M34.2306 30.4364L34.2306 29.9364L34.2306 30.4364C34.0303 30.4364 33.827 30.4113 33.6251 30.3337C33.4209 30.2552 33.2445 30.133 33.0844 29.9729C32.9242 29.8127 32.8021 29.6363 32.7236 29.4322C32.6459 29.2303 32.6209 29.0269 32.6209 28.8266V20.8999C32.6209 19.9897 33.3203 19.2902 34.2306 19.2902C35.1409 19.2902 35.8403 19.9897 35.8403 20.8999L35.8403 28.8266C35.8403 29.7369 35.1409 30.4364 34.2306 30.4364Z" fill="white" stroke="white"/>
<path d="M22.6946 34.7289C22.3764 35.047 21.9762 35.232 21.5483 35.232C21.1204 35.232 20.7203 35.047 20.4021 34.7289C20.084 34.4107 19.899 34.0105 19.899 33.5826C19.899 33.1547 20.084 32.7545 20.4021 32.4364L33.0848 19.7537C33.403 19.4355 33.8032 19.2505 34.2311 19.2505C34.659 19.2505 35.0591 19.4355 35.3773 19.7537C35.6954 20.0718 35.8804 20.472 35.8804 20.8999C35.8804 21.3278 35.6954 21.728 35.3773 22.0461L22.6946 34.7289Z" fill="white" stroke="white"/>
<defs>
<filter id="filter0_d_1196_83538" x="0" y="0" width="55.8652" height="56.9536" filterUnits="userSpaceOnUse" color-interpolation-filters="sRGB">
<feFlood flood-opacity="0" result="BackgroundImageFix"/>
<feColorMatrix in="SourceAlpha" type="matrix" values="0 0 0 0 0 0 0 0 0 0 0 0 0 0 0 0 0 0 127 0" result="hardAlpha"/>
<feOffset dy="2"/>
<feGaussianBlur stdDeviation="2"/>
<feComposite in2="hardAlpha" operator="out"/>
<feColorMatrix type="matrix" values="0 0 0 0 0 0 0 0 0 0 0 0 0 0 0 0 0 0 0.15 0"/>
<feBlend mode="normal" in2="BackgroundImageFix" result="effect1_dropShadow_1196_83538"/>
<feBlend mode="normal" in="SourceGraphic" in2="effect1_dropShadow_1196_83538" result="shape"/>
</filter>
</defs>
</svg>
