<svg width="80" height="82" viewBox="0 0 80 82" fill="none" xmlns="http://www.w3.org/2000/svg">
<rect width="79.2045" height="82" rx="10" fill="#FC223B"/>
<path d="M67.7406 65.1391C69.0773 65.0854 70.12 63.9465 70.0658 62.5943L68.1205 14.0997C68.0663 12.7496 66.9378 11.6956 65.5989 11.7493L22.2622 13.4877L24.4038 66.8774L67.7406 65.1391Z" fill="#100C25"/>
<path d="M8.63037 16.4797L10.5756 64.9743C10.6299 66.3266 11.7583 67.3784 13.0972 67.3247L24.4187 66.8705L22.2771 13.483L10.9557 13.9371C9.61678 13.9908 8.57622 15.1296 8.63046 16.4819L8.63037 16.4797Z" fill="#100C25"/>
<path d="M68.318 70.8184C69.7215 70.8184 70.8624 69.677 70.8624 68.268L70.8624 17.7394C70.8624 16.3304 69.7238 15.1891 68.318 15.1891L22.8174 15.1891L22.8174 70.8184L68.318 70.8184Z" fill="white"/>
<path d="M8.38849 17.7394L8.38849 68.268C8.38849 69.677 9.52714 70.8184 10.9329 70.8184L22.8197 70.8184L22.8197 15.1891L10.9306 15.1891C9.52488 15.1891 8.38623 16.3304 8.38623 17.7394L8.38849 17.7394Z" fill="#EAEAEA"/>
<path fill-rule="evenodd" clip-rule="evenodd" d="M43.5642 26.0908C43.7795 26.454 44.0206 26.8085 44.2072 27.1846C44.895 28.5989 45.3219 30.1257 45.4674 31.6917C45.5607 32.6089 45.5909 33.5333 45.6512 34.4548C45.6512 34.472 45.6727 34.4892 45.7129 34.5466C46.1291 34.0598 46.4242 33.4813 46.5741 32.8586C46.7607 32.2586 46.8756 31.6371 47.032 30.9812C47.1138 31.0489 47.1883 31.1249 47.2545 31.2079C47.8822 32.2363 48.332 33.363 48.5851 34.5409C48.8414 35.75 49.0136 36.9754 49.1004 38.2083C49.1124 38.2609 49.1277 38.3127 49.1463 38.3633C49.2323 38.2863 49.3107 38.2013 49.3803 38.1092C49.7719 37.4144 50.0066 36.6423 50.0679 35.8471C50.0765 35.7624 50.0851 35.6777 50.098 35.593C50.098 35.5758 50.1224 35.5614 50.1583 35.517C50.2148 35.5577 50.2655 35.606 50.309 35.6605C51.1239 36.9878 51.7651 38.4143 52.2166 39.9049C52.5919 41.1156 52.8065 42.3703 52.8553 43.6369C52.9008 45.5293 52.3762 47.3918 51.3497 48.9822C50.3398 50.5067 49.1626 51.9135 47.8402 53.1764C46.8167 54.2185 45.7717 55.2419 44.7914 56.3242C44.3476 56.8755 43.941 57.4557 43.5742 58.061C43.5326 58.1213 43.4995 58.1888 43.4306 58.2964C43.326 58.2268 43.2262 58.15 43.1321 58.0668C41.4455 56.3443 39.802 54.5903 38.2733 52.7271C37.297 51.5551 36.4054 50.3152 35.605 49.0167C35.0324 48.0811 34.5836 47.0751 34.27 46.0239C33.9082 44.765 33.9261 43.4273 34.3217 42.1785C34.8649 40.5449 35.6908 39.0193 36.7619 37.6715C37.9317 36.0925 39.1561 34.5524 40.3274 32.9735C41.3709 31.6317 42.2034 30.1384 42.7962 28.5453C43.0201 27.8994 43.1507 27.2219 43.323 26.5573C43.3603 26.4138 43.3934 26.2702 43.4292 26.1267L43.5541 26.0908H43.5642Z" fill="#FC223B"/>
<path d="M11.4146 17.7046H66.8577C67.4789 17.7822 68.7214 18.2637 68.7214 19.5682C68.7214 20.8728 68.7214 51.9489 68.7214 67.3239C68.4884 67.9451 67.7896 69.1875 66.8577 69.1875C65.9259 69.1875 29.5074 69.1875 11.4146 69.1875" stroke="#8B8B8B" stroke-dasharray="3 3"/>
</svg>
