<svg width="54" height="65" viewBox="0 0 54 65" fill="none" xmlns="http://www.w3.org/2000/svg">
<path d="M51.3978 11.5531C52.8301 9.96537 52.7157 7.49504 50.9671 6.26425C46.9109 3.40917 42.2323 1.52297 37.293 0.776754C31.0726 -0.163001 24.7131 0.746733 19.0057 3.3928C13.2983 6.03886 8.49468 10.3045 5.19244 15.6591C1.89021 21.0137 0.235059 27.221 0.43286 33.5089C0.630661 39.7967 2.67269 45.8877 6.30494 51.0242C9.93719 56.1607 14.9994 60.1159 20.8619 62.398C26.7243 64.6801 33.1284 65.1884 39.2774 63.8595C43.582 62.9292 47.6287 61.1274 51.1774 58.5866C53.7064 56.776 53.6428 53.1618 51.4183 50.9879C50.5842 50.1727 49.2526 50.1961 48.3682 50.9564C45.3014 53.5931 41.6165 55.4317 37.6417 56.2907C32.9768 57.2988 28.1184 56.9133 23.6709 55.182C19.2234 53.4507 15.383 50.45 12.6274 46.5533C9.8718 42.6565 8.32263 38.0357 8.17257 33.2654C8.02251 28.4951 9.27818 23.786 11.7834 19.7238C14.2886 15.6616 17.9328 12.4255 22.2627 10.4181C26.5926 8.41063 31.4172 7.72047 36.1362 8.43341C39.573 8.95262 42.8434 10.1993 45.7357 12.0734C47.5303 13.2361 49.9654 13.1408 51.3978 11.5531Z" fill="url(#paint0_linear_3375_31)"/>
<defs>
<linearGradient id="paint0_linear_3375_31" x1="50.1462" y1="56.5626" x2="14.697" y2="24.6905" gradientUnits="userSpaceOnUse">
<stop stop-color="#fff" stop-opacity="0"/>
<stop offset="1" stop-color="#fff"/>
</linearGradient>
</defs>
</svg>
