<svg width="97" height="43" viewBox="0 0 97 43" fill="none" xmlns="http://www.w3.org/2000/svg">
<g clip-path="url(#clip0_11776_67900)">
<path d="M52.2423 6.23259C53.4896 8.2521 54.2573 10.2224 53.9933 12.0449C53.4896 15.5913 49.1238 18.0049 48.2362 20.1723C45.0698 16.8473 43.1268 14.5816 42.8149 12.4636C42.3352 8.54765 47.8045 5.34596 48.2362 0.9375C49.2198 2.21817 49.5076 4.43472 49.5076 5.71539C49.9874 5.07505 50.2752 4.26232 50.2752 3.44959C51.2108 4.58248 51.4987 6.55276 51.4987 8.03045C51.9544 7.56252 52.2183 6.92217 52.2423 6.23259Z" fill="#FF0000"/>
<path d="M28.1823 26.5508H37.0819V22.3887H22.833V42.2883H37.0819V38.1754H28.1823V34.4319H35.9784V30.2944H28.1823V26.5508Z" fill="#070731"/>
<path d="M59.3906 22.3887V26.5508H64.4762V42.2883H69.8254V26.5508H74.8629V22.3887H59.3906Z" fill="#070731"/>
<path d="M92.1587 35.2692C93.526 34.6289 94.6294 33.5452 95.301 32.1661C95.9728 30.7869 96.1646 29.2106 95.8528 27.7084C95.5409 26.206 94.7253 24.8515 93.55 23.8909C92.3745 22.9305 90.9352 22.3887 89.424 22.3887C85.7058 22.3887 81.9877 22.3887 78.2695 22.3887C78.2695 29.1368 78.2695 35.9096 78.2695 42.6578C80.0687 42.6578 81.8438 42.6578 83.6429 42.6578C83.6429 40.392 83.6429 38.1261 83.6429 35.8603C84.5065 35.8603 85.3701 35.8603 86.2336 35.8603C87.5769 38.1261 88.8963 40.392 90.2396 42.6578C92.3265 42.6578 94.4136 42.6578 96.5005 42.6578C95.0612 40.1948 93.6219 37.732 92.1587 35.2692ZM89.9038 30.9592C89.424 31.4518 88.8003 31.7227 88.1286 31.7227C86.6414 31.7227 85.1541 31.7227 83.6429 31.7227C83.6429 29.9988 83.6429 28.2748 83.6429 26.5508C85.1301 26.5508 86.6174 26.5508 88.1286 26.5508C88.8003 26.5508 89.448 26.8217 89.9038 27.3143C90.3835 27.8068 90.6474 28.4472 90.6474 29.1368C90.6474 29.8263 90.3835 30.4667 89.9038 30.9592Z" fill="#070731"/>
<path d="M50.9225 26.5508H54.7846L57.2313 22.3887H39.2402L41.687 26.5508H45.5491V42.2883H50.9225V26.5508Z" fill="#070731"/>
<path d="M18.2991 41.1553C16.1642 42.0912 13.8373 42.6577 11.4865 42.6577C9.85532 42.6577 8.22413 42.3868 6.73689 41.7711C5.82534 41.3769 4.96176 40.8351 4.21813 40.1949C3.45052 39.5299 2.80285 38.7664 2.25112 37.9291C1.6994 37.0917 1.26761 36.1558 0.955771 35.1952C0.643926 34.2348 0.5 33.2003 0.5 32.1906C0.5 30.1465 1.0997 28.1269 2.20315 26.4276C3.3066 24.7283 4.88981 23.3983 6.73689 22.6102C7.67242 22.2161 8.60794 21.9699 9.61545 21.8468C10.1192 21.7729 10.599 21.7482 11.1027 21.7236C11.6064 21.6989 12.0862 21.7236 12.59 21.7482C14.581 21.8961 16.524 22.4132 18.3471 23.226C17.5075 24.6544 16.6679 26.0829 15.8283 27.4867C14.485 26.7724 13.0217 26.3784 11.5105 26.3784C9.87931 26.3784 8.34408 27.0926 7.26461 28.3487C6.18516 29.6046 5.70539 31.2794 5.8973 32.9294C6.11319 34.5797 7.00075 36.0573 8.34408 36.9932C9.68741 37.9291 11.3666 38.2 12.9498 37.7812C12.9498 35.7617 12.9498 33.7422 12.9498 31.7228C14.7489 31.7228 16.524 31.7228 18.3231 31.7228C18.2991 34.8751 18.2991 38.0029 18.2991 41.1553Z" fill="#070731"/>
</g>
<defs>
<clipPath id="clip0_11776_67900">
<rect width="96" height="41.8187" fill="white" transform="translate(0.5 0.9375)"/>
</clipPath>
</defs>
</svg>
