<svg width="24" height="24" viewBox="0 0 24 24" fill="none" xmlns="http://www.w3.org/2000/svg">
<path fill-rule="evenodd" clip-rule="evenodd" d="M5.14286 3.71429C4.76398 3.71429 4.40061 3.8648 4.1327 4.1327C3.8648 4.40061 3.71429 4.76398 3.71429 5.14286V6.28571C3.71429 6.7591 3.33053 7.14286 2.85714 7.14286C2.38376 7.14286 2 6.7591 2 6.28571V5.14286C2 4.30932 2.33112 3.50992 2.92052 2.92052C3.50992 2.33112 4.30932 2 5.14286 2H7.42857C7.90196 2 8.28571 2.38376 8.28571 2.85714C8.28571 3.33053 7.90196 3.71429 7.42857 3.71429H5.14286Z" fill="#1A1A1A"/>
<path fill-rule="evenodd" clip-rule="evenodd" d="M2.85714 16.8571C3.33053 16.8571 3.71429 17.2409 3.71429 17.7143V18.8571C3.71429 19.236 3.8648 19.5994 4.1327 19.8673C4.40061 20.1352 4.76398 20.2857 5.14286 20.2857H7.42857C7.90196 20.2857 8.28571 20.6695 8.28571 21.1429C8.28571 21.6162 7.90196 22 7.42857 22H5.14286C4.30932 22 3.50992 21.6689 2.92052 21.0795C2.33112 20.4901 2 19.6907 2 18.8571V17.7143C2 17.2409 2.38376 16.8571 2.85714 16.8571Z" fill="#1A1A1A"/>
<path fill-rule="evenodd" clip-rule="evenodd" d="M15.7143 2.85714C15.7143 2.38376 16.098 2 16.5714 2H18.8571C19.6907 2 20.4901 2.33112 21.0795 2.92052C21.6689 3.50992 22 4.30932 22 5.14286V6.28571C22 6.7591 21.6162 7.14286 21.1429 7.14286C20.6695 7.14286 20.2857 6.7591 20.2857 6.28571V5.14286C20.2857 4.76398 20.1352 4.40061 19.8673 4.1327C19.5994 3.8648 19.236 3.71429 18.8571 3.71429H16.5714C16.098 3.71429 15.7143 3.33053 15.7143 2.85714Z" fill="#1A1A1A"/>
<path fill-rule="evenodd" clip-rule="evenodd" d="M21.1429 16.8571C21.6162 16.8571 22 17.2409 22 17.7143V18.8571C22 19.6907 21.6689 20.4901 21.0795 21.0795C20.4901 21.6689 19.6907 22 18.8571 22H16.5714C16.098 22 15.7143 21.6162 15.7143 21.1429C15.7143 20.6695 16.098 20.2857 16.5714 20.2857H18.8571C19.236 20.2857 19.5994 20.1352 19.8673 19.8673C20.1352 19.5994 20.2857 19.236 20.2857 18.8571V17.7143C20.2857 17.2409 20.6695 16.8571 21.1429 16.8571Z" fill="#1A1A1A"/>
<path fill-rule="evenodd" clip-rule="evenodd" d="M7 5C5.89543 5 5 5.89543 5 7V17C5 18.1046 5.89543 19 7 19H17C18.1046 19 19 18.1046 19 17V7C19 5.89543 18.1046 5 17 5H7ZM8 11.25C7.58579 11.25 7.25 11.5858 7.25 12C7.25 12.4142 7.58579 12.75 8 12.75H16C16.4142 12.75 16.75 12.4142 16.75 12C16.75 11.5858 16.4142 11.25 16 11.25H8Z" fill="#1A1A1A"/>
</svg>
