<svg width="20" height="20" viewBox="0 0 20 20" fill="none" xmlns="http://www.w3.org/2000/svg">
<path d="M18.85 17.15L14.43 12.73C15.41 11.41 16 9.77 16 8C16 3.59 12.41 0 8 0C3.59 0 0 3.59 0 8C0 12.41 3.59 16 8 16C9.77 16 11.41 15.41 12.74 14.43L17.16 18.85C17.39 19.08 17.7 19.2 18.01 19.2C18.32 19.2 18.62 19.08 18.86 18.85C19.32 18.38 19.32 17.62 18.85 17.15ZM2.4 8C2.4 4.91 4.91 2.4 8 2.4C11.09 2.4 13.6 4.91 13.6 8C13.6 11.09 11.09 13.6 8 13.6C4.91 13.6 2.4 11.09 2.4 8Z" fill="#ADB3BC"/>
</svg>
