<svg width="20" height="20" viewBox="0 0 20 20" fill="none" xmlns="http://www.w3.org/2000/svg">
<path fill-rule="evenodd" clip-rule="evenodd" d="M1.66602 9.99984C1.66602 14.6023 5.39685 18.3332 9.99935 18.3332C14.6018 18.3332 18.3327 14.6023 18.3327 9.99984C18.3327 5.39734 14.6018 1.6665 9.99935 1.6665C5.39685 1.6665 1.66602 5.39734 1.66602 9.99984ZM14.4711 8.86308L9.16852 14.1664L6.22186 11.2197C5.89647 10.8944 5.89647 10.3668 6.22186 10.0414C6.54724 9.71603 7.0748 9.71603 7.40019 10.0414L9.16852 11.8097L13.2927 7.68485C13.6181 7.35941 14.1457 7.35939 14.4711 7.68479C14.7964 8.01016 14.7965 8.53768 14.4711 8.86308Z" fill="#007AFF"/>
</svg>
