<svg width="76" height="12" viewBox="0 0 76 12" fill="none" xmlns="http://www.w3.org/2000/svg">
<path d="M5.10645 1.04688V11H3.4043V1.04688H5.10645ZM8.23047 1.04688V2.41406H0.307617V1.04688H8.23047ZM10.091 5.01172V11H8.44355V3.60352H10.0158L10.091 5.01172ZM12.3537 3.55566L12.34 5.08691C12.2398 5.06868 12.1304 5.05501 12.0119 5.0459C11.898 5.03678 11.784 5.03223 11.6701 5.03223C11.3876 5.03223 11.1392 5.07324 10.925 5.15527C10.7108 5.23275 10.5308 5.34668 10.385 5.49707C10.2437 5.6429 10.1343 5.82064 10.0568 6.03027C9.97936 6.23991 9.93379 6.47461 9.92012 6.73438L9.54414 6.76172C9.54414 6.29688 9.58971 5.86621 9.68086 5.46973C9.77201 5.07324 9.90872 4.72461 10.091 4.42383C10.2779 4.12305 10.5103 3.88835 10.7883 3.71973C11.0708 3.55111 11.3967 3.4668 11.7658 3.4668C11.8661 3.4668 11.9732 3.47591 12.0871 3.49414C12.2056 3.51237 12.2945 3.53288 12.3537 3.55566ZM16.8598 9.5166V5.98926C16.8598 5.72493 16.8119 5.49707 16.7162 5.30566C16.6205 5.11426 16.4747 4.96615 16.2787 4.86133C16.0873 4.75651 15.8458 4.7041 15.5541 4.7041C15.2852 4.7041 15.0528 4.74967 14.8568 4.84082C14.6609 4.93197 14.5082 5.05501 14.3988 5.20996C14.2895 5.36491 14.2348 5.54036 14.2348 5.73633H12.5941C12.5941 5.44466 12.6648 5.16211 12.8061 4.88867C12.9473 4.61523 13.1524 4.37142 13.4213 4.15723C13.6902 3.94303 14.0115 3.77441 14.3852 3.65137C14.7589 3.52832 15.1781 3.4668 15.643 3.4668C16.199 3.4668 16.6911 3.56022 17.1195 3.74707C17.5525 3.93392 17.892 4.21647 18.1381 4.59473C18.3887 4.96842 18.5141 5.43783 18.5141 6.00293V9.29102C18.5141 9.62826 18.5368 9.93132 18.5824 10.2002C18.6326 10.4645 18.7032 10.6947 18.7943 10.8906V11H17.1059C17.0284 10.8223 16.9669 10.5967 16.9213 10.3232C16.8803 10.0452 16.8598 9.77637 16.8598 9.5166ZM17.099 6.50195L17.1127 7.52051H15.9301C15.6247 7.52051 15.3559 7.55013 15.1234 7.60938C14.891 7.66406 14.6973 7.74609 14.5424 7.85547C14.3874 7.96484 14.2712 8.09701 14.1938 8.25195C14.1163 8.4069 14.0775 8.58236 14.0775 8.77832C14.0775 8.97428 14.1231 9.1543 14.2143 9.31836C14.3054 9.47786 14.4376 9.60319 14.6107 9.69434C14.7885 9.78548 15.0027 9.83105 15.2533 9.83105C15.5906 9.83105 15.8845 9.7627 16.1352 9.62598C16.3904 9.4847 16.5909 9.3138 16.7367 9.11328C16.8826 8.9082 16.96 8.71452 16.9691 8.53223L17.5023 9.26367C17.4477 9.45052 17.3542 9.65104 17.2221 9.86523C17.0899 10.0794 16.9167 10.2845 16.7025 10.4805C16.4929 10.6719 16.24 10.8291 15.9438 10.9521C15.6521 11.0752 15.3148 11.1367 14.932 11.1367C14.449 11.1367 14.0183 11.041 13.64 10.8496C13.2618 10.6536 12.9656 10.3916 12.7514 10.0635C12.5372 9.73079 12.4301 9.35482 12.4301 8.93555C12.4301 8.54362 12.503 8.19727 12.6488 7.89648C12.7992 7.59115 13.018 7.33594 13.3051 7.13086C13.5967 6.92578 13.9522 6.77083 14.3715 6.66602C14.7908 6.55664 15.2693 6.50195 15.807 6.50195H17.099ZM21.4205 5.18262V11H19.773V3.60352H21.3248L21.4205 5.18262ZM21.1266 7.02832L20.5934 7.02148C20.5979 6.4974 20.6708 6.0166 20.8121 5.5791C20.9579 5.1416 21.1585 4.76562 21.4137 4.45117C21.6734 4.13672 21.9833 3.89518 22.3434 3.72656C22.7034 3.55339 23.1044 3.4668 23.5465 3.4668C23.902 3.4668 24.2232 3.51693 24.5104 3.61719C24.802 3.71289 25.0504 3.87012 25.2555 4.08887C25.4651 4.30762 25.6246 4.59245 25.734 4.94336C25.8434 5.28971 25.898 5.71582 25.898 6.22168V11H24.2437V6.21484C24.2437 5.85938 24.1913 5.5791 24.0865 5.37402C23.9863 5.16439 23.8382 5.01628 23.6422 4.92969C23.4508 4.83854 23.2115 4.79297 22.9244 4.79297C22.6419 4.79297 22.3889 4.85221 22.1656 4.9707C21.9423 5.08919 21.7532 5.25098 21.5982 5.45605C21.4479 5.66113 21.3316 5.89811 21.2496 6.16699C21.1676 6.43587 21.1266 6.72298 21.1266 7.02832ZM31.2791 8.99707C31.2791 8.83301 31.2381 8.6849 31.1561 8.55273C31.074 8.41602 30.9168 8.29297 30.6844 8.18359C30.4565 8.07422 30.1193 7.97396 29.6727 7.88281C29.2807 7.79622 28.9207 7.69368 28.5926 7.5752C28.269 7.45215 27.991 7.30404 27.7586 7.13086C27.5262 6.95768 27.3462 6.7526 27.2186 6.51562C27.091 6.27865 27.0271 6.00521 27.0271 5.69531C27.0271 5.39453 27.0932 5.1097 27.2254 4.84082C27.3576 4.57194 27.5467 4.33496 27.7928 4.12988C28.0389 3.9248 28.3374 3.76302 28.6883 3.64453C29.0438 3.52604 29.4402 3.4668 29.8777 3.4668C30.4975 3.4668 31.0285 3.57161 31.4705 3.78125C31.9171 3.98633 32.2589 4.2666 32.4959 4.62207C32.7329 4.97298 32.8514 5.36947 32.8514 5.81152H31.2039C31.2039 5.61556 31.1538 5.43327 31.0535 5.26465C30.9578 5.09147 30.812 4.95247 30.616 4.84766C30.4201 4.73828 30.174 4.68359 29.8777 4.68359C29.5952 4.68359 29.3605 4.72917 29.1736 4.82031C28.9913 4.9069 28.8546 5.02083 28.7635 5.16211C28.6769 5.30339 28.6336 5.45833 28.6336 5.62695C28.6336 5.75 28.6564 5.86165 28.702 5.96191C28.7521 6.05762 28.8341 6.14648 28.948 6.22852C29.062 6.30599 29.2169 6.37891 29.4129 6.44727C29.6134 6.51562 29.8641 6.58171 30.1648 6.64551C30.7299 6.764 31.2153 6.91667 31.6209 7.10352C32.0311 7.28581 32.3455 7.52279 32.5643 7.81445C32.783 8.10156 32.8924 8.46615 32.8924 8.9082C32.8924 9.23633 32.8217 9.53711 32.6805 9.81055C32.5438 10.0794 32.3432 10.3141 32.0789 10.5146C31.8146 10.7106 31.4979 10.8633 31.1287 10.9727C30.7641 11.082 30.354 11.1367 29.8982 11.1367C29.2283 11.1367 28.6609 11.0182 28.1961 10.7812C27.7313 10.5397 27.3781 10.2321 27.1365 9.8584C26.8995 9.48014 26.7811 9.08822 26.7811 8.68262H28.3738C28.3921 8.98796 28.4764 9.23177 28.6268 9.41406C28.7817 9.5918 28.9731 9.72168 29.201 9.80371C29.4334 9.88118 29.6727 9.91992 29.9188 9.91992C30.215 9.91992 30.4633 9.88118 30.6639 9.80371C30.8644 9.72168 31.0171 9.6123 31.1219 9.47559C31.2267 9.33431 31.2791 9.1748 31.2791 8.99707ZM38.0547 9.5166V5.98926C38.0547 5.72493 38.0068 5.49707 37.9111 5.30566C37.8154 5.11426 37.6696 4.96615 37.4736 4.86133C37.2822 4.75651 37.0407 4.7041 36.749 4.7041C36.4801 4.7041 36.2477 4.74967 36.0518 4.84082C35.8558 4.93197 35.7031 5.05501 35.5938 5.20996C35.4844 5.36491 35.4297 5.54036 35.4297 5.73633H33.7891C33.7891 5.44466 33.8597 5.16211 34.001 4.88867C34.1423 4.61523 34.3473 4.37142 34.6162 4.15723C34.8851 3.94303 35.2064 3.77441 35.5801 3.65137C35.9538 3.52832 36.373 3.4668 36.8379 3.4668C37.3939 3.4668 37.8861 3.56022 38.3145 3.74707C38.7474 3.93392 39.0869 4.21647 39.333 4.59473C39.5837 4.96842 39.709 5.43783 39.709 6.00293V9.29102C39.709 9.62826 39.7318 9.93132 39.7773 10.2002C39.8275 10.4645 39.8981 10.6947 39.9893 10.8906V11H38.3008C38.2233 10.8223 38.1618 10.5967 38.1162 10.3232C38.0752 10.0452 38.0547 9.77637 38.0547 9.5166ZM38.2939 6.50195L38.3076 7.52051H37.125C36.8197 7.52051 36.5508 7.55013 36.3184 7.60938C36.0859 7.66406 35.8923 7.74609 35.7373 7.85547C35.5824 7.96484 35.4661 8.09701 35.3887 8.25195C35.3112 8.4069 35.2725 8.58236 35.2725 8.77832C35.2725 8.97428 35.318 9.1543 35.4092 9.31836C35.5003 9.47786 35.6325 9.60319 35.8057 9.69434C35.9834 9.78548 36.1976 9.83105 36.4482 9.83105C36.7855 9.83105 37.0794 9.7627 37.3301 9.62598C37.5853 9.4847 37.7858 9.3138 37.9316 9.11328C38.0775 8.9082 38.1549 8.71452 38.1641 8.53223L38.6973 9.26367C38.6426 9.45052 38.5492 9.65104 38.417 9.86523C38.2848 10.0794 38.1117 10.2845 37.8975 10.4805C37.6878 10.6719 37.4349 10.8291 37.1387 10.9521C36.847 11.0752 36.5098 11.1367 36.127 11.1367C35.6439 11.1367 35.2132 11.041 34.835 10.8496C34.4567 10.6536 34.1605 10.3916 33.9463 10.0635C33.7321 9.73079 33.625 9.35482 33.625 8.93555C33.625 8.54362 33.6979 8.19727 33.8438 7.89648C33.9941 7.59115 34.2129 7.33594 34.5 7.13086C34.7917 6.92578 35.1471 6.77083 35.5664 6.66602C35.9857 6.55664 36.4642 6.50195 37.002 6.50195H38.2939ZM44.0031 9.82422C44.272 9.82422 44.5135 9.77181 44.7277 9.66699C44.9465 9.55762 45.1219 9.40723 45.2541 9.21582C45.3908 9.02441 45.466 8.80339 45.4797 8.55273H47.0314C47.0223 9.03125 46.8811 9.46647 46.6076 9.8584C46.3342 10.2503 45.9719 10.5625 45.5207 10.7949C45.0695 11.0228 44.5705 11.1367 44.0236 11.1367C43.4585 11.1367 42.9663 11.041 42.5471 10.8496C42.1278 10.6536 41.7792 10.3848 41.5012 10.043C41.2232 9.70117 41.0135 9.30697 40.8723 8.86035C40.7355 8.41374 40.6672 7.93522 40.6672 7.4248V7.18555C40.6672 6.67513 40.7355 6.19661 40.8723 5.75C41.0135 5.29883 41.2232 4.90234 41.5012 4.56055C41.7792 4.21875 42.1278 3.95215 42.5471 3.76074C42.9663 3.56478 43.4562 3.4668 44.0168 3.4668C44.6092 3.4668 45.1288 3.58529 45.5754 3.82227C46.022 4.05469 46.3729 4.38053 46.6281 4.7998C46.8879 5.21452 47.0223 5.69759 47.0314 6.24902H45.4797C45.466 5.97559 45.3977 5.72949 45.2746 5.51074C45.1561 5.28743 44.9875 5.1097 44.7687 4.97754C44.5546 4.84538 44.2971 4.7793 43.9963 4.7793C43.6636 4.7793 43.3879 4.84766 43.1691 4.98438C42.9504 5.11654 42.7795 5.29883 42.6564 5.53125C42.5334 5.75911 42.4445 6.0166 42.3898 6.30371C42.3397 6.58626 42.3146 6.88021 42.3146 7.18555V7.4248C42.3146 7.73014 42.3397 8.02637 42.3898 8.31348C42.44 8.60059 42.5266 8.85807 42.6496 9.08594C42.7772 9.30924 42.9504 9.48926 43.1691 9.62598C43.3879 9.75814 43.6659 9.82422 44.0031 9.82422ZM51.2367 3.60352V4.80664H47.0668V3.60352H51.2367ZM48.2699 1.79199H49.9174V8.95605C49.9174 9.18392 49.9493 9.35938 50.0131 9.48242C50.0814 9.60091 50.1749 9.68066 50.2934 9.72168C50.4118 9.7627 50.5508 9.7832 50.7104 9.7832C50.8243 9.7832 50.9337 9.77637 51.0385 9.7627C51.1433 9.74902 51.2276 9.73535 51.2914 9.72168L51.2982 10.9795C51.1615 11.0205 51.002 11.057 50.8197 11.0889C50.642 11.1208 50.4369 11.1367 50.2045 11.1367C49.8262 11.1367 49.4913 11.0706 49.1996 10.9385C48.9079 10.8018 48.6801 10.5807 48.516 10.2754C48.352 9.97005 48.2699 9.56445 48.2699 9.05859V1.79199ZM53.8219 3.60352V11H52.1676V3.60352H53.8219ZM52.0582 1.66211C52.0582 1.41146 52.1402 1.2041 52.3043 1.04004C52.4729 0.871419 52.7053 0.787109 53.0016 0.787109C53.2932 0.787109 53.5234 0.871419 53.692 1.04004C53.8606 1.2041 53.9449 1.41146 53.9449 1.66211C53.9449 1.9082 53.8606 2.11328 53.692 2.27734C53.5234 2.44141 53.2932 2.52344 53.0016 2.52344C52.7053 2.52344 52.4729 2.44141 52.3043 2.27734C52.1402 2.11328 52.0582 1.9082 52.0582 1.66211ZM54.8621 7.38379V7.22656C54.8621 6.69336 54.9396 6.19889 55.0945 5.74316C55.2495 5.28288 55.4728 4.88411 55.7645 4.54688C56.0607 4.20508 56.4207 3.94076 56.8445 3.75391C57.2729 3.5625 57.756 3.4668 58.2938 3.4668C58.8361 3.4668 59.3191 3.5625 59.743 3.75391C60.1714 3.94076 60.5337 4.20508 60.8299 4.54688C61.1261 4.88411 61.3517 5.28288 61.5066 5.74316C61.6616 6.19889 61.7391 6.69336 61.7391 7.22656V7.38379C61.7391 7.91699 61.6616 8.41146 61.5066 8.86719C61.3517 9.32292 61.1261 9.72168 60.8299 10.0635C60.5337 10.4007 60.1736 10.665 59.7498 10.8564C59.326 11.0433 58.8452 11.1367 58.3074 11.1367C57.7651 11.1367 57.2798 11.0433 56.8514 10.8564C56.4275 10.665 56.0675 10.4007 55.7713 10.0635C55.4751 9.72168 55.2495 9.32292 55.0945 8.86719C54.9396 8.41146 54.8621 7.91699 54.8621 7.38379ZM56.5096 7.22656V7.38379C56.5096 7.71647 56.5438 8.03092 56.6121 8.32715C56.6805 8.62337 56.7876 8.88314 56.9334 9.10645C57.0792 9.32975 57.2661 9.50521 57.4939 9.63281C57.7218 9.76042 57.993 9.82422 58.3074 9.82422C58.6128 9.82422 58.8771 9.76042 59.1004 9.63281C59.3283 9.50521 59.5151 9.32975 59.6609 9.10645C59.8068 8.88314 59.9139 8.62337 59.9822 8.32715C60.0551 8.03092 60.0916 7.71647 60.0916 7.38379V7.22656C60.0916 6.89844 60.0551 6.58854 59.9822 6.29688C59.9139 6.00065 59.8045 5.73861 59.6541 5.51074C59.5083 5.28288 59.3214 5.10514 59.0936 4.97754C58.8702 4.84538 58.6036 4.7793 58.2938 4.7793C57.9839 4.7793 57.715 4.84538 57.4871 4.97754C57.2638 5.10514 57.0792 5.28288 56.9334 5.51074C56.7876 5.73861 56.6805 6.00065 56.6121 6.29688C56.5438 6.58854 56.5096 6.89844 56.5096 7.22656ZM64.3037 5.18262V11H62.6562V3.60352H64.208L64.3037 5.18262ZM64.0098 7.02832L63.4766 7.02148C63.4811 6.4974 63.554 6.0166 63.6953 5.5791C63.8411 5.1416 64.0417 4.76562 64.2969 4.45117C64.5566 4.13672 64.8665 3.89518 65.2266 3.72656C65.5866 3.55339 65.9876 3.4668 66.4297 3.4668C66.7852 3.4668 67.1064 3.51693 67.3936 3.61719C67.6852 3.71289 67.9336 3.87012 68.1387 4.08887C68.3483 4.30762 68.5078 4.59245 68.6172 4.94336C68.7266 5.28971 68.7812 5.71582 68.7812 6.22168V11H67.127V6.21484C67.127 5.85938 67.0745 5.5791 66.9697 5.37402C66.8695 5.16439 66.7214 5.01628 66.5254 4.92969C66.334 4.83854 66.0947 4.79297 65.8076 4.79297C65.5251 4.79297 65.2721 4.85221 65.0488 4.9707C64.8255 5.08919 64.6364 5.25098 64.4814 5.45605C64.3311 5.66113 64.2148 5.89811 64.1328 6.16699C64.0508 6.43587 64.0098 6.72298 64.0098 7.02832ZM74.1623 8.99707C74.1623 8.83301 74.1213 8.6849 74.0393 8.55273C73.9572 8.41602 73.8 8.29297 73.5676 8.18359C73.3397 8.07422 73.0025 7.97396 72.5559 7.88281C72.1639 7.79622 71.8039 7.69368 71.4758 7.5752C71.1522 7.45215 70.8742 7.30404 70.6418 7.13086C70.4094 6.95768 70.2294 6.7526 70.1018 6.51562C69.9742 6.27865 69.9104 6.00521 69.9104 5.69531C69.9104 5.39453 69.9764 5.1097 70.1086 4.84082C70.2408 4.57194 70.4299 4.33496 70.676 4.12988C70.9221 3.9248 71.2206 3.76302 71.5715 3.64453C71.927 3.52604 72.3234 3.4668 72.7609 3.4668C73.3807 3.4668 73.9117 3.57161 74.3537 3.78125C74.8003 3.98633 75.1421 4.2666 75.3791 4.62207C75.6161 4.97298 75.7346 5.36947 75.7346 5.81152H74.0871C74.0871 5.61556 74.037 5.43327 73.9367 5.26465C73.841 5.09147 73.6952 4.95247 73.4992 4.84766C73.3033 4.73828 73.0572 4.68359 72.7609 4.68359C72.4784 4.68359 72.2437 4.72917 72.0568 4.82031C71.8745 4.9069 71.7378 5.02083 71.6467 5.16211C71.5601 5.30339 71.5168 5.45833 71.5168 5.62695C71.5168 5.75 71.5396 5.86165 71.5852 5.96191C71.6353 6.05762 71.7173 6.14648 71.8313 6.22852C71.9452 6.30599 72.1001 6.37891 72.2961 6.44727C72.4966 6.51562 72.7473 6.58171 73.048 6.64551C73.6132 6.764 74.0985 6.91667 74.5041 7.10352C74.9143 7.28581 75.2287 7.52279 75.4475 7.81445C75.6662 8.10156 75.7756 8.46615 75.7756 8.9082C75.7756 9.23633 75.705 9.53711 75.5637 9.81055C75.427 10.0794 75.2264 10.3141 74.9621 10.5146C74.6978 10.7106 74.3811 10.8633 74.0119 10.9727C73.6473 11.082 73.2372 11.1367 72.7814 11.1367C72.1115 11.1367 71.5441 11.0182 71.0793 10.7812C70.6145 10.5397 70.2613 10.2321 70.0197 9.8584C69.7828 9.48014 69.6643 9.08822 69.6643 8.68262H71.257C71.2753 8.98796 71.3596 9.23177 71.51 9.41406C71.6649 9.5918 71.8563 9.72168 72.0842 9.80371C72.3166 9.88118 72.5559 9.91992 72.802 9.91992C73.0982 9.91992 73.3466 9.88118 73.5471 9.80371C73.7476 9.72168 73.9003 9.6123 74.0051 9.47559C74.1099 9.33431 74.1623 9.1748 74.1623 8.99707Z" fill="white"/>
</svg>
