<svg xmlns="http://www.w3.org/2000/svg" width="111" height="111" viewBox="0 0 111 111">
  <g id="Group_611" data-name="Group 611" transform="translate(-0.066)">
    <rect id="Rectangle_732" data-name="Rectangle 732" width="111" height="111" rx="6" transform="translate(0.066)" fill="#0073b7"/>
    <g id="Group_413" data-name="Group 413" transform="translate(34 35)">
      <path id="Path_110" data-name="Path 110" d="M55.662,33.515l-11.086-22.8A2.041,2.041,0,0,0,43.4,9.676L29.57,5.71a1.913,1.913,0,0,0-2.3,1.127l-.361.9A17.193,17.193,0,0,1,31.283,8.91c2.929,1.307,4.642,3.47,4.687,5.948a3.3,3.3,0,0,1-3.29,3.38h-.045a3.343,3.343,0,0,1-3.29-2.794A10.115,10.115,0,0,0,24.3,14.182l-2.479,5.993a1.927,1.927,0,0,0,.045,1.577l11.041,22.8a1.883,1.883,0,0,0,1.712,1.082,1.65,1.65,0,0,0,.811-.18l19.287-9.373A2.107,2.107,0,0,0,55.707,35,1.89,1.89,0,0,0,55.662,33.515Z" transform="translate(-13.032 -5.636)" fill="#fff"/>
      <path id="Path_111" data-name="Path 111" d="M5.384,19.819c0-.361.451-1.036,1.8-1.712A14.636,14.636,0,0,1,13,16.935a14.013,14.013,0,0,1,5.813.991c1.352.586,1.848,1.262,1.848,1.622A1.42,1.42,0,0,0,23.5,19.5c-.045-1.712-1.307-3.2-3.56-4.191A17.673,17.673,0,0,0,12.91,14.1a16.624,16.624,0,0,0-6.985,1.487C3.672,16.665,2.5,18.2,2.5,19.909c.045,1.712,1.307,3.2,3.56,4.191a13.291,13.291,0,0,0,3.2.946,3.741,3.741,0,0,1,.27-.946l.721-1.8a11.329,11.329,0,0,1-3.019-.856C5.88,20.856,5.384,20.18,5.384,19.819Z" transform="translate(-2.5 -10.282)" fill="#fff"/>
    </g>
  </g>
</svg>
