<svg id="eye" xmlns="http://www.w3.org/2000/svg" width="20" height="20" viewBox="0 0 20 20">
  <path id="Path_338" data-name="Path 338" d="M0,0H20V20H0Z" fill="none"/>
  <path id="Path_339" data-name="Path 339" d="M1.181,10A8.866,8.866,0,0,1,10,3a8.867,8.867,0,0,1,8.819,7A8.866,8.866,0,0,1,10,17a8.867,8.867,0,0,1-8.819-7ZM10,13.889A3.986,3.986,0,0,0,14.076,10,3.986,3.986,0,0,0,10,6.111,3.986,3.986,0,0,0,5.924,10,3.986,3.986,0,0,0,10,13.889Zm0-1.556A2.391,2.391,0,0,1,7.555,10,2.391,2.391,0,0,1,10,7.667,2.391,2.391,0,0,1,12.445,10,2.391,2.391,0,0,1,10,12.333Z" transform="translate(0 0)" fill="#6874e8"/>
</svg>
