<svg xmlns="http://www.w3.org/2000/svg" xmlns:xlink="http://www.w3.org/1999/xlink" width="220.21" height="49" viewBox="0 0 220.21 49">
  <defs>
    <linearGradient id="linear-gradient" x1="0.5" x2="0.5" y2="1" gradientUnits="objectBoundingBox">
      <stop offset="0" stop-color="#3fabb9"/>
      <stop offset="1" stop-color="#b91fff"/>
    </linearGradient>
    <linearGradient id="linear-gradient-2" x1="0.5" x2="0.5" y2="1" gradientUnits="objectBoundingBox">
      <stop offset="0" stop-color="#4a9dbe"/>
      <stop offset="1" stop-color="#973fb9"/>
    </linearGradient>
  </defs>
  <g id="Group_283" data-name="Group 283" transform="translate(-19 -10)">
    <g id="Group_41" data-name="Group 41" transform="translate(105 -3.042)">
      <path id="Exclusion_1" data-name="Exclusion 1" d="M14.852,35.513h0l-1.258-.706V20.348L7.671,23.892v7.294L0,26.965V25.4l5.067-2.994V3.642L2.64,5.166V21.012l-2.358,1.4V3.642L6.444,0,7.671.81V15.032l5.924-3.5V4.106l7.553,4.521v1.48l-5.035,2.966V31.633l2.445-1.278v-15.9l2.589-1.386V31.949ZM5.139,25.343l-1.232.77,1.232.832ZM13.545,14.58,7.706,18.061v2.728l5.839-3.342Zm2.531-5.988v1.556L17.3,9.412Z" transform="translate(-72.053 19.764)" fill="url(#linear-gradient)"/>
      <path id="Subtraction_1" data-name="Subtraction 1" d="M24.5,49A24.479,24.479,0,0,1,4.027,37.962L6.6,36.493a21.709,21.709,0,0,0,2.669,3.241A21.549,21.549,0,0,0,44.351,16.116c-.093-.221-.193-.445-.295-.665l2.575-1.472A24.493,24.493,0,0,1,24.5,49ZM2.552,35.4h0A24.493,24.493,0,0,1,24.5,0,24.483,24.483,0,0,1,45.2,11.39l-2.569,1.468a21.684,21.684,0,0,0-9.748-8.209A21.557,21.557,0,0,0,4.649,32.885c.148.351.308.7.475,1.045L2.553,35.4Z" transform="translate(-86 13.042)" fill="url(#linear-gradient-2)"/>
    </g>
    <path id="Path_47" data-name="Path 47" d="M12.757-20.8v7.97H3.183L0-9.623v7.97H3.183v-7.97h9.574v7.97H15.94V-20.8Zm16.9,0A9.145,9.145,0,0,0,22.9-17.976a9.221,9.221,0,0,0-2.824,6.749A9.183,9.183,0,0,0,22.9-4.477a9.183,9.183,0,0,0,6.749,2.824A9.183,9.183,0,0,0,36.4-4.477a9.076,9.076,0,0,0,2.848-6.749A9.152,9.152,0,0,0,36.4-17.976,9.183,9.183,0,0,0,29.654-20.8Zm0,3.207a6.145,6.145,0,0,1,4.5,1.867,6.145,6.145,0,0,1,1.867,4.5A6.144,6.144,0,0,1,34.154-6.7a6.123,6.123,0,0,1-4.5,1.843A6.177,6.177,0,0,1,25.131-6.7a6.177,6.177,0,0,1-1.843-4.524,6.123,6.123,0,0,1,1.843-4.5A6.144,6.144,0,0,1,29.654-17.593Zm16.3,9.574,2.824-5.624,2.8,5.624h3.59L48.778-20.8,39.2-1.653h3.542L44.374-4.86ZM56.748-4.836H53.205l1.58,3.183h3.566ZM67.036-10.82a6.051,6.051,0,0,0,1.125-3.614,6.184,6.184,0,0,0-1.867-4.5,6.145,6.145,0,0,0-4.5-1.867h-8.4l1.651,2.848.359.359h6.39a3.039,3.039,0,0,1,2.226.933,2.972,2.972,0,0,1,.957,2.226,3.038,3.038,0,0,1-.957,2.274,3.039,3.039,0,0,1-2.226.933l-2.848-.024,5.553,9.6H68.16L64.235-8.522A6.174,6.174,0,0,0,67.036-10.82Zm19.217-4.093a10.064,10.064,0,0,0-2.082-3.064,9.887,9.887,0,0,0-3.04-2.058,9.273,9.273,0,0,0-3.71-.766H71.055l3.183,3.207h3.183a6.554,6.554,0,0,1,2.465.479,6.673,6.673,0,0,1,2.034,1.388,6.541,6.541,0,0,1,1.388,2.034,6.222,6.222,0,0,1,.5,2.465,6.222,6.222,0,0,1-.5,2.465,6.9,6.9,0,0,1-1.364,2.034A6.275,6.275,0,0,1,79.91-5.339a6.586,6.586,0,0,1-2.489.479H74.238L71.055-1.653h6.366a9.189,9.189,0,0,0,3.71-.766,9.717,9.717,0,0,0,3.064-2.058,10.441,10.441,0,0,0,2.058-3.064,9.059,9.059,0,0,0,.742-3.686A9.059,9.059,0,0,0,86.253-14.912Zm7.42,6.893L96.5-13.644l2.8,5.624h3.59L96.5-20.8,86.923-1.653h3.542L92.093-4.86Zm10.794,3.183h-3.542l1.58,3.183h3.566Zm17.779-10.387a5.41,5.41,0,0,0-.431-2.154,5.384,5.384,0,0,0-1.2-1.771,5.549,5.549,0,0,0-1.8-1.221,5.582,5.582,0,0,0-2.154-.431H106.306l3.183,3.207h7.18a2.359,2.359,0,0,1,.909.168,2,2,0,0,1,.79.527,2.364,2.364,0,0,1,.5.766,2.383,2.383,0,0,1,.191.909,2.409,2.409,0,0,1-.191.933,2.364,2.364,0,0,1-.5.766,2,2,0,0,1-.79.527,2.007,2.007,0,0,1-.909.191H106.306v3.183h10.363a2.626,2.626,0,0,1,.957.191,2.329,2.329,0,0,1,.742.527,2.364,2.364,0,0,1,.5.766,2.383,2.383,0,0,1,.191.909,2.383,2.383,0,0,1-.191.909,2.364,2.364,0,0,1-.5.766,2,2,0,0,1-.79.527,2.359,2.359,0,0,1-.909.168h-7.18v3.207h7.18a5.41,5.41,0,0,0,2.154-.431,5.549,5.549,0,0,0,1.8-1.221,5.384,5.384,0,0,0,1.2-1.771,5.41,5.41,0,0,0,.431-2.154,5.314,5.314,0,0,0-1.675-4A5.388,5.388,0,0,0,122.246-15.223ZM129.33-4.86l-3.183,3.207H138.9V-4.86ZM126.147-20.8V-5.985l3.183-3.207V-20.8ZM142.514-1.916v.263h12.757V-4.86H145.7Zm0-18.884,3.183,3.207h9.574V-20.8Zm0,7.994v3.183h12.757v-3.183H142.514Z" transform="translate(83.938 44.8)" fill="#151e58"/>
  </g>
</svg>
