<svg xmlns="http://www.w3.org/2000/svg" width="177.242" height="39" viewBox="0 0 177.242 39">
  <g id="logo" transform="translate(-19 -10.259)">
    <g id="Group_41" data-name="Group 41" transform="translate(19 10)">
      <path id="Exclusion_1" data-name="Exclusion 1" d="M11.954,28.584h0l-1.012-.568V16.378L6.174,19.23V25.1L0,21.7V20.445l4.078-2.41V2.931L2.125,4.158V16.912l-1.9,1.123V2.931L5.187,0l.987.652V12.1l4.768-2.821V3.305l6.079,3.639V8.135l-4.052,2.387V25.461l1.968-1.029V11.638l2.084-1.116V25.715ZM4.136,20.4l-.992.62.992.669ZM10.9,11.735l-4.7,2.8v2.2l4.7-2.69Zm2.037-4.82V8.168l.983-.592Z" transform="translate(11.225 5.411)" fill="#151e58"/>
      <path id="Subtraction_1" data-name="Subtraction 1" d="M19.5,39a19.483,19.483,0,0,1-16.3-8.785l2.047-1.17a17.279,17.279,0,0,0,2.124,2.579A17.151,17.151,0,0,0,35.3,12.827c-.074-.176-.153-.354-.235-.53l2.05-1.171A19.494,19.494,0,0,1,19.5,39ZM2.031,28.175h0A19.494,19.494,0,0,1,19.5,0,19.486,19.486,0,0,1,35.976,9.066l-2.045,1.168A17.259,17.259,0,0,0,26.173,3.7,17.157,17.157,0,0,0,3.7,26.174c.118.279.245.559.378.832L2.032,28.175Z" transform="translate(0 0.259)" fill="#151e58"/>
    </g>
    <path id="Path_47" data-name="Path 47" d="M10.268-20.8v6.415H2.562L0-11.8v6.415H2.562V-11.8h7.706v6.415H12.83V-20.8Zm13.6,0a7.36,7.36,0,0,0-5.432,2.273,7.422,7.422,0,0,0-2.273,5.432,7.391,7.391,0,0,0,2.273,5.432,7.391,7.391,0,0,0,5.432,2.273A7.391,7.391,0,0,0,29.3-7.662a7.305,7.305,0,0,0,2.292-5.432A7.366,7.366,0,0,0,29.3-18.527,7.391,7.391,0,0,0,23.868-20.8Zm0,2.581a4.946,4.946,0,0,1,3.622,1.5,4.946,4.946,0,0,1,1.5,3.622,4.945,4.945,0,0,1-1.5,3.641A4.928,4.928,0,0,1,23.868-7.97a4.972,4.972,0,0,1-3.641-1.483,4.972,4.972,0,0,1-1.483-3.641,4.928,4.928,0,0,1,1.483-3.622A4.945,4.945,0,0,1,23.868-18.219Zm13.119,7.706L39.26-15.04l2.254,4.527H44.4L39.26-20.8,31.554-5.389h2.851l1.31-2.581Zm8.688,2.562H42.824L44.1-5.389h2.87Zm8.281-4.816a4.87,4.87,0,0,0,.905-2.909,4.977,4.977,0,0,0-1.5-3.622,4.946,4.946,0,0,0-3.622-1.5H42.975L44.3-18.508l.289.289h5.143a2.446,2.446,0,0,1,1.792.751,2.392,2.392,0,0,1,.771,1.792,2.446,2.446,0,0,1-.771,1.83,2.446,2.446,0,0,1-1.792.751l-2.292-.019,4.469,7.725h2.947L51.7-10.918A4.97,4.97,0,0,0,53.955-12.767Zm15.467-3.294a8.1,8.1,0,0,0-1.676-2.466A7.958,7.958,0,0,0,65.3-20.184a7.464,7.464,0,0,0-2.986-.616H57.19l2.562,2.581h2.562a5.275,5.275,0,0,1,1.984.385,5.371,5.371,0,0,1,1.637,1.117,5.265,5.265,0,0,1,1.117,1.637,5.008,5.008,0,0,1,.4,1.984,5.008,5.008,0,0,1-.4,1.984,5.555,5.555,0,0,1-1.1,1.637,5.05,5.05,0,0,1-1.637,1.117,5.3,5.3,0,0,1-2,.385H59.752L57.19-5.389h5.124A7.4,7.4,0,0,0,65.3-6.005a7.821,7.821,0,0,0,2.466-1.657,8.4,8.4,0,0,0,1.657-2.466,7.291,7.291,0,0,0,.6-2.967A7.291,7.291,0,0,0,69.423-16.061Zm5.972,5.548,2.273-4.527,2.254,4.527h2.89L77.668-20.8,69.962-5.389h2.851l1.31-2.581Zm8.688,2.562H81.232L82.5-5.389h2.87Zm14.31-8.361a4.354,4.354,0,0,0-.347-1.734,4.333,4.333,0,0,0-.963-1.426,4.466,4.466,0,0,0-1.445-.982A4.493,4.493,0,0,0,93.9-20.8H85.563l2.562,2.581H93.9a1.9,1.9,0,0,1,.732.135,1.606,1.606,0,0,1,.636.424,1.9,1.9,0,0,1,.4.616,1.918,1.918,0,0,1,.154.732,1.939,1.939,0,0,1-.154.751,1.9,1.9,0,0,1-.4.616,1.606,1.606,0,0,1-.636.424,1.615,1.615,0,0,1-.732.154H85.563V-11.8H93.9a2.114,2.114,0,0,1,.771.154,1.874,1.874,0,0,1,.6.424,1.9,1.9,0,0,1,.4.616,1.918,1.918,0,0,1,.154.732,1.918,1.918,0,0,1-.154.732,1.9,1.9,0,0,1-.4.616,1.606,1.606,0,0,1-.636.424,1.9,1.9,0,0,1-.732.135H88.125v2.581H93.9a4.354,4.354,0,0,0,1.734-.347,4.466,4.466,0,0,0,1.445-.982,4.333,4.333,0,0,0,.963-1.426,4.354,4.354,0,0,0,.347-1.734,4.277,4.277,0,0,0-1.348-3.217A4.337,4.337,0,0,0,98.393-16.311Zm5.7,8.341-2.562,2.581H111.8V-7.97ZM101.533-20.8V-8.876l2.562-2.581V-20.8ZM114.706-5.6v.212h10.268V-7.97h-7.706Zm0-15.2,2.562,2.581h7.706V-20.8Zm0,6.434V-11.8h10.268v-2.562H114.706Z" transform="translate(71.268 42.068)" fill="#151e58"/>
  </g>
</svg>
