<svg xmlns="http://www.w3.org/2000/svg" width="44" height="44" viewBox="0 0 44 44">
  <g id="metamask" transform="translate(-1365 -420)">
    <rect id="Rectangle_885" data-name="Rectangle 885" width="44" height="44" transform="translate(1365 420)" fill="none"/>
    <g id="MetaMask_Fox_1_" data-name="MetaMask_Fox (1)" transform="translate(1337.199 389.5)">
      <path id="Path_514" data-name="Path 514" d="M188.954,35.5,174.6,46.161l2.654-6.29Z" transform="translate(-122.2)" fill="#e2761b" stroke="#e2761b" stroke-linecap="round" stroke-linejoin="round" stroke-width="1"/>
      <g id="Group_612" data-name="Group 612" transform="translate(32.103 35.5)">
        <path id="Path_515" data-name="Path 515" d="M44.4,35.5,58.638,46.262l-2.525-6.391Z" transform="translate(-42.885 -35.5)" fill="#e4761b" stroke="#e4761b" stroke-linecap="round" stroke-linejoin="round" stroke-width="1"/>
        <path id="Path_516" data-name="Path 516" d="M215.623,206.8l-3.823,5.857,8.18,2.25,2.351-7.978Z" transform="translate(-186.136 -182.088)" fill="#e4761b" stroke="#e4761b" stroke-linecap="round" stroke-linejoin="round" stroke-width="1"/>
        <path id="Path_517" data-name="Path 517" d="M33.9,206.93l2.337,7.978,8.18-2.25L40.594,206.8Z" transform="translate(-33.9 -182.088)" fill="#e4761b" stroke="#e4761b" stroke-linecap="round" stroke-linejoin="round" stroke-width="1"/>
        <path id="Path_518" data-name="Path 518" d="M90.079,109.019,87.8,112.467l8.122.361-.289-8.728Z" transform="translate(-80.024 -94.204)" fill="#e4761b" stroke="#e4761b" stroke-linecap="round" stroke-linejoin="round" stroke-width="1"/>
        <path id="Path_519" data-name="Path 519" d="M180.414,108.42l-5.626-5.02-.188,8.829,8.107-.361Z" transform="translate(-154.303 -93.605)" fill="#e4761b" stroke="#e4761b" stroke-linecap="round" stroke-linejoin="round" stroke-width="1"/>
        <path id="Path_520" data-name="Path 520" d="M106.8,213.769l4.876-2.38-4.212-3.289Z" transform="translate(-96.283 -183.201)" fill="#e4761b" stroke="#e4761b" stroke-linecap="round" stroke-linejoin="round" stroke-width="1"/>
        <path id="Path_521" data-name="Path 521" d="M177.9,211.389l4.89,2.38-.678-5.669Z" transform="translate(-157.127 -183.201)" fill="#e4761b" stroke="#e4761b" stroke-linecap="round" stroke-linejoin="round" stroke-width="1"/>
      </g>
      <g id="Group_613" data-name="Group 613" transform="translate(42.619 63.688)">
        <path id="Path_522" data-name="Path 522" d="M182.79,233.28l-4.89-2.38.389,3.188-.043,1.342Z" transform="translate(-167.643 -230.9)" fill="#d7c1b3" stroke="#d7c1b3" stroke-linecap="round" stroke-linejoin="round" stroke-width="1"/>
        <path id="Path_523" data-name="Path 523" d="M106.8,233.28l4.544,2.149-.029-1.342.361-3.188Z" transform="translate(-106.8 -230.9)" fill="#d7c1b3" stroke="#d7c1b3" stroke-linecap="round" stroke-linejoin="round" stroke-width="1"/>
      </g>
      <path id="Path_524" data-name="Path 524" d="M114.668,178.61l-4.068-1.2,2.871-1.313Z" transform="translate(-67.432 -120.317)" fill="#233447" stroke="#233447" stroke-linecap="round" stroke-linejoin="round" stroke-width="1"/>
      <path id="Path_525" data-name="Path 525" d="M179.7,178.61l1.2-2.51,2.885,1.313Z" transform="translate(-126.564 -120.317)" fill="#233447" stroke="#233447" stroke-linecap="round" stroke-linejoin="round" stroke-width="1"/>
      <g id="Group_614" data-name="Group 614" transform="translate(38.797 53.763)">
        <path id="Path_526" data-name="Path 526" d="M84.123,212.657l.692-5.857-4.515.13Z" transform="translate(-80.3 -200.352)" fill="#cd6116" stroke="#cd6116" stroke-linecap="round" stroke-linejoin="round" stroke-width="1"/>
        <path id="Path_527" data-name="Path 527" d="M207,206.8l.692,5.857,3.823-5.727Z" transform="translate(-188.722 -200.352)" fill="#cd6116" stroke="#cd6116" stroke-linecap="round" stroke-linejoin="round" stroke-width="1"/>
        <path id="Path_528" data-name="Path 528" d="M182.707,162.1l-8.107.361.75,4.169,1.2-2.51,2.885,1.313Z" transform="translate(-160.996 -162.1)" fill="#cd6116" stroke="#cd6116" stroke-linecap="round" stroke-linejoin="round" stroke-width="1"/>
        <path id="Path_529" data-name="Path 529" d="M91.089,165.432l2.885-1.313,1.183,2.51.765-4.169L87.8,162.1Z" transform="translate(-86.718 -162.1)" fill="#cd6116" stroke="#cd6116" stroke-linecap="round" stroke-linejoin="round" stroke-width="1"/>
      </g>
      <g id="Group_615" data-name="Group 615" transform="translate(39.879 53.763)">
        <path id="Path_530" data-name="Path 530" d="M87.8,162.1l3.4,6.636-.115-3.3Z" transform="translate(-87.8 -162.1)" fill="#e4751f" stroke="#e4751f" stroke-linecap="round" stroke-linejoin="round" stroke-width="1"/>
        <path id="Path_531" data-name="Path 531" d="M207.244,165.432l-.144,3.3,3.419-6.636Z" transform="translate(-189.89 -162.1)" fill="#e4751f" stroke="#e4751f" stroke-linecap="round" stroke-linejoin="round" stroke-width="1"/>
        <path id="Path_532" data-name="Path 532" d="M139.565,164.6l-.765,4.169.952,4.919.216-6.477Z" transform="translate(-131.443 -164.239)" fill="#e4751f" stroke="#e4751f" stroke-linecap="round" stroke-linejoin="round" stroke-width="1"/>
        <path id="Path_533" data-name="Path 533" d="M172.289,164.6l-.389,2.6.173,6.492.967-4.919Z" transform="translate(-159.768 -164.239)" fill="#e4751f" stroke="#e4751f" stroke-linecap="round" stroke-linejoin="round" stroke-width="1"/>
      </g>
      <path id="Path_534" data-name="Path 534" d="M174.067,186.4l-.967,4.919.692.476L178,188.5l.144-3.3Z" transform="translate(-120.916 -128.104)" fill="#f6851b" stroke="#f6851b" stroke-linecap="round" stroke-linejoin="round" stroke-width="1"/>
      <path id="Path_535" data-name="Path 535" d="M110.6,185.2l.115,3.3,4.212,3.289.692-.476-.952-4.919Z" transform="translate(-67.432 -128.104)" fill="#f6851b" stroke="#f6851b" stroke-linecap="round" stroke-linejoin="round" stroke-width="1"/>
      <path id="Path_536" data-name="Path 536" d="M117.4,249.549l.043-1.342-.361-.317h-5.439l-.332.317.029,1.342L106.8,247.4l1.587,1.3,3.217,2.236h5.525l3.231-2.236,1.587-1.3Z" transform="translate(-64.181 -181.331)" fill="#c0ad9e" stroke="#c0ad9e" stroke-linecap="round" stroke-linejoin="round" stroke-width="1"/>
      <path id="Path_537" data-name="Path 537" d="M143.842,228.076l-.692-.476h-4l-.692.476-.361,3.188.332-.317h5.439l.361.317Z" transform="translate(-90.965 -164.388)" fill="#161616" stroke="#161616" stroke-linecap="round" stroke-linejoin="round" stroke-width="1"/>
      <g id="Group_616" data-name="Group 616" transform="translate(31.8 35.5)">
        <path id="Path_538" data-name="Path 538" d="M192.384,46.853l1.226-5.886L191.778,35.5,177.9,45.8l5.338,4.515,7.545,2.207,1.673-1.948-.721-.519L192.889,49l-.894-.692,1.154-.88Z" transform="translate(-156.824 -35.5)" fill="#763d16" stroke="#763d16" stroke-linecap="round" stroke-linejoin="round" stroke-width="1"/>
        <path id="Path_539" data-name="Path 539" d="M31.8,40.967l1.226,5.886-.779.577,1.154.88-.88.692,1.154,1.053-.721.519,1.659,1.948,7.545-2.207L47.5,45.8,33.618,35.5Z" transform="translate(-31.8 -35.5)" fill="#763d16" stroke="#763d16" stroke-linecap="round" stroke-linejoin="round" stroke-width="1"/>
      </g>
      <path id="Path_540" data-name="Path 540" d="M215.77,140.407l-7.545-2.207,2.294,3.448-3.419,6.636,4.5-.058h6.708Z" transform="translate(-150.011 -87.885)" fill="#f6851b" stroke="#f6851b" stroke-linecap="round" stroke-linejoin="round" stroke-width="1"/>
      <path id="Path_541" data-name="Path 541" d="M43.955,138.2l-7.545,2.207-2.51,7.819h6.694l4.486.058-3.4-6.636Z" transform="translate(-1.797 -87.885)" fill="#f6851b" stroke="#f6851b" stroke-linecap="round" stroke-linejoin="round" stroke-width="1"/>
      <path id="Path_542" data-name="Path 542" d="M132.669,80.053l.476-8.324,2.193-5.929H125.6l2.164,5.929.5,8.324.173,2.626.014,6.463h4l.029-6.463Z" transform="translate(-80.268 -25.929)" fill="#f6851b" stroke="#f6851b" stroke-linecap="round" stroke-linejoin="round" stroke-width="1"/>
    </g>
  </g>
</svg>
