<svg xmlns="http://www.w3.org/2000/svg" width="110" height="110" viewBox="0 0 110 110">
  <g id="Processing" transform="translate(-896 -288)">
    <rect id="Rectangle_889" data-name="Rectangle 889" width="110" height="110" transform="translate(896 288)" fill="none"/>
    <path id="Icon_ionic-ios-settings" data-name="Icon ionic-ios-settings" d="M50.626,29.638a6.47,6.47,0,0,1,4.15-6.036,25.644,25.644,0,0,0-3.1-7.476,6.556,6.556,0,0,1-2.632.563,6.455,6.455,0,0,1-5.9-9.086,25.567,25.567,0,0,0-7.463-3.1A6.464,6.464,0,0,1,23.6,4.5a25.644,25.644,0,0,0-7.476,3.1,6.455,6.455,0,0,1-5.9,9.086,6.343,6.343,0,0,1-2.632-.563A26.211,26.211,0,0,0,4.5,23.616a6.468,6.468,0,0,1,.013,12.072,25.644,25.644,0,0,0,3.1,7.476,6.458,6.458,0,0,1,8.523,8.523,25.794,25.794,0,0,0,7.476,3.1,6.452,6.452,0,0,1,12.045,0,25.644,25.644,0,0,0,7.476-3.1,6.464,6.464,0,0,1,8.523-8.523,25.794,25.794,0,0,0,3.1-7.476A6.5,6.5,0,0,1,50.626,29.638ZM29.756,40.1A10.474,10.474,0,1,1,40.23,29.625,10.471,10.471,0,0,1,29.756,40.1Z" transform="translate(905.648 323.491) rotate(-30)" fill="#bcbcbc"/>
    <path id="Icon_ionic-ios-settings-2" data-name="Icon ionic-ios-settings" d="M36.3,21.832a4.461,4.461,0,0,1,2.862-4.161,17.68,17.68,0,0,0-2.139-5.154,4.52,4.52,0,0,1-1.814.388,4.451,4.451,0,0,1-4.071-6.265A17.627,17.627,0,0,0,25.993,4.5a4.457,4.457,0,0,1-8.323,0,17.681,17.681,0,0,0-5.154,2.139A4.451,4.451,0,0,1,8.445,12.9a4.373,4.373,0,0,1-1.814-.388A18.071,18.071,0,0,0,4.5,17.679,4.459,4.459,0,0,1,4.509,26a17.681,17.681,0,0,0,2.139,5.154,4.452,4.452,0,0,1,5.877,5.877,17.784,17.784,0,0,0,5.154,2.139,4.449,4.449,0,0,1,8.3,0,17.681,17.681,0,0,0,5.154-2.139,4.457,4.457,0,0,1,5.877-5.877A17.784,17.784,0,0,0,39.154,26,4.482,4.482,0,0,1,36.3,21.832ZM21.913,29.044a7.222,7.222,0,1,1,7.222-7.222A7.22,7.22,0,0,1,21.913,29.044Z" transform="translate(959.777 341.2)" fill="#bcbcbc"/>
    <path id="Icon_ionic-ios-settings-3" data-name="Icon ionic-ios-settings" d="M24.093,15.178a2.748,2.748,0,0,1,1.763-2.564,10.893,10.893,0,0,0-1.318-3.176,2.785,2.785,0,0,1-1.118.239,2.742,2.742,0,0,1-2.508-3.86A10.86,10.86,0,0,0,17.742,4.5a2.746,2.746,0,0,1-5.128,0A10.893,10.893,0,0,0,9.439,5.818,2.742,2.742,0,0,1,6.93,9.678a2.694,2.694,0,0,1-1.118-.239A11.134,11.134,0,0,0,4.5,12.62a2.747,2.747,0,0,1,.006,5.128,10.893,10.893,0,0,0,1.318,3.176,2.743,2.743,0,0,1,3.621,3.621,10.957,10.957,0,0,0,3.176,1.318,2.741,2.741,0,0,1,5.117,0,10.893,10.893,0,0,0,3.176-1.318,2.746,2.746,0,0,1,3.621-3.621,10.957,10.957,0,0,0,1.318-3.176A2.761,2.761,0,0,1,24.093,15.178Zm-8.865,4.444a4.449,4.449,0,1,1,4.449-4.449A4.448,4.448,0,0,1,15.228,19.622Z" transform="translate(897.822 337.175)" fill="#bcbcbc"/>
  </g>
</svg>
