<svg id="epsgmAbIMrC1" xmlns="http://www.w3.org/2000/svg" xmlns:xlink="http://www.w3.org/1999/xlink" viewBox="0 0 110 110" shape-rendering="geometricPrecision" text-rendering="geometricPrecision"><style><![CDATA[#epsgmAbIMrC4_tr {animation: epsgmAbIMrC4_tr__tr 2608.6956521739135ms linear infinite normal forwards}@keyframes epsgmAbIMrC4_tr__tr { 0% {transform: translate(946.137014px,334.344016px) rotate(-30.000012deg)} 100% {transform: translate(946.137014px,334.344016px) rotate(-360.000011deg)}} #epsgmAbIMrC5_tr {animation: epsgmAbIMrC5_tr__tr 2608.6956521739135ms linear infinite normal forwards}@keyframes epsgmAbIMrC5_tr__tr { 0% {transform: translate(981.608px,363.035px) rotate(0deg)} 100% {transform: translate(981.608px,363.035px) rotate(360deg)}} #epsgmAbIMrC6_tr {animation: epsgmAbIMrC6_tr__tr 2608.6956521739135ms linear infinite normal forwards}@keyframes epsgmAbIMrC6_tr__tr { 0% {transform: translate(913px,352.3565px) rotate(0deg)} 100% {transform: translate(913px,352.3565px) rotate(360deg)}}]]></style><g transform="translate(-896-288)"><rect width="110" height="110" rx="0" ry="0" transform="translate(896 288)" fill="none"/><g id="epsgmAbIMrC4_tr" transform="translate(946.137014,334.344016) rotate(-30.000012)"><path d="M50.626,29.638c.001549-2.676751,1.651253-5.076176,4.15-6.036-.631103-2.640378-1.677464-5.163797-3.1-7.476-.828954.367678-1.725171.559384-2.632.563-2.187866.001872-4.227759-1.104622-5.419283-2.93957s-1.372473-4.148548-.480717-6.14643c-2.307595-1.422437-4.826723-2.468839-7.463-3.1-.955483,2.506178-3.359394,4.161937-6.041534,4.161271s-5.085228-1.657619-6.039466-4.164271c-2.640378.631103-5.163797,1.677464-7.476,3.1.891756,1.997882.710807,4.311483-.480717,6.14643s-3.231417,2.941442-5.419283,2.93957c-.907506.002778-1.805044-.18921-2.632-.563-1.412976,2.322222-2.456114,4.85011-3.092,7.493c2.49773.958659,4.147464,3.356155,4.150345,6.031538s-1.641686,5.076425-4.137345,6.040462c.631103,2.640378,1.677464,5.163797,3.1,7.476c2.441426-1.083976,5.298254-.552969,7.187112,1.335888s2.419864,4.745686,1.335888,7.187112c2.313353,1.420282,4.836403,2.46649,7.476,3.1.957956-2.492467,3.35228-4.137308,6.0225-4.137308s5.064544,1.644841,6.0225,4.137308c2.640378-.631103,5.163797-1.677464,7.476-3.1-1.076817-2.441102-.543183-5.292985,1.343416-7.179584s4.738482-2.420233,7.179584-1.343416c1.420282-2.313353,2.46649-4.836403,3.1-7.476-2.49014-.975069-4.12896-3.375761-4.13-6.05ZM29.756,40.1c-5.7845,0-10.473816-4.689166-10.474-10.473667s4.688833-10.473965,10.473333-10.474333s10.474115,4.6885,10.474667,10.473c.001061,2.778295-1.102073,5.443117-3.066531,7.407762s-4.629174,3.068034-7.407469,3.067238Z" transform="translate(-29.638,-29.6435)" fill="#bcbcbc"/></g><g id="epsgmAbIMrC5_tr" transform="translate(981.608,363.035) rotate(0)"><path d="M36.3,21.832c.001481-1.845469,1.139156-3.499511,2.862-4.161-.435674-1.820398-1.157665-3.560061-2.139-5.154-.571339.253356-1.189011.385471-1.814.388-1.509055.002178-2.916435-.760402-3.738676-2.025776s-.94734-2.86118-.332324-4.239224c-1.590689-.981612-3.327384-1.703969-5.145-2.14-.660898,1.723414-2.31571,2.861141-4.1615,2.861141s-3.500602-1.137727-4.1615-2.861141c-1.820392.43569-3.560054,1.15768-5.154,2.139.613214,1.37765.487197,2.972095-.334816,4.236311s-2.228223,2.026261-3.736184,2.024689c-.625456.001881-1.244039-.130429-1.814-.388-.973997,1.601396-1.692928,3.344575-2.131,5.167c1.720995.661369,2.857478,2.313712,2.859472,4.157412s-1.130912,3.498497-2.850472,4.163588c.43569,1.820392,1.15768,3.560054,2.139,5.154c1.683533-.748757,3.65435-.383083,4.957217.919783s1.66854,3.273684.919783,4.957217c1.594737.979773,3.334145,1.701657,5.154,2.139.66257-1.714827,2.311623-2.845535,4.15-2.845535s3.48743,1.130708,4.15,2.845535c1.820392-.43569,3.560054-1.15768,5.154-2.139-.742782-1.683264-.374915-3.649953.926066-4.950934s3.26767-1.668848,4.950934-.926066c.98152-1.594427,1.705099-3.33385,2.144-5.154-1.718228-.669862-2.850758-2.323817-2.854-4.168ZM21.913,29.044c-3.9886,0-7.222-3.2334-7.222-7.222s3.2334-7.222,7.222-7.222s7.222,3.2334,7.222,7.222c.000531,1.915556-.760186,3.752808-2.114689,5.107311s-3.191755,2.11522-5.107311,2.114689Z" transform="translate(-21.831,-21.835)" fill="#bcbcbc"/></g><g id="epsgmAbIMrC6_tr" transform="translate(913,352.3565) rotate(0)"><path d="M24.093,15.178c.00058-1.13711.701449-2.156411,1.763-2.564-.268413-1.12177-.713288-2.19379-1.318-3.176-.352129.156124-.732815.237505-1.118.239-.929794.00145-1.796975-.468384-2.303561-1.248057s-.583547-1.762946-.204439-2.611943c-.980165-.604279-2.050196-1.048831-3.17-1.317-.407142,1.061894-1.42673,1.762933-2.564,1.762933s-2.156858-.701039-2.564-1.762933c-1.121423.268513-2.193099.713385-3.175,1.318.379181.849159.302114,1.832633-.204711,2.612363s-1.374318,1.249427-2.304289,1.247637c-.385474.001236-.766724-.080265-1.118-.239-.599528.98594-1.042146,2.059086-1.312,3.181c1.061484.406713,1.762817,1.425206,1.764147,2.561939s-.697617,2.156865-1.758147,2.566061c.268413,1.12177.713288,2.19379,1.318,3.176c1.037277-.461349,2.25157-.236052,3.054311.566689s1.028038,2.017034.566689,3.054311c.982701.60375,2.054564,1.04856,3.176,1.318.406994-1.058825,1.424148-1.757558,2.5585-1.757558s2.151506.698733,2.5585,1.757558c1.12177-.268413,2.19379-.713288,3.176-1.318-.457763-1.037116-.23115-2.248931.57046-3.05054s2.013424-1.028223,3.05054-.57046c.60375-.982701,1.04856-2.054564,1.318-3.176-1.060027-.412367-1.758701-1.43259-1.76-2.57Zm-8.865,4.444c-2.457115,0-4.449-1.991885-4.449-4.449s1.991885-4.449,4.449-4.449s4.449,1.991885,4.449,4.449c.000265,1.180029-.468382,2.311804-1.302789,3.146211s-1.966182,1.303054-3.146211,1.302789Z" transform="translate(-15.178,-15.1815)" fill="#bcbcbc"/></g></g></svg>