<svg xmlns="http://www.w3.org/2000/svg" width="83" height="83" viewBox="0 0 83 83">
  <g id="Request_received" data-name="Request received" transform="translate(-228 -173)">
    <circle id="Ellipse_63" data-name="Ellipse 63" cx="41.5" cy="41.5" r="41.5" transform="translate(228 173)" fill="#f0f0f6"/>
    <path id="Union_2" data-name="Union 2" d="M-5962.839-4942.019l-3.447-5.308H-5981a3,3,0,0,1-3-3V-4976a3,3,0,0,1,3-3h38a3,3,0,0,1,3,3v25.673a3,3,0,0,1-3,3h-14.714l-3.447,5.308a.994.994,0,0,1-.839.455A.994.994,0,0,1-5962.839-4942.019Z" transform="translate(6231.5 5176)" fill="#6a6aff"/>
    <rect id="Rectangle_785" data-name="Rectangle 785" width="24" height="4" rx="2" transform="translate(251 204)" fill="#f0f0f6"/>
    <rect id="Rectangle_786" data-name="Rectangle 786" width="15" height="4" rx="2" transform="translate(251 212)" fill="#f0f0f6"/>
  </g>
</svg>
