<svg xmlns="http://www.w3.org/2000/svg" xmlns:xlink="http://www.w3.org/1999/xlink" width="88" height="88" viewBox="0 0 88 88">
  <defs>
    <linearGradient id="linear-gradient" x1="0.086" x2="0.939" y2="0.937" gradientUnits="objectBoundingBox">
      <stop offset="0" stop-color="#f49090"/>
      <stop offset="1" stop-color="#e8269d"/>
    </linearGradient>
  </defs>
  <g id="Sports" transform="translate(0.151)">
    <g id="Rectangle_855" data-name="Rectangle 855" transform="translate(-0.151)" fill="#f0f0f6" stroke="#efefef" stroke-width="1">
      <rect width="88" height="88" rx="6" stroke="none"/>
      <rect x="0.5" y="0.5" width="87" height="87" rx="5.5" fill="none"/>
    </g>
    <g id="Group_600" data-name="Group 600" transform="translate(23.271 23)">
      <path id="Path_471" data-name="Path 471" d="M0,0H41.952V41.952H0Z" fill="none"/>
      <path id="Path_472" data-name="Path 472" d="M19.48,2A17.48,17.48,0,1,1,2,19.48,17.48,17.48,0,0,1,19.48,2ZM22.4,26.472H16.561l-2.412,3.316.968,2.982a14.062,14.062,0,0,0,8.726,0l.967-2.982L22.4,26.472ZM7.758,17.508,5.5,19.146l0,.334a13.924,13.924,0,0,0,2.591,8.111h3.339l2.313-3.181-1.8-5.541-4.183-1.36Zm23.444,0-4.183,1.36-1.8,5.541,2.311,3.181h3.339a13.921,13.921,0,0,0,2.592-8.111l-.005-.334ZM23.483,6.078,21.228,7.721v4.4l4.709,3.421,3.914-1.271.968-2.977a14.009,14.009,0,0,0-7.335-5.216Zm-8.009,0A14.009,14.009,0,0,0,8.139,11.3l.968,2.975,3.914,1.271,4.711-3.421v-4.4L15.475,6.078Z" transform="translate(1.496 1.496)" fill="url(#linear-gradient)"/>
    </g>
  </g>
</svg>
