<svg xmlns="http://www.w3.org/2000/svg" width="24" height="24" viewBox="0 0 24 24">
  <g id="sub_admin" data-name="sub admin" transform="translate(-289 -4317)">
    <path id="Path_347" data-name="Path 347" d="M0,0H24V24H0Z" transform="translate(289 4317)" fill="none"/>
    <g id="Group_226" data-name="Group 226" transform="translate(-1)">
      <path id="Path_348" data-name="Path 348" d="M12,14v8H4a8,8,0,0,1,8-8Zm0-1a6,6,0,1,1,6-6A6,6,0,0,1,12,13Z" transform="translate(289 4317)" fill="#848cbf"/>
      <path id="Path_349" data-name="Path 349" d="M14.6,18.812a3.51,3.51,0,0,1,0-1.623l-.992-.573,1-1.732.992.573A3.5,3.5,0,0,1,17,14.645V13.5h2v1.145a3.492,3.492,0,0,1,1.405.812l.992-.573,1,1.732-.992.573a3.51,3.51,0,0,1,0,1.622l.992.573-1,1.732-.992-.573a3.5,3.5,0,0,1-1.4.812V22.5H17V21.355a3.5,3.5,0,0,1-1.4-.812l-.992.573-1-1.732.992-.572ZM18,17a1,1,0,1,0,1,1A1,1,0,0,0,18,17Z" transform="translate(289 4317)" fill="#848cbf"/>
    </g>
  </g>
</svg>
