<svg xmlns="http://www.w3.org/2000/svg" width="111.001" height="111.001" viewBox="0 0 111.001 111.001">
  <g id="total_users" data-name="total users" transform="translate(-466.999 -159)">
    <path id="Subtraction_2" data-name="Subtraction 2" d="M-12016-6130h-99a6.009,6.009,0,0,1-6-6v-99a6.009,6.009,0,0,1,6-6h99a6.009,6.009,0,0,1,6,6v99A6.009,6.009,0,0,1-12016-6130Zm-49-76a20.877,20.877,0,0,0-8.176,1.65,20.926,20.926,0,0,0-6.675,4.5,20.93,20.93,0,0,0-4.5,6.675A20.875,20.875,0,0,0-12086-6185a20.883,20.883,0,0,0,1.65,8.175,20.942,20.942,0,0,0,4.5,6.676,20.929,20.929,0,0,0,6.675,4.5A20.877,20.877,0,0,0-12065-6164a20.863,20.863,0,0,0,8.173-1.65,20.93,20.93,0,0,0,6.674-4.5,20.942,20.942,0,0,0,4.5-6.676A20.883,20.883,0,0,0-12044-6185a20.875,20.875,0,0,0-1.65-8.173,20.93,20.93,0,0,0-4.5-6.675,20.909,20.909,0,0,0-6.674-4.5A20.863,20.863,0,0,0-12065-6206Z" transform="translate(12588 6400)" fill="#47a432"/>
    <path id="Path_344" data-name="Path 344" d="M10.168,23.108C7.716,20.459,11.744,16.73,14.2,19.38l3.972,4.289,9.549-11.258c2.337-2.76,6.538.8,4.2,3.556L20.425,29.519a2.757,2.757,0,0,1-4.175.156l-6.082-6.568Z" transform="translate(502 195)" fill="#47a432"/>
  </g>
</svg>
