<svg xmlns="http://www.w3.org/2000/svg" width="25.001" height="25.001" viewBox="0 0 25.001 25.001">
  <path id="Token" d="M-10336.5-6168a12.418,12.418,0,0,1-8.839-3.662,12.419,12.419,0,0,1-3.661-8.839,12.419,12.419,0,0,1,3.661-8.839,12.418,12.418,0,0,1,8.839-3.662,12.422,12.422,0,0,1,8.84,3.662,12.419,12.419,0,0,1,3.661,8.839,12.419,12.419,0,0,1-3.661,8.839A12.422,12.422,0,0,1-10336.5-6168Zm.416-17.5a.231.231,0,0,0-.166.067l-4.681,4.68a.239.239,0,0,0-.07.167.241.241,0,0,0,.07.168l4.681,4.681a.231.231,0,0,0,.166.067.24.24,0,0,0,.169-.067l4.678-4.681a.223.223,0,0,0,.07-.166.23.23,0,0,0-.07-.169l-4.678-4.68A.24.24,0,0,0-10336.084-6185.5Z" transform="translate(10349 6193)" fill="#5c61af"/>
</svg>
