<svg xmlns="http://www.w3.org/2000/svg" width="24" height="24" viewBox="0 0 24 24">
  <g id="token" transform="translate(-288 -6509)">
    <path id="Path_341" data-name="Path 341" d="M12,2A10,10,0,1,0,22,12,10.011,10.011,0,0,0,12,2Z" transform="translate(288 6509)" fill="#848cbf"/>
    <rect id="Rectangle_334" data-name="Rectangle 334" width="24" height="24" transform="translate(288 6509)" fill="none"/>
    <path id="Path_341-2" data-name="Path 341" d="M7.728,11.853l4.125-4.125a.209.209,0,0,1,.295,0l4.125,4.125a.208.208,0,0,1,0,.295h0l-4.125,4.125a.209.209,0,0,1-.295,0L7.728,12.147a.208.208,0,0,1,0-.294Z" transform="translate(288.333 6509)" fill="#151e58"/>
  </g>
</svg>
