<svg xmlns="http://www.w3.org/2000/svg" width="24" height="24" viewBox="0 0 24 24">
  <g id="User" transform="translate(-468 -336)">
    <rect id="Rectangle_898" data-name="Rectangle 898" width="24" height="24" transform="translate(468 336)" fill="none"/>
    <path id="Icon_awesome-user-circle" data-name="Icon awesome-user-circle" d="M9.748.563A9.748,9.748,0,1,0,19.5,10.31,9.746,9.746,0,0,0,9.748.563Zm0,3.773A3.459,3.459,0,1,1,6.289,7.795,3.459,3.459,0,0,1,9.748,4.336Zm0,13.521a7.532,7.532,0,0,1-5.758-2.681,4.382,4.382,0,0,1,3.872-2.35.962.962,0,0,1,.279.043,5.2,5.2,0,0,0,1.608.271,5.184,5.184,0,0,0,1.608-.271.962.962,0,0,1,.279-.043,4.382,4.382,0,0,1,3.872,2.35A7.532,7.532,0,0,1,9.748,17.857Z" transform="translate(470 337.438)" fill="#999aad"/>
  </g>
</svg>
