<svg xmlns="http://www.w3.org/2000/svg" width="44" height="44" viewBox="0 0 44 44">
  <g id="walletconnect" transform="translate(-1365 -517)">
    <rect id="Rectangle_886" data-name="Rectangle 886" width="44" height="44" transform="translate(1365 517)" fill="none"/>
    <path id="Path_544" data-name="Path 544" d="M-8.088,1.542a17.988,17.988,0,0,1,25.058,0l.832.814a.849.849,0,0,1,0,1.226L14.957,6.374a.448.448,0,0,1-.626,0L13.185,5.256a12.547,12.547,0,0,0-17.478,0l-1.226,1.2a.448.448,0,0,1-.626,0L-9,3.663A.849.849,0,0,1-9,2.437ZM22.859,7.305l2.533,2.479a.849.849,0,0,1,0,1.226l-11.428,11.2a.9.9,0,0,1-1.253,0L4.593,14.259a.233.233,0,0,0-.313,0l-8.108,7.947a.9.9,0,0,1-1.253,0L-16.518,11.019a.849.849,0,0,1,0-1.226l2.533-2.479a.9.9,0,0,1,1.253,0l8.117,7.947a.233.233,0,0,0,.313,0L3.806,7.314a.9.9,0,0,1,1.253,0l8.117,7.947a.233.233,0,0,0,.313,0l8.117-7.947A.889.889,0,0,1,22.859,7.305Z" transform="translate(1381.779 529.539)" fill="#3a99fb"/>
  </g>
</svg>
