<svg width="9" height="8" viewBox="0 0 9 8" fill="none" xmlns="http://www.w3.org/2000/svg">
<path d="M5.14953 6.94838C4.47282 7.01081 3.79414 6.85465 3.21299 6.50315C3.20565 6.50052 3.19764 6.50017 3.19002 6.50221C3.18055 6.50476 3.17241 6.51083 3.16726 6.51919C3.16212 6.52754 3.16036 6.53754 3.16235 6.54715C3.16388 6.55456 3.16755 6.5613 3.17284 6.56658C3.77717 6.9321 4.48383 7.0922 5.18707 7.02254C5.89802 6.95211 6.56632 6.65074 7.08977 6.16452C7.61321 5.67829 7.96297 5.03398 8.08555 4.33015C8.20813 3.62632 8.09677 2.9017 7.76852 2.26715C7.44027 1.6326 6.91319 1.12304 6.26791 0.816414C5.62263 0.509791 4.89467 0.422985 4.19538 0.569274C3.49609 0.715563 2.86397 1.08689 2.39571 1.62647C1.92744 2.16604 1.64882 2.84415 1.60246 3.55707L1.53094 4.65679L0.750498 3.87871L0.572805 3.70156L0.572742 3.70162L0.566177 3.69482C0.562633 3.69115 0.55839 3.68822 0.553693 3.68621C0.548998 3.68419 0.543952 3.68313 0.538847 3.68308C0.533738 3.68304 0.528673 3.68401 0.52395 3.68595C0.51922 3.68788 0.514926 3.69074 0.511317 3.69435C0.507705 3.69796 0.504849 3.70225 0.502916 3.70698C0.500981 3.71171 0.500009 3.71677 0.500052 3.72188C0.500097 3.72698 0.501158 3.73203 0.503174 3.73672C0.505189 3.74142 0.508119 3.74566 0.511791 3.74921L0.573482 3.80879L0.576552 3.81494L1.54064 4.77903L1.70164 3.41228C1.78205 2.72964 2.08164 2.09148 2.55546 1.59352C3.02927 1.09556 3.65178 0.76466 4.32958 0.650451C5.00739 0.536242 5.70395 0.644886 6.31479 0.960082C6.92562 1.27528 7.41778 1.78003 7.71745 2.39863C8.01712 3.01723 8.10814 3.71632 7.97685 4.39102C7.84556 5.06573 7.49904 5.67968 6.98928 6.14077C6.47951 6.60186 5.83398 6.88523 5.14953 6.94838ZM1.56885 4.80724L1.59594 4.83432H1.65032L2.72719 3.75745L2.72714 3.7574L2.73339 3.75136C2.73706 3.74782 2.73999 3.74358 2.74201 3.73888C2.74402 3.73418 2.74508 3.72914 2.74513 3.72403C2.74517 3.71892 2.7442 3.71386 2.74227 3.70913C2.74034 3.70441 2.73748 3.70012 2.73386 3.6965C2.73025 3.69289 2.72596 3.69004 2.72123 3.6881C2.7165 3.68617 2.71144 3.68519 2.70634 3.68524C2.70123 3.68528 2.69618 3.68634 2.69149 3.68836C2.6868 3.69038 2.68255 3.69331 2.679 3.69698L2.67906 3.69703L2.67291 3.70318L2.55176 3.82433L1.56885 4.80724ZM1.59599 4.83438C1.6032 4.84155 1.61295 4.84558 1.62313 4.84558C1.6333 4.84558 1.64306 4.84155 1.65027 4.83438H1.59599Z" fill="#000000" stroke="#000000"/>
</svg>
