<svg width="20" height="20" viewBox="0 0 20 20" fill="none" xmlns="http://www.w3.org/2000/svg">
<path d="M10 20C4.477 20 0 15.523 0 10C0 4.477 4.477 0 10 0C15.523 0 20 4.477 20 10C20 15.523 15.523 20 10 20ZM10 18C12.1217 18 14.1566 17.1571 15.6569 15.6569C17.1571 14.1566 18 12.1217 18 10C18 7.87827 17.1571 5.84344 15.6569 4.34315C14.1566 2.84285 12.1217 2 10 2C7.87827 2 5.84344 2.84285 4.34315 4.34315C2.84285 5.84344 2 7.87827 2 10C2 12.1217 2.84285 14.1566 4.34315 15.6569C5.84344 17.1571 7.87827 18 10 18ZM10 8.586L12.1206 6.46462C12.5113 6.07383 13.1448 6.07378 13.5355 6.4645C13.9262 6.85522 13.9262 7.48872 13.5354 7.87937L11.414 10L13.5354 12.1206C13.9262 12.5113 13.9262 13.1448 13.5355 13.5355C13.1448 13.9262 12.5113 13.9262 12.1206 13.5354L10 11.414L7.87937 13.5354C7.48872 13.9262 6.85522 13.9262 6.4645 13.5355C6.07378 13.1448 6.07383 12.5113 6.46463 12.1206L8.586 10L6.46462 7.87937C6.07383 7.48872 6.07378 6.85522 6.4645 6.4645C6.85522 6.07378 7.48872 6.07383 7.87937 6.46463L10 8.586Z" fill="black"/>
</svg>
