<svg width="15" height="17" viewBox="0 0 15 17" fill="none" xmlns="http://www.w3.org/2000/svg">
<path fill-rule="evenodd" clip-rule="evenodd" d="M0 1.96154C0 0.878213 0.915784 0 2.04545 0H10.2273C11.357 0 12.2727 0.878213 12.2727 1.96154V2.61538H12.9545C14.0843 2.61538 15 3.4936 15 4.57692V15.0385C15 16.1218 14.0843 17 12.9545 17H4.77273C3.64302 17 2.72727 16.1218 2.72727 15.0385V14.3846H2.04545C0.915784 14.3846 0 13.5064 0 12.4231V1.96154ZM10.9091 1.96154V2.61538H4.77273C3.64302 2.61538 2.72727 3.4936 2.72727 4.57692V13.0769H2.04545C1.6689 13.0769 1.36364 12.7842 1.36364 12.4231V1.96154C1.36364 1.60043 1.6689 1.30769 2.04545 1.30769H10.2273C10.6038 1.30769 10.9091 1.60043 10.9091 1.96154ZM4.77273 3.92308C4.39616 3.92308 4.09091 4.21582 4.09091 4.57692V15.0385C4.09091 15.3996 4.39616 15.6923 4.77273 15.6923H12.9545C13.3311 15.6923 13.6364 15.3996 13.6364 15.0385V4.57692C13.6364 4.21582 13.3311 3.92308 12.9545 3.92308H4.77273Z" fill="black"/>
</svg>
