<svg width="15" height="15" viewBox="0 0 15 15" fill="none" xmlns="http://www.w3.org/2000/svg">
<path fill-rule="evenodd" clip-rule="evenodd" d="M9.417 0H13.0135C13.8202 0 14.4805 0.655964 14.4805 1.45741V13.0231C14.4805 13.8246 13.8202 14.4805 13.0135 14.4805H9.417C8.61032 14.4805 7.95007 13.8246 7.95007 13.0231V1.45741C7.95007 0.655964 8.61032 0 9.417 0Z" fill="#49494A"/>
<path d="M5.06347 9.92019H1.46693C0.660248 9.92019 0 10.5762 0 11.3776V13.0231C0 13.8246 0.660248 14.4805 1.46693 14.4805H5.06347C5.87015 14.4805 6.5304 13.8246 6.5304 13.0231V11.3776C6.5304 10.5762 5.87015 9.92019 5.06347 9.92019Z" fill="#898A8D"/>
<path d="M5.06347 0H1.46693C0.660248 0 0 0.655964 0 1.45741V7.14618C0 7.94763 0.660248 8.60359 1.46693 8.60359H5.06347C5.87015 8.60359 6.5304 7.94763 6.5304 7.14618V1.45741C6.5304 0.655964 5.87015 0 5.06347 0Z" fill="#898A8D"/>
</svg>
