<svg width="13" height="15" viewBox="0 0 13 15" fill="none" xmlns="http://www.w3.org/2000/svg">
<path fill-rule="evenodd" clip-rule="evenodd" d="M13 10.8334V4.47927C13 2.6459 11.5001 1.14587 9.66665 1.14587H9.20846V0.625036C9.20846 0.270889 8.93759 0 8.58343 0C8.22927 0 7.95839 0.270877 7.95839 0.625036V1.12507H5.0418V0.625036C5.0418 0.270889 4.77093 0 4.41677 0C4.06261 0 3.79173 0.270877 3.79173 0.625036V1.12507H3.3334C1.50003 1.12507 0 2.62507 0 4.45847L0.000145321 10.8335C0.000145321 12.6668 1.50014 14.1669 3.33355 14.1669H9.6877C11.5209 14.1667 13 12.6667 13 10.8335L13 10.8334ZM1.25007 4.47927C1.25007 3.3334 2.18753 2.39594 3.3334 2.39594H3.79173V2.89598C3.79173 3.25012 4.06261 3.52101 4.41677 3.52101C4.77093 3.52101 5.0418 3.25013 5.0418 2.89598V2.39594H7.95839V2.89598C7.95839 3.25012 8.22927 3.52101 8.58343 3.52101C8.93759 3.52101 9.20846 3.25013 9.20846 2.89598V2.39594H9.68759C10.8335 2.39594 11.7709 3.3334 11.7709 4.47927V10.8334C11.7709 11.9793 10.8335 12.9168 9.68759 12.9168H3.33344C2.18757 12.9168 1.25011 11.9793 1.25011 10.8334L1.25007 4.47927ZM10.2917 5.06262C10.2917 5.4999 9.93728 5.85433 9.50002 5.85433C9.06276 5.85433 8.70832 5.49989 8.70832 5.06262C8.70832 4.62535 9.06276 4.27092 9.50002 4.27092C9.93728 4.27092 10.2917 4.62536 10.2917 5.06262ZM3.47934 8.85429C3.91646 8.85429 4.2709 8.49986 4.2709 8.06258C4.2709 7.62532 3.91647 7.27088 3.47934 7.27088C3.04208 7.27088 2.68764 7.62531 2.68764 8.06258C2.68764 8.49985 3.04207 8.85429 3.47934 8.85429ZM7.29163 8.06258C7.29163 8.49986 6.93719 8.85429 6.49993 8.85429C6.06266 8.85429 5.70823 8.49985 5.70823 8.06258C5.70823 7.62531 6.06266 7.27088 6.49993 7.27088C6.93719 7.27088 7.29163 7.62532 7.29163 8.06258ZM9.50002 8.85429C9.93728 8.85429 10.2917 8.49986 10.2917 8.06258C10.2917 7.62532 9.93728 7.27088 9.50002 7.27088C9.06276 7.27088 8.70832 7.62531 8.70832 8.06258C8.70832 8.49985 9.06276 8.85429 9.50002 8.85429ZM4.2709 11.0834C4.2709 11.5207 3.91646 11.8751 3.47934 11.8751C3.04207 11.8751 2.68764 11.5207 2.68764 11.0834C2.68764 10.6462 3.04208 10.2917 3.47934 10.2917C3.91647 10.2917 4.2709 10.6462 4.2709 11.0834ZM6.49993 11.8751C6.93719 11.8751 7.29163 11.5207 7.29163 11.0834C7.29163 10.6462 6.93719 10.2917 6.49993 10.2917C6.06266 10.2917 5.70823 10.6462 5.70823 11.0834C5.70823 11.5207 6.06266 11.8751 6.49993 11.8751Z" fill="black"/>
</svg>
