<svg width="15" height="14" viewBox="0 0 15 14" fill="none" xmlns="http://www.w3.org/2000/svg">
<path d="M0 14H2.72727V5.6H0V14ZM15 6.3C15 5.5265 14.3898 4.9 13.6364 4.9H9.33068L9.98182 1.701C9.99545 1.631 10.0057 1.5575 10.0057 1.4805C10.0057 1.19 9.88977 0.9275 9.70568 0.7385L8.97955 0L4.48977 4.6095C4.24432 4.865 4.09091 5.215 4.09091 5.6V12.6C4.09091 13.3735 4.70114 14 5.45455 14H11.5909C12.1568 14 12.6409 13.6465 12.8455 13.146L14.9011 8.211C14.9649 8.04852 14.9985 7.87518 15 7.7V6.3595L14.9932 6.3525L15 6.3Z" fill="black"/>
</svg>
