<svg width="21" height="19" viewBox="0 0 21 19" fill="none" xmlns="http://www.w3.org/2000/svg">
<path d="M20.81 8.94236C20 7.18236 18.83 5.62236 17.36 4.37236L19.3 2.41236C19.62 2.08236 19.62 1.56236 19.3 1.23236C18.97 0.902363 18.44 0.902363 18.11 1.23236L15.96 3.40236C14.44 2.51236 12.71 2.05236 10.96 2.07236C4.70996 2.07236 1.83995 7.33236 1.10995 8.95236C1.00995 9.17236 0.959961 9.40236 0.959961 9.64236C0.959961 9.88236 1.00995 10.1124 1.10995 10.3324C1.91995 12.0924 3.08997 13.6524 4.55997 14.9024L2.61996 16.8624C2.29996 17.1924 2.29996 17.7124 2.61996 18.0424C2.94996 18.3724 3.47997 18.3724 3.80997 18.0424L5.95996 15.8724C7.47996 16.7624 9.20996 17.2224 10.96 17.2024C17.21 17.2024 20.08 11.9424 20.81 10.3224C20.91 10.1024 20.96 9.87236 20.96 9.63237C20.96 9.39237 20.91 9.15236 20.81 8.94236ZM5.95996 9.62236C5.95996 8.69236 6.20997 7.79237 6.68997 6.99237C7.16997 6.20237 7.84998 5.56236 8.66998 5.13236C9.48998 4.71236 10.4 4.52236 11.32 4.58236C12.24 4.65236 13.12 4.97236 13.86 5.50236L12.65 6.72236C12.14 6.41236 11.56 6.25237 10.97 6.24237C10.09 6.24237 9.23995 6.59236 8.60995 7.22236C7.97995 7.85236 7.62997 8.71236 7.62997 9.60236C7.62997 10.2024 7.79998 10.7824 8.09998 11.3024L6.88998 12.5224C6.27998 11.6924 5.95996 10.6724 5.95996 9.62236ZM15.41 11.9424C14.99 12.7624 14.35 13.4524 13.57 13.9324C12.79 14.4124 11.89 14.6624 10.97 14.6624C9.92997 14.6624 8.91996 14.3324 8.07996 13.7224L9.28998 12.5024C9.79998 12.8124 10.38 12.9724 10.97 12.9824C11.85 12.9824 12.7 12.6324 13.33 12.0024C13.96 11.3724 14.31 10.5124 14.31 9.62236C14.31 9.02236 14.14 8.44237 13.84 7.92237L15.05 6.70236C15.58 7.45236 15.9 8.34236 15.97 9.26236C16.04 10.1824 15.83 11.1224 15.41 11.9424Z" fill="black"/>
</svg>
