<svg width="21" height="16" viewBox="0 0 21 16" fill="none" xmlns="http://www.w3.org/2000/svg">
<path d="M20.81 6.94256C20.08 5.34256 17.21 0.122559 10.96 0.122559C4.70996 0.122559 1.83995 5.34256 1.10995 6.94256C1.00995 7.15256 0.959961 7.39256 0.959961 7.62256C0.959961 7.86256 1.00995 8.09256 1.10995 8.30256C1.83995 9.90256 4.70996 15.1226 10.96 15.1226C17.21 15.1226 20.08 9.90256 20.81 8.30256C20.91 8.09256 20.96 7.85256 20.96 7.62256C20.96 7.39256 20.91 7.16256 20.81 6.94256ZM14.49 11.1626C13.55 12.1026 12.28 12.6226 10.96 12.6326C9.96996 12.6326 8.99996 12.3426 8.17996 11.7926C7.35996 11.2426 6.71997 10.4626 6.33997 9.55256C5.95997 8.64256 5.85997 7.63256 6.05997 6.66256C6.25997 5.69256 6.72996 4.80255 7.42996 4.10255C8.12996 3.40255 9.01996 2.92256 9.98996 2.73256C10.96 2.54256 11.97 2.64256 12.88 3.01256C13.79 3.39256 14.57 4.03255 15.12 4.85255C15.67 5.67255 15.96 6.64256 15.96 7.63256C15.96 8.95256 15.43 10.2226 14.49 11.1626Z" fill="black"/>
</svg>
