<svg width="24" height="24" viewBox="0 0 24 24" fill="none" xmlns="http://www.w3.org/2000/svg">
<path fill-rule="evenodd" clip-rule="evenodd" d="M2 5.05263C2 4.47128 2.45275 4 3.01124 4L20.9888 4C21.5473 4 22 4.47128 22 5.05263C22 5.63398 21.5473 6.10526 20.9888 6.10526L3.01124 6.10526C2.45275 6.10526 2 5.63398 2 5.05263Z" fill="#1A1A1A"/>
<path fill-rule="evenodd" clip-rule="evenodd" d="M9.00001 19.0526C9.00001 18.4713 9.43878 18 9.98004 18L14.3358 18C14.877 18 15.3158 18.4713 15.3158 19.0526C15.3158 19.634 14.877 20.1053 14.3358 20.1053H9.98004C9.43878 20.1053 9.00001 19.634 9.00001 19.0526Z" fill="#1A1A1A"/>
<path fill-rule="evenodd" clip-rule="evenodd" d="M6.00001 12.0526C6.00001 11.4713 6.43135 11 6.96344 11L17.6682 11C18.2003 11 18.6316 11.4713 18.6316 12.0526C18.6316 12.634 18.2003 13.1053 17.6682 13.1053L6.96344 13.1053C6.43135 13.1053 6.00001 12.634 6.00001 12.0526Z" fill="#1A1A1A"/>
</svg>
