<svg width="14" height="16" viewBox="0 0 14 16" fill="none" xmlns="http://www.w3.org/2000/svg">
<path fill-rule="evenodd" clip-rule="evenodd" d="M1.50012 1.00018C1.36742 1.00018 1.24029 1.05286 1.14643 1.1466C1.05268 1.24047 1 1.3677 1 1.50029V4.49943C0.999666 4.6568 1.07355 4.80523 1.19933 4.89989L5.0008 7.74954V14.5007C5.00102 14.6738 5.09075 14.8345 5.23808 14.9254C5.3854 15.0164 5.56922 15.0247 5.72414 14.9473L8.72274 13.4469H8.72263C8.80566 13.4055 8.87553 13.3417 8.92442 13.2628C8.9733 13.1839 8.99931 13.093 8.99942 13.0002V7.74937L12.7989 4.89971C12.9253 4.8054 12.9999 4.65697 13 4.49925V1.50011C13 1.36753 12.9473 1.24029 12.8536 1.14643C12.7598 1.05268 12.6326 1 12.4999 1L1.50012 1.00018ZM2.00024 1.9986H12V4.25029L8.20058 7.09994C8.07413 7.19425 7.99958 7.34269 7.99946 7.5004V12.6921L5.9991 13.6905V7.50026C5.99944 7.34289 5.92555 7.19446 5.79988 7.0998L2.00042 4.25014L2.00024 1.9986Z" fill="#50555C" stroke="#50555C" stroke-width="0.5"/>
</svg>
