<svg width="700" height="297" viewBox="0 0 700 297" fill="none" xmlns="http://www.w3.org/2000/svg">
<g clip-path="url(#clip0_5653_482814)">
<path d="M377.286 37.6062C386.381 51.949 391.979 65.942 390.054 78.8856C386.381 104.073 354.547 121.214 348.075 136.607C324.987 112.993 310.819 96.9015 308.545 81.8591C305.047 54.048 344.927 31.3093 348.075 0C355.247 9.09545 357.346 24.8376 357.346 33.933C360.844 29.3853 362.943 23.6132 362.943 17.8411C369.765 25.887 371.864 39.8801 371.864 50.3748C375.187 47.0515 377.111 42.5037 377.286 37.6062Z" fill="#FF0000"/>
<path d="M201.848 181.908H266.741V152.348H162.843V293.677H266.741V264.467H201.848V237.88H258.695V208.495H201.848V181.908Z" fill="#070731"/>
<path d="M429.41 152.348V181.908H466.492V293.677H505.497V181.908H542.229V152.348H429.41Z" fill="#070731"/>
<path d="M668.341 243.827C678.311 239.279 686.357 231.583 691.254 221.788C696.152 211.993 697.551 200.798 695.277 190.129C693.003 179.459 687.056 169.839 678.486 163.017C669.915 156.196 659.42 152.348 648.401 152.348C621.289 152.348 594.178 152.348 567.066 152.348C567.066 200.274 567.066 248.375 567.066 296.301C580.185 296.301 593.128 296.301 606.247 296.301C606.247 280.209 606.247 264.117 606.247 248.025C612.544 248.025 618.841 248.025 625.137 248.025C634.932 264.117 644.553 280.209 654.348 296.301C669.565 296.301 684.783 296.301 700 296.301C689.505 278.809 679.01 261.318 668.341 243.827ZM651.899 213.217C648.401 216.715 643.853 218.639 638.955 218.639C628.111 218.639 617.266 218.639 606.247 218.639C606.247 206.396 606.247 194.152 606.247 181.908C617.091 181.908 627.936 181.908 638.955 181.908C643.853 181.908 648.576 183.832 651.899 187.33C655.397 190.828 657.321 195.376 657.321 200.274C657.321 205.171 655.397 209.719 651.899 213.217Z" fill="#070731"/>
<path d="M367.666 181.908H395.827L413.668 152.348H282.483L300.324 181.908H328.485V293.677H367.666V181.908Z" fill="#070731"/>
<path d="M129.785 285.631C114.218 292.278 97.2514 296.301 80.11 296.301C68.2159 296.301 56.3218 294.377 45.4773 290.004C38.8306 287.205 32.5337 283.357 27.1114 278.81C21.5142 274.087 16.7916 268.665 12.7686 262.718C8.74563 256.771 5.59719 250.124 3.32333 243.302C1.04946 236.481 0 229.134 0 221.963C0 207.445 4.3728 193.102 12.4188 181.033C20.4648 168.965 32.009 159.519 45.4773 153.922C52.2989 151.123 59.1204 149.374 66.4668 148.5C70.1399 147.975 73.6382 147.8 77.3113 147.625C80.9845 147.45 84.4828 147.625 88.1559 147.8C102.674 148.85 116.842 152.523 130.135 158.295C124.013 168.44 117.891 178.585 111.769 188.555C101.974 183.482 91.3043 180.684 80.2848 180.684C68.3908 180.684 57.1964 185.756 49.3253 194.677C41.4543 203.597 37.956 215.491 39.3553 227.21C40.9295 238.93 47.4013 249.424 57.1964 256.071C66.9915 262.718 79.2354 264.642 90.7796 261.668C90.7796 247.325 90.7796 232.982 90.7796 218.64C103.898 218.64 116.842 218.64 129.96 218.64C129.785 241.028 129.785 263.242 129.785 285.631Z" fill="#070731"/>
</g>
<defs>
<clipPath id="clip0_5653_482814">
<rect width="700" height="297" fill="white"/>
</clipPath>
</defs>
</svg>
