<svg width="24" height="24" viewBox="0 0 24 24" fill="none" xmlns="http://www.w3.org/2000/svg">
<path fill-rule="evenodd" clip-rule="evenodd" d="M5.29289 11.2929C5.68342 10.9024 6.31658 10.9024 6.70711 11.2929L10.7071 15.2929C11.0976 15.6834 11.0976 16.3166 10.7071 16.7071C10.3166 17.0976 9.68342 17.0976 9.29289 16.7071L5.29289 12.7071C4.90237 12.3166 4.90237 11.6834 5.29289 11.2929Z" fill="#979797"/>
<path fill-rule="evenodd" clip-rule="evenodd" d="M18.7071 7.29289C19.0976 7.68342 19.0976 8.31658 18.7071 8.70711L10.7071 16.7071C10.3166 17.0976 9.68342 17.0976 9.29289 16.7071C8.90237 16.3166 8.90237 15.6834 9.29289 15.2929L17.2929 7.29289C17.6834 6.90237 18.3166 6.90237 18.7071 7.29289Z" fill="#979797"/>
</svg>
