<svg width="13" height="23" viewBox="0 0 13 23" fill="none" xmlns="http://www.w3.org/2000/svg">
<path d="M4.27462 8.58401C3.92126 8.76517 2.11974 9.7068 0.459433 11.0833C0.176795 11.337 0.00012207 11.6991 0.00012207 12.0975V13.9811H5.61686L6.18213 11.3732C5.08734 9.74328 6.28833 9.67078 6.50025 9.67078C6.71217 9.67078 7.91315 9.74329 6.78289 11.3732L7.34816 13.9811H12.9649V12.0975C12.9649 11.6991 12.7882 11.3368 12.5056 11.0833C10.8453 9.70687 9.07898 8.76518 8.6904 8.58401C8.65516 8.54788 8.61967 8.5115 8.61967 8.47537V7.35258C8.79635 6.99027 8.86707 6.62822 8.93755 6.3023C9.07875 6.41094 9.32615 6.33843 9.6088 5.36062C9.82072 4.56375 9.67952 4.31033 9.50284 4.23783H9.46761C9.50284 4.12918 9.50284 4.05667 9.50284 4.05667C10.2093 0.977748 8.54898 1.12283 8.54898 1.12283C8.40779 0.507101 7.55986 -0.108625 6.7827 0.0361301C6.00553 0.217287 4.34515 0 4.34515 0C4.30992 0.362314 4.62779 0.615726 4.62779 0.615726C2.93222 1.66601 3.63867 4.09308 3.63867 4.09308C3.39127 4.05695 3.0734 4.20172 3.35603 5.25228C3.56795 6.01306 3.74463 6.19397 3.88582 6.23032C3.95654 6.66489 4.09774 7.13584 4.34513 7.57043V8.54847C4.34538 8.51158 4.3101 8.54788 4.27462 8.58401Z" fill="#898A8D"/>
<path d="M10.8099 19.3057C11.1984 18.7261 11.4458 18.0743 11.587 17.386H12.4347C12.7526 17.386 13 17.1323 13 16.8064V15.9009C13 15.575 12.7526 15.3213 12.4347 15.3213H8.97287V16.3716C8.97287 17.7842 7.87783 18.907 6.50013 18.907C5.12242 18.907 4.02739 17.748 4.02739 16.3716V15.3213H0.565269C0.2474 15.3213 0 15.575 0 15.9009V16.8064C0 17.1323 0.247393 17.386 0.565269 17.386H1.41315C1.55458 18.0743 1.80172 18.7261 2.19032 19.3057L1.58981 19.9215C1.37789 20.1387 1.37789 20.501 1.58981 20.7183L2.22555 21.3702C2.43745 21.5875 2.7908 21.5875 3.00272 21.3702L3.60322 20.7544C4.1685 21.1529 4.80424 21.4065 5.47549 21.5513V22.4207C5.47549 22.7466 5.72288 23.0003 6.04076 23.0003H6.9239C7.24177 23.0003 7.48917 22.7466 7.48917 22.4207V21.5513C8.16042 21.4063 8.79617 21.1529 9.36144 20.7544L9.96195 21.3702C10.1738 21.5875 10.5272 21.5875 10.7391 21.3702L11.4104 20.7183C11.6223 20.501 11.6223 20.1387 11.4104 19.9215L10.8099 19.3057Z" fill="#49494A"/>
</svg>
