<svg width="9" height="10" viewBox="0 0 9 10" fill="none" xmlns="http://www.w3.org/2000/svg">
<path d="M0 0H4.691C4.78383 5.21835e-05 4.87481 0.0273069 4.95376 0.0787118C5.03271 0.130117 5.09651 0.203642 5.138 0.291053L5.5 1.05263H8.5C8.63261 1.05263 8.75979 1.10808 8.85355 1.20679C8.94732 1.30549 9 1.43936 9 1.57895V7.36842C9 7.50801 8.94732 7.64188 8.85355 7.74058C8.75979 7.83929 8.63261 7.89474 8.5 7.89474H5.309C5.21617 7.89469 5.12519 7.86743 5.04624 7.81603C4.96729 7.76462 4.9035 7.6911 4.862 7.60368L4.5 6.84211H1V9.5C1 9.77614 0.776142 10 0.5 10C0.223858 10 0 9.77614 0 9.5V0Z" fill="#FC223B"/>
</svg>
