<svg width="14" height="15" viewBox="0 0 14 15" fill="none" xmlns="http://www.w3.org/2000/svg">
<path d="M13.9999 7.69154V6.19338C13.9999 6.03736 13.8212 5.94372 13.702 6.03736C12.2424 7.25461 9.62128 7.87881 6.99995 7.87881C4.40849 7.87881 1.78716 7.25461 0.297903 6.03736C0.178721 5.94372 0 6.03736 0 6.19338V7.69154V7.81642C0 9.56423 3.12762 11 7 11C10.8724 11 14 9.56423 14 7.78512V7.69159L13.9999 7.69154Z" fill="#FC223B"/>
<path d="M13.9999 11.6915V10.1934C13.9999 10.0374 13.8212 9.94372 13.702 10.0374C12.2424 11.2546 9.62128 11.8788 6.99995 11.8788C4.40849 11.8788 1.78716 11.2546 0.297903 10.0374C0.178721 9.94372 0 10.0374 0 10.1934V11.6915V11.8164C0 13.5642 3.12762 15 7 15C10.8724 15 14 13.5642 14 11.7851V11.6915L13.9999 11.6915Z" fill="#FC223B"/>
<path d="M14 3.5C14 5.43297 10.866 7 7 7C3.134 7 0 5.43302 0 3.5C0 1.56698 3.134 0 7 0C10.866 0 14 1.56698 14 3.5" fill="#FB8D9A"/>
</svg>
