<svg width="14" height="14" viewBox="0 0 14 14" fill="none" xmlns="http://www.w3.org/2000/svg">
<path d="M7.00001 14C10.866 14 14 10.866 14 7.00001C14 3.13401 10.866 0 7.00001 0C3.13401 0 0 3.13401 0 7.00001C0 10.866 3.13401 14 7.00001 14Z" fill="#FC223B"/>
<path d="M7 2C9.76615 2 12 4.23385 12 7C12 9.76615 9.76615 12 7 12C6.34317 12.0008 5.69262 11.872 5.08563 11.621C4.47863 11.3701 3.92712 11.0018 3.46266 10.5373C2.99821 10.0729 2.62994 9.52137 2.37896 8.91437C2.12797 8.30738 1.99919 7.65683 2 7C2 4.23385 4.23385 2 7 2ZM4.26923 6.61538C4.16859 6.62412 4.07498 6.67061 4.0072 6.74552C3.93942 6.82043 3.9025 6.91821 3.90385 7.01923C3.91258 7.11987 3.95907 7.21349 4.03399 7.28126C4.1089 7.34904 4.20668 7.38596 4.3077 7.38461H9.69231C9.79404 7.38214 9.89101 7.34099 9.96347 7.26953C10.0359 7.19808 10.0784 7.10169 10.0823 7C10.0784 6.89831 10.0359 6.80192 9.96347 6.73046C9.89101 6.65901 9.79404 6.61785 9.69231 6.61538H4.3077C4.29488 6.61474 4.28205 6.61474 4.26923 6.61538Z" fill="white"/>
<path d="M4 7L10 7" stroke="#FC223B" stroke-width="1.5" stroke-linecap="round"/>
</svg>
