<svg width="18" height="23" viewBox="0 0 18 23" fill="none" xmlns="http://www.w3.org/2000/svg">
<path d="M8.53017 3.2077C8.92529 3.2077 9.22752 2.90548 9.22752 2.51035V0.697349C9.22752 0.302229 8.92531 0 8.53017 0C8.13504 0 7.83282 0.302216 7.83282 0.697349V2.51035C7.83282 2.88228 8.13504 3.2077 8.53017 3.2077Z" fill="#FC223B"/>
<path d="M5.09023 3.32379C5.20648 3.60267 5.46216 3.76546 5.74105 3.76546C5.83395 3.76546 5.92702 3.74228 5.99674 3.71893C6.34532 3.57949 6.5313 3.16104 6.36867 2.81243L5.67132 1.13889C5.53189 0.790304 5.11343 0.60433 4.76482 0.766957C4.41623 0.906393 4.23026 1.32484 4.39289 1.67346L5.09023 3.32379Z" fill="#FC223B"/>
<path d="M11.0638 3.69577C11.1567 3.7423 11.2497 3.7423 11.3194 3.7423C11.5983 3.7423 11.854 3.57952 11.9703 3.30063L12.6676 1.6271C12.8071 1.27851 12.6444 0.860058 12.2957 0.720596C11.9471 0.58116 11.5286 0.743781 11.3892 1.09253L10.6918 2.76607C10.5292 3.16119 10.6918 3.55631 11.0638 3.69573L11.0638 3.69577Z" fill="#FC223B"/>
<path d="M16.3633 7.71692H13.7369V6.43848H13.8764C14.2715 6.43848 14.5737 6.13626 14.5737 5.74113C14.5737 5.34601 14.2715 5.04378 13.8764 5.04378H3.18431C2.78919 5.04378 2.48696 5.34599 2.48696 5.74113C2.48696 6.13625 2.78918 6.43848 3.18431 6.43848H3.32375V7.71692H0.69735C0.302229 7.71692 0 8.01913 0 8.41426V9.13477C0 11.4823 1.58048 13.5278 3.83511 14.1554L5.11355 14.504C5.16008 14.5737 5.2298 14.6434 5.27633 14.6899C5.88063 15.2942 6.6013 15.6893 7.41474 15.8753V17.27C7.41474 17.7814 6.99644 18.1997 6.48508 18.1997C6.29911 18.1997 6.1365 18.3625 6.1365 18.5483V19.0828C6.1365 19.2688 5.97371 19.4314 5.78791 19.4314H5.32308C5.13711 19.4314 4.97449 19.5942 4.97449 19.78L4.97417 21.7328C4.97417 21.9187 5.13695 22.0814 5.32275 22.0814H11.7147C11.9007 22.0814 12.0633 21.9186 12.0633 21.7328V19.757C12.0633 19.571 11.9005 19.4084 11.7147 19.4084H11.2499C11.0639 19.4084 10.9013 19.2456 10.9013 19.0598V18.5252C10.9013 18.3393 10.7385 18.1767 10.5527 18.1767C10.0414 18.1767 9.62308 17.7584 9.62308 17.247V15.8523C10.4367 15.6663 11.1572 15.2712 11.7615 14.6669C11.8312 14.5972 11.8777 14.5507 11.9243 14.4809L13.2027 14.1324C15.4573 13.5281 17.0378 11.4594 17.0378 9.11174V8.39123C17.0608 8.04232 16.7354 7.71692 16.3635 7.71692H16.3633ZM1.39446 9.13461V9.11142H3.32368C3.37021 9.92503 3.50965 11.3893 4.06755 12.7608C2.51023 12.2726 1.39446 10.8082 1.39446 9.13463V9.13461ZM9.78539 20.0359V20.7797C9.78539 20.896 9.69249 20.9657 9.59943 20.9657H7.48422C7.36797 20.9657 7.29825 20.8728 7.29825 20.7797V20.0359C7.29825 19.9196 7.39115 19.8267 7.48422 19.8267H9.59943C9.69249 19.8267 9.78539 19.9198 9.78539 20.0359ZM11.0406 10.1108L10.227 10.8779C10.1573 10.9476 10.1108 11.0638 10.1341 11.1568L10.3433 12.2492C10.413 12.6443 9.99469 12.9232 9.64593 12.7374L8.66969 12.2028C8.57679 12.1563 8.46054 12.1563 8.36748 12.2028L7.39125 12.7374C7.04266 12.9234 6.62421 12.6211 6.6939 12.2492L6.90305 11.1568C6.92624 11.0638 6.87987 10.9476 6.81015 10.8779L6.01991 10.1108C5.74104 9.83197 5.88047 9.36696 6.2756 9.29723L7.36805 9.15779C7.46095 9.13461 7.55401 9.08808 7.60055 8.97182L8.08875 7.97243C8.25153 7.62385 8.76273 7.62385 8.92552 7.97243L9.41371 8.97182C9.46025 9.06473 9.55315 9.13461 9.64622 9.15779L10.7387 9.29723C11.1568 9.36695 11.3194 9.85512 11.0406 10.1108H11.0406ZM15.6661 9.13448C15.6661 10.808 14.5737 12.2491 12.9932 12.7604C13.5511 11.3891 13.6905 9.92472 13.7371 9.11112H15.6663L15.6661 9.13448Z" fill="#FC223B"/>
</svg>
