<svg width="17" height="19" viewBox="0 0 17 19" fill="none" xmlns="http://www.w3.org/2000/svg">
<path fill-rule="evenodd" clip-rule="evenodd" d="M8.37899 3.62601C8.53653 3.62601 8.68771 3.56341 8.7991 3.45189C8.9105 3.3405 8.97309 3.18945 8.97309 3.03191V2.18821H9.5672C9.77951 2.18821 9.97564 2.07496 10.0817 1.89116C10.1878 1.70736 10.1878 1.48085 10.0817 1.29705C9.97564 1.11325 9.7795 1 9.5672 1H7.19078C6.97846 1 6.78234 1.11325 6.67625 1.29705C6.57016 1.48086 6.57016 1.70736 6.67625 1.89116C6.78234 2.07496 6.97847 2.18821 7.19078 2.18821H7.78488V3.03191C7.78488 3.18945 7.84748 3.3405 7.95887 3.45189C8.07026 3.56342 8.22144 3.62601 8.37899 3.62601ZM3.16135 16.3173C1.77767 14.9336 1.00017 13.0567 1.00017 11.0997L1 11.0999C1.0016 9.14336 1.7795 7.26742 3.16305 5.884C4.54647 4.50045 6.42252 3.72254 8.37895 3.72095C10.3359 3.72095 12.2127 4.49844 13.5966 5.88213C14.9802 7.26589 15.7577 9.14282 15.7577 11.0997C15.7577 13.0566 14.9802 14.9335 13.5966 16.3173C12.2128 17.701 10.3359 18.4785 8.37895 18.4785C6.42204 18.4785 4.54518 17.701 3.16135 16.3173ZM12.7563 6.72237C11.5953 5.56148 10.0208 4.90916 8.37895 4.90916L8.37899 4.90912C6.73766 4.91072 5.16396 5.56345 4.00332 6.72406C2.84268 7.88467 2.18997 9.45837 2.18838 11.0997C2.18838 12.7416 2.84071 14.3161 4.00159 15.4771C5.16257 16.638 6.73712 17.2903 8.37895 17.2903C10.0208 17.2903 11.5953 16.638 12.7563 15.4771C13.9172 14.3161 14.5695 12.7416 14.5695 11.0997C14.5695 9.4579 13.9172 7.88338 12.7563 6.72237ZM16.2475 7.38251C16.1392 7.48011 15.9986 7.53435 15.8527 7.53501C15.6668 7.54111 15.4887 7.45982 15.3716 7.31514H15.3715L13.9873 5.3843C13.8734 5.21218 13.8571 4.99323 13.944 4.80598C14.0312 4.61873 14.2092 4.49022 14.4143 4.46635C14.6193 4.44262 14.8221 4.52696 14.9498 4.68927L16.334 6.59639C16.4186 6.71506 16.4565 6.86093 16.4406 7.00588C16.4247 7.15083 16.3559 7.2849 16.2475 7.38251ZM6.22574 14.1916C6.10916 14.2728 5.96234 14.3172 5.81089 14.3169L5.81088 14.317C5.63194 14.3172 5.46068 14.2552 5.33801 14.1458C5.21521 14.0362 5.15185 13.8888 5.16285 13.7386C5.17384 13.5884 5.25831 13.4488 5.39616 13.3527L8.02715 11.5169V7.37094C8.02715 7.17626 8.15068 6.99642 8.35116 6.89913C8.55164 6.80185 8.79869 6.80185 8.99918 6.89913C9.19966 6.99642 9.32318 7.17626 9.32318 7.37094V12.0125L6.22574 14.1916Z" fill="#FC223B"/>
<path d="M8.7991 3.45189L8.62233 3.27511L8.62222 3.27522L8.7991 3.45189ZM8.97309 2.18821V1.93821H8.72309V2.18821H8.97309ZM10.0817 1.89116L9.86521 1.76618L9.8652 1.76618L10.0817 1.89116ZM10.0817 1.29705L9.86521 1.42203L9.86521 1.42203L10.0817 1.29705ZM6.67625 1.29705L6.45973 1.17208V1.17208L6.67625 1.29705ZM6.67625 1.89116L6.45973 2.01613L6.45973 2.01613L6.67625 1.89116ZM7.78488 2.18821H8.03488V1.93821H7.78488V2.18821ZM7.95887 3.45189L8.13575 3.27522L8.13565 3.27511L7.95887 3.45189ZM1.00017 11.0997H1.25017V10.4962L0.823393 10.923L1.00017 11.0997ZM3.16135 16.3173L2.98457 16.4941L2.98459 16.4941L3.16135 16.3173ZM1 11.0999L0.75 11.0997L0.749507 11.7039L1.17678 11.2767L1 11.0999ZM3.16305 5.884L3.33982 6.06078L3.33984 6.06077L3.16305 5.884ZM8.37895 3.72095V3.47095H8.37875L8.37895 3.72095ZM13.5966 5.88213L13.7733 5.70536L13.7733 5.70535L13.5966 5.88213ZM13.5966 16.3173L13.7733 16.4941L13.7733 16.4941L13.5966 16.3173ZM8.37895 4.90916L8.20405 4.73053L7.7663 5.15916H8.37895V4.90916ZM12.7563 6.72237L12.9331 6.5456L12.9331 6.54558L12.7563 6.72237ZM8.37899 4.90912L8.55389 5.08775L8.99225 4.65853L8.37875 4.65912L8.37899 4.90912ZM4.00332 6.72406L3.82655 6.54728L4.00332 6.72406ZM2.18838 11.0997L1.93838 11.0995V11.0997H2.18838ZM4.00159 15.4771L3.8248 15.6539L3.82482 15.6539L4.00159 15.4771ZM12.7563 15.4771L12.9331 15.6539L12.9331 15.6539L12.7563 15.4771ZM15.8527 7.53501L15.8516 7.28491L15.8445 7.28515L15.8527 7.53501ZM15.3716 7.31514L15.5659 7.15786L15.4909 7.06514H15.3716V7.31514ZM15.3715 7.31514L15.1683 7.4608L15.2431 7.56514H15.3715V7.31514ZM13.9873 5.3843L13.7787 5.52237L13.7841 5.52996L13.9873 5.3843ZM13.944 4.80598L13.7174 4.70049L13.7173 4.70064L13.944 4.80598ZM14.4143 4.46635L14.3856 4.21801L14.3854 4.21803L14.4143 4.46635ZM14.9498 4.68927L15.1523 4.54232L15.1463 4.53469L14.9498 4.68927ZM16.334 6.59639L16.5376 6.45125L16.5363 6.44954L16.334 6.59639ZM16.4406 7.00588L16.1921 6.97859L16.1921 6.9786L16.4406 7.00588ZM5.81089 14.3169L5.81129 14.0669L5.60963 14.0666L5.56664 14.2636L5.81089 14.3169ZM6.22574 14.1916L6.36866 14.3967L6.36958 14.396L6.22574 14.1916ZM5.81088 14.317L5.81122 14.567L6.01228 14.5667L6.05514 14.3703L5.81088 14.317ZM5.33801 14.1458L5.50445 13.9592L5.50445 13.9592L5.33801 14.1458ZM5.16285 13.7386L5.41218 13.7569L5.41218 13.7569L5.16285 13.7386ZM5.39616 13.3527L5.5391 13.5578L5.53922 13.5577L5.39616 13.3527ZM8.02715 11.5169L8.17021 11.7219L8.27715 11.6473V11.5169H8.02715ZM8.99918 6.89913L9.10832 6.67421H9.10832L8.99918 6.89913ZM9.32318 12.0125L9.46703 12.2169L9.57318 12.1422V12.0125H9.32318ZM8.62222 3.27522C8.55777 3.33975 8.47024 3.37601 8.37899 3.37601V3.87601C8.60282 3.87601 8.81765 3.78708 8.97599 3.62856L8.62222 3.27522ZM8.72309 3.03191C8.72309 3.12311 8.68686 3.21058 8.62233 3.27511L8.97588 3.62867C9.13414 3.47041 9.22309 3.25578 9.22309 3.03191H8.72309ZM8.72309 2.18821V3.03191H9.22309V2.18821H8.72309ZM9.5672 1.93821H8.97309V2.43821H9.5672V1.93821ZM9.8652 1.76618C9.80378 1.8726 9.6902 1.93821 9.5672 1.93821V2.43821C9.86882 2.43821 10.1475 2.27732 10.2982 2.01613L9.8652 1.76618ZM9.86521 1.42203C9.92666 1.52849 9.92666 1.65972 9.86521 1.76618L10.2982 2.01613C10.449 1.75499 10.449 1.43321 10.2982 1.17208L9.86521 1.42203ZM9.5672 1.25C9.6902 1.25 9.80378 1.31561 9.86521 1.42203L10.2982 1.17208C10.1475 0.910897 9.86881 0.75 9.5672 0.75V1.25ZM7.19078 1.25H9.5672V0.75H7.19078V1.25ZM6.89277 1.42203C6.95419 1.31561 7.06777 1.25 7.19078 1.25V0.75C6.88916 0.75 6.61048 0.910893 6.45973 1.17208L6.89277 1.42203ZM6.89277 1.76618C6.83132 1.65972 6.83132 1.52849 6.89277 1.42203L6.45973 1.17208C6.309 1.43322 6.309 1.755 6.45973 2.01613L6.89277 1.76618ZM7.19078 1.93821C7.06778 1.93821 6.95419 1.8726 6.89277 1.76618L6.45973 2.01613C6.61048 2.27731 6.88916 2.43821 7.19078 2.43821V1.93821ZM7.78488 1.93821H7.19078V2.43821H7.78488V1.93821ZM8.03488 3.03191V2.18821H7.53488V3.03191H8.03488ZM8.13565 3.27511C8.07112 3.21058 8.03488 3.12312 8.03488 3.03191H7.53488C7.53488 3.25578 7.62384 3.47041 7.78209 3.62867L8.13565 3.27511ZM8.37899 3.37601C8.28773 3.37601 8.2002 3.33975 8.13575 3.27522L7.78198 3.62856C7.94032 3.78709 8.15516 3.87601 8.37899 3.87601V3.37601ZM0.75017 11.0997C0.75017 13.123 1.55401 15.0635 2.98457 16.4941L3.33814 16.1406C2.00132 14.8037 1.25017 12.9904 1.25017 11.0997H0.75017ZM1.17678 11.2767L1.17695 11.2765L0.823393 10.923L0.823223 10.9231L1.17678 11.2767ZM2.98628 5.70721C1.55589 7.13747 0.75165 9.07693 0.75 11.0997L1.25 11.1001C1.25154 9.2098 2.00311 7.39736 3.33982 6.06078L2.98628 5.70721ZM8.37875 3.47095C6.35608 3.47259 4.41652 4.27683 2.98627 5.70723L3.33984 6.06077C4.67641 4.72406 6.48895 3.97248 8.37916 3.97095L8.37875 3.47095ZM13.7733 5.70535C12.3426 4.27479 10.4022 3.47095 8.37895 3.47095V3.97095C10.2696 3.97095 12.0828 4.7221 13.4198 6.05892L13.7733 5.70535ZM16.0077 11.0997C16.0077 9.07651 15.2039 7.13599 13.7733 5.70536L13.4198 6.0589C14.7566 7.39578 15.5077 9.20913 15.5077 11.0997H16.0077ZM13.7733 16.4941C15.2039 15.0634 16.0077 13.123 16.0077 11.0997H15.5077C15.5077 12.9903 14.7566 14.8036 13.4198 16.1406L13.7733 16.4941ZM8.37895 18.7285C10.4022 18.7285 12.3427 17.9247 13.7733 16.4941L13.4198 16.1406C12.0829 17.4774 10.2696 18.2285 8.37895 18.2285V18.7285ZM2.98459 16.4941C4.41528 17.9247 6.35573 18.7285 8.37895 18.7285V18.2285C6.48835 18.2285 4.67507 17.4774 3.33812 16.1405L2.98459 16.4941ZM8.37895 5.15916C9.95451 5.15916 11.4654 5.78514 12.5796 6.89915L12.9331 6.54558C11.7252 5.33783 10.0871 4.65916 8.37895 4.65916V5.15916ZM8.20408 4.7305L8.20405 4.73053L8.55386 5.08778L8.55389 5.08775L8.20408 4.7305ZM4.18009 6.90084C5.29391 5.78706 6.80413 5.16065 8.37923 5.15912L8.37875 4.65912C6.6712 4.66078 5.03401 5.33985 3.82655 6.54728L4.18009 6.90084ZM2.43838 11.1C2.43991 9.52483 3.06628 8.01462 4.18009 6.90084L3.82655 6.54728C2.61907 7.75472 1.94004 9.39191 1.93838 11.0995L2.43838 11.1ZM4.17838 15.3003C3.06436 14.1862 2.43838 12.6752 2.43838 11.0997H1.93838C1.93838 12.8079 2.61706 14.446 3.8248 15.6539L4.17838 15.3003ZM8.37895 17.0403C6.80344 17.0403 5.29247 16.4143 4.17836 15.3003L3.82482 15.6539C5.03267 16.8616 6.6708 17.5403 8.37895 17.5403V17.0403ZM12.5796 15.3003C11.4654 16.4143 9.95447 17.0403 8.37895 17.0403V17.5403C10.0871 17.5403 11.7252 16.8616 12.9331 15.6539L12.5796 15.3003ZM14.3195 11.0997C14.3195 12.6753 13.6936 14.1862 12.5795 15.3003L12.9331 15.6539C14.1409 14.446 14.8195 12.8079 14.8195 11.0997H14.3195ZM12.5795 6.89913C13.6936 8.01328 14.3195 9.52422 14.3195 11.0997H14.8195C14.8195 9.39158 14.1409 7.75349 12.9331 6.5456L12.5795 6.89913ZM15.8539 7.78501C16.061 7.78407 16.2608 7.70705 16.4148 7.56825L16.0802 7.19676C16.0176 7.25317 15.9362 7.28463 15.8516 7.28501L15.8539 7.78501ZM15.1773 7.47242C15.3437 7.67806 15.5968 7.79354 15.8609 7.78488L15.8445 7.28515C15.7368 7.28868 15.6337 7.24158 15.5659 7.15786L15.1773 7.47242ZM15.3715 7.56514H15.3716V7.06514H15.3715V7.56514ZM13.7841 5.52996L15.1683 7.4608L15.5747 7.16948L14.1905 5.23864L13.7841 5.52996ZM13.7173 4.70064C13.5938 4.96655 13.6169 5.27762 13.7788 5.52227L14.1958 5.24632C14.1298 5.14673 14.1203 5.0199 14.1708 4.91131L13.7173 4.70064ZM14.3854 4.21803C14.094 4.25193 13.8412 4.43449 13.7174 4.70049L14.1707 4.91146C14.2212 4.80296 14.3243 4.72851 14.4432 4.71468L14.3854 4.21803ZM15.1463 4.53469C14.9648 4.30411 14.6768 4.18429 14.3856 4.21801L14.4431 4.71469C14.5618 4.70094 14.6793 4.74981 14.7533 4.84386L15.1463 4.53469ZM16.5363 6.44954L15.1521 4.54243L14.7475 4.83612L16.1317 6.74324L16.5363 6.44954ZM16.6891 7.03316C16.7117 6.82731 16.6579 6.62004 16.5375 6.45126L16.1304 6.74151C16.1793 6.81007 16.2013 6.89455 16.1921 6.97859L16.6891 7.03316ZM16.4148 7.56825C16.5687 7.42969 16.6665 7.23926 16.6891 7.03316L16.1921 6.9786C16.1829 7.0624 16.1431 7.14012 16.0802 7.19676L16.4148 7.56825ZM5.81049 14.5669C6.00964 14.5673 6.20722 14.5092 6.36865 14.3967L6.08282 13.9864C6.01109 14.0364 5.91503 14.0671 5.81129 14.0669L5.81049 14.5669ZM6.05514 14.3703L6.05515 14.3702L5.56664 14.2636L5.56663 14.2637L6.05514 14.3703ZM5.17158 14.3323C5.34434 14.4865 5.57666 14.5673 5.81122 14.567L5.81054 14.067C5.68721 14.0672 5.57701 14.024 5.50445 13.9592L5.17158 14.3323ZM4.91351 13.7204C4.89628 13.9558 4.99696 14.1765 5.17158 14.3323L5.50445 13.9592C5.43346 13.8959 5.40743 13.8218 5.41218 13.7569L4.91351 13.7204ZM5.25323 13.1476C5.06174 13.281 4.93069 13.4856 4.91351 13.7204L5.41218 13.7569C5.41699 13.6911 5.45489 13.6165 5.5391 13.5578L5.25323 13.1476ZM7.88409 11.3118L5.2531 13.1477L5.53922 13.5577L8.17021 11.7219L7.88409 11.3118ZM7.77715 7.37094V11.5169H8.27715V7.37094H7.77715ZM8.24202 6.67422C7.97085 6.8058 7.77715 7.06444 7.77715 7.37094H8.27715C8.27715 7.28809 8.33051 7.18703 8.4603 7.12405L8.24202 6.67422ZM9.10832 6.67421C8.83892 6.54349 8.51141 6.54349 8.24202 6.67422L8.4603 7.12405C8.59186 7.06021 8.75847 7.06021 8.89004 7.12405L9.10832 6.67421ZM9.57318 7.37094C9.57318 7.06443 9.37949 6.8058 9.10832 6.67421L8.89004 7.12405C9.01982 7.18703 9.07318 7.28808 9.07318 7.37094H9.57318ZM9.57318 12.0125V7.37094H9.07318V12.0125H9.57318ZM6.36958 14.396L9.46703 12.2169L9.17934 11.808L6.08189 13.9871L6.36958 14.396Z" fill="#FC223B"/>
</svg>
