<svg width="8" height="9" viewBox="0 0 8 9" fill="none" xmlns="http://www.w3.org/2000/svg">
<path fill-rule="evenodd" clip-rule="evenodd" d="M0.333413 0.000113507C0.244946 0.000113507 0.160197 0.0339792 0.0976207 0.0942461C0.0351211 0.154586 7.55454e-07 0.236378 7.55454e-07 0.321615V2.24963C-0.000222466 2.3508 0.0490335 2.44622 0.132889 2.50707L2.6672 4.33899V8.67901C2.66735 8.79029 2.72717 8.89361 2.82539 8.95207C2.9236 9.01054 3.04615 9.01586 3.14943 8.96614L5.14849 8.00156H5.14842C5.20378 7.97494 5.25035 7.93397 5.28294 7.88325C5.31553 7.83252 5.33287 7.77405 5.33294 7.71442V4.33888L7.86592 2.50696C7.95022 2.44633 7.99993 2.35091 8 2.24952V0.321502C8 0.236266 7.96488 0.154473 7.90238 0.0941326C7.83988 0.0338657 7.75506 0 7.66659 0L0.333413 0.000113507ZM0.666826 0.64196H7.33337V2.08947L4.80039 3.92139C4.71609 3.98202 4.66638 4.07744 4.66631 4.17883V7.51635L3.33273 8.1582V4.17874C3.33296 4.07757 3.2837 3.98215 3.19992 3.9213L0.666944 2.08938L0.666826 0.64196Z" fill="white"/>
</svg>
