<svg width="21" height="15" viewBox="0 0 21 15" fill="none" xmlns="http://www.w3.org/2000/svg">
<path d="M15 8.63187V9.32508C14.9997 10.335 14.6044 11.3035 13.9014 12.0178C13.1982 12.7319 12.2447 13.1333 11.2504 13.1337H5.18381V14.2382C5.18448 14.3899 5.14062 14.5383 5.05776 14.6644C4.97491 14.7906 4.85689 14.8889 4.71879 14.9465C4.62823 14.9832 4.53131 15.0014 4.43389 14.9999C4.2347 15.0006 4.0432 14.9212 3.90141 14.779L0.219284 11.0389C0.0788441 10.8966 0 10.7035 0 10.502C0 10.3005 0.0788398 10.1072 0.219284 9.96488L3.90141 6.22478C4.04152 6.08162 4.23184 6.00086 4.43072 6C4.62942 5.99932 4.82041 6.07873 4.96171 6.2207C5.10282 6.36284 5.18283 6.55616 5.18384 6.758V7.87015H14.2501C14.4488 7.87083 14.6393 7.95126 14.7797 8.09391C14.9202 8.23673 14.9993 8.43005 15 8.63186L15 8.63187Z" fill="#FC223B"/>
<path d="M20.7807 5.03472L17.0986 8.77168C16.9575 8.91574 16.7663 8.99762 16.5661 9C16.3682 8.99694 16.1791 8.91574 16.0391 8.77372C15.8992 8.63169 15.8192 8.43972 15.8162 8.23891V7.12769H6.7499C6.55121 7.12701 6.36071 7.04665 6.22029 6.90412C6.07985 6.76142 6.00067 6.56826 6 6.36662V5.674C6.00033 4.66489 6.39555 3.69722 7.09861 2.98355C7.80181 2.27004 8.75528 1.86893 9.74958 1.86858H15.8162V0.76501C15.8152 0.562336 15.8939 0.367651 16.0348 0.224076C16.1758 0.0805227 16.3671 -0.000169346 16.5668 2.66851e-07C16.7665 2.66851e-07 16.9578 0.0808664 17.0986 0.224589L20.7807 3.96155C20.9212 4.10374 21 4.29673 21 4.49805C21 4.69936 20.9212 4.89252 20.7807 5.03472L20.7807 5.03472Z" fill="#FB8D9A"/>
</svg>
