<svg width="23" height="18" viewBox="0 0 23 18" fill="none" xmlns="http://www.w3.org/2000/svg">
<path d="M11.5002 3C10.0115 3 9 4.34283 9 5.99991C9 7.65653 10.0115 9 11.5002 9C12.9882 9 14 7.65635 14 5.99991C14.0003 4.34296 12.9885 3 11.5002 3Z" fill="#49494A"/>
<path d="M11.5 10.0016C11.4917 10.0016 11.4837 10 11.4748 10V10.0029C8.44705 10.029 6 12.3702 6 15.2583C6.04201 16.1071 6.34682 17.0588 6.84242 17.6027C7.31745 18.1525 15.978 18.112 16.1578 17.6027C16.6534 17.059 16.9576 16.1071 17 15.2583C17 12.3703 14.5533 10.0287 11.5252 10.0029V10.0002C11.5172 10.0002 11.5083 10.0016 11.5 10.0016H11.5Z" fill="#49494A"/>
<path d="M17.0002 6C18.7864 6 20 4.65626 20 2.99974C20 1.34323 18.7864 0 17.0002 0C15.2136 0 14 1.34323 14 2.99974C14 4.65626 15.2136 6 17.0002 6Z" fill="#898A8D"/>
<path d="M6.00042 0C4.21386 0 3 1.34323 3 2.99974C3 4.65626 4.21386 6 6.00042 6C7.78614 6 9 4.65626 9 2.99974C9.00017 1.3434 7.78632 0 6.00042 0Z" fill="#898A8D"/>
<path d="M17.8749 7.0022V7C17.8674 7 17.8596 7.00094 17.8511 7.00094C17.8432 7.00094 17.8354 7 17.8276 7V7.0022C17.0706 7.00787 16.3532 7.15979 15.7074 7.4252C15.54 8.49267 14.9091 9.37537 14 9.89581C15.9916 10.5367 17.4988 12.1 17.871 14C20.003 13.9984 22.1264 13.8783 22.2113 13.6524C22.6753 13.1765 22.9602 12.3437 23 11.601C23.0005 9.07393 20.7098 7.02493 17.875 7.00237L17.8749 7.0022Z" fill="#898A8D"/>
<path d="M5.12885 14C5.50153 12.1002 7.00877 10.5366 9 9.89572C8.09136 9.37527 7.46231 8.49259 7.29459 7.42601C6.64798 7.15996 5.93002 7.00789 5.17257 7.0022V7C5.16474 7 5.15673 7.00094 5.1489 7.00094C5.14107 7.00094 5.13324 7 5.12507 7V7.0022C2.29057 7.02472 0 9.07393 0 11.601C0.0398386 12.3437 0.324668 13.1764 0.788787 13.6524C1.00688 13.8884 3.06606 13.9998 5.12864 14H5.12885Z" fill="#898A8D"/>
</svg>
