<?xml version="1.0" standalone="no"?>
<!DOCTYPE svg PUBLIC "-//W3C//DTD SVG 20010904//EN"
 "http://www.w3.org/TR/2001/REC-SVG-20010904/DTD/svg10.dtd">
<svg version="1.0" xmlns="http://www.w3.org/2000/svg"
 width="595.000000pt" height="720.000000pt" viewBox="0 0 595.000000 720.000000"
 preserveAspectRatio="xMidYMid meet">

<g transform="translate(0.000000,720.000000) scale(0.100000,-0.100000)"
fill="#000000" stroke="none">
<path d="M430 3600 l0 -3600 2545 0 2545 0 0 3548 c0 1951 -3 3571 -6 3600
l-7 52 -2538 0 -2539 0 0 -3600z m1759 965 c13 -13 19 -48 31 -170 18 -182 19
-244 26 -1085 l6 -835 -22 -65 c-59 -175 -206 -301 -388 -331 -311 -51 -602
234 -553 542 20 124 135 275 253 332 125 60 223 70 356 36 131 -33 118 -92
125 558 4 307 9 569 11 583 2 14 7 88 10 165 7 144 21 252 36 271 11 13 96 12
109 -1z m1632 -2 c2 -15 6 -32 8 -35 3 -3 8 -30 16 -83 2 -16 7 -84 11 -150 3
-66 7 -136 10 -155 2 -19 6 -287 10 -595 6 -506 5 -566 -10 -625 -60 -231
-305 -391 -538 -352 -213 36 -377 201 -409 410 -20 132 29 263 140 372 128
126 292 168 474 120 121 -32 113 -52 121 287 10 455 28 748 46 771 3 3 7 20 9
35 1 8 19 12 56 12 37 0 55 -4 56 -12z"/>
<path d="M1723 2799 c-55 -10 -91 -30 -129 -71 -70 -74 -87 -152 -55 -255 37
-122 115 -185 231 -185 237 0 334 330 139 472 -23 16 -58 32 -78 36 -20 3 -43
7 -51 9 -8 1 -34 -1 -57 -6z"/>
<path d="M3304 3276 c-112 -49 -171 -170 -145 -298 32 -151 166 -237 308 -197
67 18 144 96 163 164 53 187 -53 346 -231 345 -35 -1 -78 -7 -95 -14z"/>
</g>
</svg>
