<svg xmlns="http://www.w3.org/2000/svg" width="28" height="28" viewBox="0 0 28 28">
  <g id="See_More" data-name="See More" transform="translate(-735 -395)">
    <rect id="Rectangle_751" data-name="Rectangle 751" width="28" height="28" transform="translate(735 395)" fill="none"/>
    <g id="noun_continue_1921224" transform="translate(170.332 223.6)">
      <path id="Path_24" data-name="Path 24" d="M25.668,14.008a11.605,11.605,0,0,1-23.168,1H15.767l-3.512,3.536a1,1,0,0,0,0,1.414,1,1,0,0,0,1.414,0l5.243-5.243a1,1,0,0,0,0-1.414L13.669,8.058a1,1,0,0,0-1.414,1.414l3.536,3.536H2.5a11.605,11.605,0,0,1,23.168,1Z" transform="translate(565 171)" fill="#fff"/>
    </g>
  </g>
</svg>
