<svg xmlns="http://www.w3.org/2000/svg" xmlns:xlink="http://www.w3.org/1999/xlink" width="513.96" height="403.313" viewBox="0 0 513.96 403.313">
  <defs>
    <linearGradient id="linear-gradient" x1="0.348" y1="-0.003" x2="0.536" y2="0.622" gradientUnits="objectBoundingBox">
      <stop offset="0" stop-color="#74e0ea"/>
      <stop offset="1" stop-color="#1ba7fd"/>
    </linearGradient>
  </defs>
  <g id="Hand-Phone-Illustration" transform="translate(-252.4 -219.087)">
    <g id="Layer_3" transform="translate(252.4 320.341)">
      <path id="Path_1" data-name="Path 1" d="M252.4,564.01s13.833-199.139,57.461-230.91c0,0-1.368,98.2,4.408,101.546,0,0,3.04.76,8.057-15.049,0,0,13.985-36.331,28.579-39.828,0,0,10.489-1.216,7.753,8.057s-8.513,13.225-9.729,18.242c0,0-3.5,42.564-5.473,48.8s-.76,10.793-30.251,53.357c0,0-3.8,2.736-3.04,31.011l2.28,24.778Z" transform="translate(-252.4 -262.038)" fill="#ffa677"/>
      <path id="Path_2" data-name="Path 2" d="M374.9,292.353s12.617-9.729,15.809-4.408c0,0,3.344,4.56-7.9,24.17,0,0-5.016,8.969-7.9,12.161V292.353Z" transform="translate(-188.682 -286.353)" fill="#ffa575"/>
      <path id="Path_3" data-name="Path 3" d="M374.9,321.34s25.234-10.033,27.211-1.064c0,0,3.8,6.233-10.945,17.178,0,0-13.073,8.057-16.266,8.665V321.34Z" transform="translate(-188.682 -270.648)" fill="#ffa575"/>
      <path id="Path_4" data-name="Path 4" d="M374.9,345.238s5.32-1.216,8.969,4.408c0,0,17.026,20.522,12.921,27.059,0,0-3.5,4.864-12.161,1.976,0,0,13.529,21.89,4.865,26.6,0,0-6.537,3.952-14.593-5.169Z" transform="translate(-188.682 -255.783)" fill="#ffa575"/>
    </g>
    <g id="Layer_5" transform="translate(305.757 282.193)">
      <g id="Group_2" data-name="Group 2">
        <path id="Path_5" data-name="Path 5" d="M399.826,532.858H309.378A21.02,21.02,0,0,1,288.4,511.88v-230.3A21.02,21.02,0,0,1,309.378,260.6h90.448A21.02,21.02,0,0,1,420.8,281.578V512.032A21.088,21.088,0,0,1,399.826,532.858Z" transform="translate(-287.032 -260.6)" fill="#f9fafb"/>
        <g id="Group_1" data-name="Group 1" transform="translate(6.841 6.081)">
          <path id="Path_6" data-name="Path 6" d="M392.177,525.3H311.762A19.722,19.722,0,0,1,292,505.543V284.362A19.722,19.722,0,0,1,311.762,264.6h80.416a19.722,19.722,0,0,1,19.762,19.762V505.391A19.852,19.852,0,0,1,392.177,525.3Z" transform="translate(-292 -264.6)" fill="#e1eef9"/>
        </g>
        <rect id="Rectangle_2" data-name="Rectangle 2" width="1.368" height="19.458" transform="translate(0.304 79.199)" fill="#f9fafb"/>
        <rect id="Rectangle_3" data-name="Rectangle 3" width="2.584" height="19.914" transform="translate(0.304 54.269)" fill="#f9fafb"/>
        <rect id="Rectangle_4" data-name="Rectangle 4" width="2.28" height="11.097" transform="translate(0 34.507)" fill="#f9fafb"/>
        <rect id="Rectangle_5" data-name="Rectangle 5" width="3.04" height="32.379" transform="translate(131.948 60.958)" fill="#f9fafb"/>
        <path id="Path_7" data-name="Path 7" d="M361.693,275.393h-37.7A14.6,14.6,0,0,1,309.4,260.8h67.038A14.63,14.63,0,0,1,361.693,275.393Z" transform="translate(-276.109 -260.496)" fill="#f9fafb"/>
        <path id="Path_8" data-name="Path 8" d="M340.337,267.928H327.264a1.039,1.039,0,0,1-1.064-1.064h0a1.039,1.039,0,0,1,1.064-1.064h13.073a1.039,1.039,0,0,1,1.064,1.064h0C341.553,267.472,340.945,267.928,340.337,267.928Z" transform="translate(-267.37 -257.895)" fill="#322c4a" opacity="0.14"/>
        <path id="Path_9" data-name="Path 9" d="M342.836,266.975a1.368,1.368,0,1,1-1.368-1.368C342.076,265.455,342.836,266.215,342.836,266.975Z" transform="translate(-260.141 -258.006)" fill="#322c4a" opacity="0.14"/>
        <path id="Path_10" data-name="Path 10" d="M351.376,267.492a2.888,2.888,0,1,1-2.888-2.888A2.712,2.712,0,0,1,351.376,267.492Z" transform="translate(-257.28 -258.523)" fill="#322c4a" opacity="0.14"/>
        <path id="Path_11" data-name="Path 11" d="M324.84,267.02a1.52,1.52,0,1,1-1.52-1.52A1.436,1.436,0,0,1,324.84,267.02Z" transform="translate(-269.659 -258.051)" fill="#322c4a" opacity="0.14"/>
        <path id="Path_12" data-name="Path 12" d="M320.672,267.44a2.736,2.736,0,1,1-2.736-2.736A2.634,2.634,0,0,1,320.672,267.44Z" transform="translate(-273.092 -258.471)" fill="#322c4a" opacity="0.14"/>
        <path id="Path_13" data-name="Path 13" d="M360,431.916H319.108a.654.654,0,0,1-.608-.608h0a.654.654,0,0,1,.608-.608H360a.654.654,0,0,1,.608.608h0A.557.557,0,0,1,360,431.916Z" transform="translate(-271.376 -172.124)" fill="#feffff"/>
      </g>
    </g>
    <g id="Layer_4" transform="translate(352.909 418.596)">
      <path id="Path_14" data-name="Path 14" d="M393.585,553.983s-51.837-51.077-63.39-73.575c0,0-7.3-12.313-11.249-16.266-3.8-3.8,18.7-1.216,28.275,9.577,0,0,22.042,19.154,26.755,22.346,0,0,11.857,12.313,13.985-6.689L377.472,368.526s-1.672-28.731,8.665-13.985c0,0,4.408,11.553,12.465,52.293,0,0,8.969,35.419,9.577,39.068,0,0,12.009-5.929,15.81-2.888,0,0,6.081,6.993,12.769,2.736s12.769,4.712,12.769,4.712a8.45,8.45,0,0,0,9.729,1.064c5.777-2.888,14.441,3.344,16.722,12.009,2.128,8.665,8.665,87.408,8.361,90.6H393.585Z" transform="translate(-318.518 -350.331)" fill="#ffa575"/>
    </g>
    <g id="Layer_8" transform="translate(493.949 328.891)">
      <path id="Path_15" data-name="Path 15" d="M456.6,320.542l-32.835-1.824s-12.313-2.888-12.465,3.648,10.945,12.313,10.945,12.313a53.841,53.841,0,0,0,17.786,4.1s14.745,2.584,16.266,3.8Z" transform="translate(-411.299 -278.4)" fill="#ffa575"/>
      <path id="Path_16" data-name="Path 16" d="M542.933,585.4s-23.866-83-37.548-96.681c0,0-9.273-6.993-5.472-13.681s0-119.027,0-119.027,10.185-1.216,31.011,11.249l.608-17.634s-14.441-25.538-15.049-36.635c0,0-1.976-9.881,7.6-19.458,0,0,1.976-3.5,4.408,0,0,0,15.049,23.258,24.322,43.172A28.513,28.513,0,0,0,559.2,343.7s4.408-.608,8.969,57.157c0,0,3.192,22.346,0,52.6l69.927,131.8H542.933Z" transform="translate(-365.683 -291.978)" fill="#ffa575"/>
    </g>
    <g id="Layer_6" transform="translate(536.971 300.738)">
      <g id="Group_4" data-name="Group 4">
        <path id="Path_17" data-name="Path 17" d="M529.836,491.549H457.174A16.933,16.933,0,0,1,440.3,474.675v-185A16.933,16.933,0,0,1,457.174,272.8h72.663a16.933,16.933,0,0,1,16.874,16.874V474.827A16.9,16.9,0,0,1,529.836,491.549Z" transform="translate(-439.236 -272.8)" fill="#f9fafb"/>
        <g id="Group_3" data-name="Group 3" transform="translate(5.473 4.864)">
          <path id="Path_18" data-name="Path 18" d="M523.768,485.476H459.161A15.96,15.96,0,0,1,443.2,469.514V291.961A15.96,15.96,0,0,1,459.161,276h64.606a15.96,15.96,0,0,1,15.961,15.961v177.7A16.128,16.128,0,0,1,523.768,485.476Z" transform="translate(-443.2 -276)" fill="url(#linear-gradient)"/>
        </g>
        <rect id="Rectangle_6" data-name="Rectangle 6" width="1.064" height="15.657" transform="translate(0.152 63.694)" fill="#f9fafb"/>
        <rect id="Rectangle_7" data-name="Rectangle 7" width="2.128" height="15.961" transform="translate(0.152 43.628)" fill="#f9fafb"/>
        <rect id="Rectangle_8" data-name="Rectangle 8" width="1.824" height="8.817" transform="translate(0 27.819)" fill="#f9fafb"/>
        <rect id="Rectangle_9" data-name="Rectangle 9" width="2.432" height="25.994" transform="translate(105.954 48.949)" fill="#f9fafb"/>
        <path id="Path_19" data-name="Path 19" d="M499.36,284.757h-30.4A11.872,11.872,0,0,1,457.1,272.9h53.965A11.841,11.841,0,0,1,499.36,284.757Z" transform="translate(-430.497 -272.748)" fill="#f9fafb"/>
        <path id="Path_20" data-name="Path 20" d="M482.1,278.724H471.612a.981.981,0,0,1-.912-.912h0a.981.981,0,0,1,.912-.912H482.1a.981.981,0,0,1,.912.912h0A.876.876,0,0,1,482.1,278.724Z" transform="translate(-423.424 -270.667)" fill="#322c4a" opacity="0.14"/>
        <path id="Path_21" data-name="Path 21" d="M484.028,277.864a1.064,1.064,0,1,1-1.064-1.064A1.142,1.142,0,0,1,484.028,277.864Z" transform="translate(-417.598 -270.719)" fill="#322c4a" opacity="0.14"/>
        <path id="Path_22" data-name="Path 22" d="M490.964,278.332a2.432,2.432,0,1,1-2.432-2.432A2.5,2.5,0,0,1,490.964,278.332Z" transform="translate(-415.413 -271.188)" fill="#322c4a" opacity="0.14"/>
        <path id="Path_23" data-name="Path 23" d="M469.632,277.916a1.216,1.216,0,1,1-1.216-1.216A1.308,1.308,0,0,1,469.632,277.916Z" transform="translate(-425.244 -270.771)" fill="#322c4a" opacity="0.14"/>
        <path id="Path_24" data-name="Path 24" d="M466.26,278.28a2.28,2.28,0,1,1-2.28-2.28A2.338,2.338,0,0,1,466.26,278.28Z" transform="translate(-428.105 -271.136)" fill="#322c4a" opacity="0.14"/>
        <path id="Path_25" data-name="Path 25" d="M497.791,410.512H464.956a.4.4,0,0,1-.456-.456h0a.4.4,0,0,1,.456-.456h32.835a.4.4,0,0,1,.456.456h0C498.4,410.208,498.1,410.512,497.791,410.512Z" transform="translate(-426.648 -201.644)" fill="#feffff"/>
      </g>
    </g>
    <g id="Layer_7" transform="translate(515.576 395.677)">
      <path id="Path_26" data-name="Path 26" d="M459.994,371.959s4.865-3.344-1.368-13.985l-12.769-20.826s-13.529-5.929-17.482,3.192c0,0-4.256,5.929-.912,12.617l7.449,6.993s-12.465,5.016-8.665,17.178c0,0,10.793,10.793,12.313,11.705s-9.577,5.473-4.864,16.417c0,0,15.2,14.441,19.154,17.33,0,0,12.161,8.513,15.505,0,0,0,.3-8.209-6.081-16.722l-4.864-6.993s7.449-3.192,3.192-11.249l-8.817-14.441C451.785,373.023,458.474,374.24,459.994,371.959Z" transform="translate(-425.526 -335.254)" fill="#ffa575"/>
    </g>
    <g id="Layer_9" transform="translate(341.632 219.087)">
      <path id="Path_27" data-name="Path 27" d="M380.266,346.728v-11.1h-3.04a8.163,8.163,0,0,1-6.841-8.057,7.7,7.7,0,0,1,1.368-4.56l2.128-2.128h0l-7.753-7.753h0a.149.149,0,0,1-.152.152L364,315.261a8.3,8.3,0,0,1-12.921-5.169V306.9h-11.1v3.04a8.163,8.163,0,0,1-8.057,6.841,7.7,7.7,0,0,1-4.56-1.368l-2.28-2.128h0l-7.753,7.753h0a.149.149,0,0,1,.152.152l1.976,1.976a8.3,8.3,0,0,1-5.168,12.921H311.1v10.945h3.04a8.163,8.163,0,0,1,6.841,8.057,7.7,7.7,0,0,1-1.368,4.56l-2.128,2.128h0l7.753,7.753h0a.149.149,0,0,1,.152-.152l1.976-1.976a8.3,8.3,0,0,1,12.921,5.169v3.192h11.1v-3.04a8.163,8.163,0,0,1,8.057-6.841A7.7,7.7,0,0,1,364,367.25l2.128,2.128h0l7.753-7.753h0a.149.149,0,0,1-.152-.152l-1.976-1.976a8.3,8.3,0,0,1,5.168-12.921l3.344.152Zm-34.355,7.753A13.377,13.377,0,1,1,359.289,341.1a13.4,13.4,0,0,1-13.377,13.377Z" transform="translate(-311.1 -173.412)" fill="#2b9efc"/>
      <g id="Group_9" data-name="Group 9" transform="translate(146.665 6.035)">
        <path id="Path_28" data-name="Path 28" d="M448.04,223.122c-9.577.76-24.778,10.945-33.9,22.65h0c-9.121,11.705-8.665,20.522,1.064,19.61,9.577-.76,24.778-10.945,33.9-22.65C458.073,231.027,457.617,222.21,448.04,223.122Zm-2.128,19.914c-7.449,9.577-19.914,17.938-27.819,18.546h0c-7.9.608-8.209-6.537-.76-16.114h0c7.449-9.577,19.914-17.938,27.819-18.546C452.9,226.162,453.36,233.459,445.911,243.036Z" transform="translate(-407.576 -223.057)" fill="#ffe65a"/>
        <g id="Group_5" data-name="Group 5" transform="translate(0 22.259)">
          <path id="Path_29" data-name="Path 29" d="M414.146,238l3.04-.3c-7.449,9.577-7.145,16.874.76,16.113l-2.888,3.8C405.482,258.526,405.025,249.709,414.146,238Z" transform="translate(-407.581 -237.7)" fill="#f4ef89"/>
        </g>
        <g id="Group_6" data-name="Group 6" transform="translate(4.276 3.677)">
          <path id="Path_30" data-name="Path 30" d="M415.724,244.058c7.449-9.577,19.914-17.938,27.819-18.546s8.209,6.537.76,16.114-19.914,17.938-27.819,18.546C408.731,260.932,408.275,253.635,415.724,244.058Z" transform="translate(-410.394 -225.476)" fill="#f9bf05"/>
        </g>
        <path id="Path_31" data-name="Path 31" d="M416.488,245.732c7.449-9.577,19.914-17.938,27.819-18.546,2.584-.152,4.256.456,5.32,1.672-.456-2.28-2.584-3.648-6.081-3.344-7.9.608-20.37,8.969-27.819,18.546-5.016,6.537-6.537,11.857-4.408,14.441C410.712,255.765,412.384,251.053,416.488,245.732Z" transform="translate(-406.123 -221.801)" fill="#d4a205"/>
        <g id="Group_8" data-name="Group 8" transform="translate(1.092 1.889)">
          <g id="Group_7" data-name="Group 7">
            <path id="Path_32" data-name="Path 32" d="M408.3,249.6l6.385,8.057c1.216,1.52,3.344,2.28,6.385,1.976l-6.385-8.057C411.644,251.728,409.516,250.968,408.3,249.6Z" transform="translate(-408.3 -211.14)" fill="#ffc72e"/>
            <path id="Path_33" data-name="Path 33" d="M451.82,224.3c4.56,5.625-4.865,17.786-10.641,23.714-6.993,6.993-19.306,15.809-28.579,16.722l6.385,8.057c14.441-1.216,38.612-22.346,40.284-35.419h0a6.666,6.666,0,0,0-1.064-4.864Z" transform="translate(-406.063 -224.3)" fill="#ffa50a"/>
          </g>
        </g>
      </g>
      <g id="Group_14" data-name="Group 14" transform="translate(213.686 37.576)">
        <path id="Path_34" data-name="Path 34" d="M475.886,245.013c-8.665,4.408-18.7,19.458-22.65,33.747h0c-3.952,14.289-.152,22.194,8.361,17.786s18.7-19.458,22.65-33.747C488.2,248.661,484.4,240.6,475.886,245.013Zm5.625,19.306c-3.192,11.705-11.553,24.17-18.7,27.819h0c-6.993,3.648-10.185-2.888-6.993-14.593h0c3.192-11.705,11.553-24.17,18.7-27.819S484.7,252.614,481.51,264.319Z" transform="translate(-451.67 -243.806)" fill="#ffe65a"/>
        <g id="Group_10" data-name="Group 10" transform="translate(0.003 33.586)">
          <path id="Path_35" data-name="Path 35" d="M453.235,267.268l2.736-1.368c-3.192,11.705-.152,18.242,6.993,14.593l-1.216,4.56C453.083,289.462,449.282,281.557,453.235,267.268Z" transform="translate(-451.672 -265.9)" fill="#f4ef89"/>
        </g>
        <g id="Group_11" data-name="Group 11" transform="translate(3.037 4.757)">
          <path id="Path_36" data-name="Path 36" d="M454.933,275.765c3.192-11.705,11.553-24.17,18.7-27.819,6.993-3.648,10.185,2.888,6.993,14.593s-11.553,24.17-18.7,27.819S451.74,287.47,454.933,275.765Z" transform="translate(-453.668 -246.935)" fill="#f9bf05"/>
        </g>
        <path id="Path_37" data-name="Path 37" d="M456.3,276.986c3.192-11.705,11.553-24.17,18.7-27.819,2.28-1.216,4.1-1.216,5.473-.456-1.368-1.976-3.648-2.432-6.841-.76-6.993,3.648-15.353,16.114-18.7,27.819-2.128,7.9-1.52,13.529,1.368,15.049C454.63,288.387,454.478,283.522,456.3,276.986Z" transform="translate(-450.632 -242.183)" fill="#d4a205"/>
        <g id="Group_13" data-name="Group 13" transform="translate(3.238 0.599)">
          <g id="Group_12" data-name="Group 12">
            <path id="Path_38" data-name="Path 38" d="M453.8,279.208l8.969,5.016c1.672.912,3.952.76,6.689-.608l-8.969-5.016C457.752,279.968,455.472,280.12,453.8,279.208Z" transform="translate(-453.8 -226.307)" fill="#ffc72e"/>
            <path id="Path_39" data-name="Path 39" d="M479.126,244.2c6.385,3.5,2.28,18.242-.76,25.994-3.8,9.273-11.705,22.042-20.066,26.3l8.969,5.016c12.921-6.689,27.211-35.267,23.714-48.037h0a6.277,6.277,0,0,0-2.888-4.1Z" transform="translate(-451.459 -244.2)" fill="#ffa50a"/>
          </g>
        </g>
      </g>
      <g id="Group_19" data-name="Group 19" transform="translate(0.789 77.912)">
        <path id="Path_40" data-name="Path 40" d="M364.491,271.8c-9.121-3.344-27.059-.76-40.284,5.929h0c-13.225,6.689-16.57,14.9-7.449,18.242,8.969,3.344,27.059.76,40.284-5.929C370.116,283.352,373.46,275.3,364.491,271.8ZM354,288.977c-10.793,5.473-25.69,7.753-32.987,4.865h0c-7.449-2.736-4.712-9.425,6.081-15.049h0c10.793-5.473,25.69-7.753,32.987-4.864C367.683,276.816,364.8,283.5,354,288.977Z" transform="translate(-311.619 -270.34)" fill="#ffe65a"/>
        <g id="Group_15" data-name="Group 15" transform="translate(0 7.539)">
          <path id="Path_41" data-name="Path 41" d="M324.207,275.3l2.888,1.064c-10.793,5.473-13.529,12.161-6.081,15.049l-4.256,2.128C307.638,290.045,310.982,281.989,324.207,275.3Z" transform="translate(-311.619 -275.3)" fill="#f4ef89"/>
        </g>
        <g id="Group_16" data-name="Group 16" transform="translate(5.2 2.481)">
          <path id="Path_42" data-name="Path 42" d="M325.316,278.095c10.793-5.473,25.69-7.753,32.987-4.864,7.449,2.736,4.712,9.425-6.081,14.9s-25.69,7.753-32.987,4.865C311.787,290.256,314.523,283.567,325.316,278.095Z" transform="translate(-315.04 -271.973)" fill="#f9bf05"/>
        </g>
        <path id="Path_43" data-name="Path 43" d="M325.319,279.9c10.793-5.473,25.69-7.753,32.987-4.865,2.432.912,3.648,2.128,4.1,3.8.608-2.28-.76-4.408-4.1-5.625-7.449-2.736-22.194-.608-32.987,4.864-7.3,3.648-10.945,8.057-10.185,11.249C315.894,286.433,319.39,282.936,325.319,279.9Z" transform="translate(-309.842 -269.468)" fill="#d4a205"/>
        <g id="Group_18" data-name="Group 18" transform="translate(0.123 6.019)">
          <g id="Group_17" data-name="Group 17">
            <path id="Path_44" data-name="Path 44" d="M311.7,284.3l2.432,10.033q.684,2.736,5.016,4.56l-2.432-10.033C313.828,287.8,312.156,286.124,311.7,284.3Z" transform="translate(-311.7 -269.099)" fill="#ffc72e"/>
            <path id="Path_45" data-name="Path 45" d="M367.649,274.3c1.672,7.145-12.009,13.985-19.762,16.874-9.425,3.344-24.17,6.081-32.987,2.888l2.432,10.033c13.529,5.016,44.388-3.8,51.533-14.745h0a6.292,6.292,0,0,0,1.064-4.864Z" transform="translate(-310.036 -274.3)" fill="#ffa50a"/>
          </g>
        </g>
      </g>
      <g id="Group_25" data-name="Group 25" transform="translate(73.445)">
        <g id="Group_22" data-name="Group 22" transform="translate(0 1.539)">
          <g id="Group_21" data-name="Group 21">
            <path id="Path_46" data-name="Path 46" d="M370.329,220.1c-6.081,3.648-8.057,3.648-9.729,6.537h0l6.993-3.8A7.847,7.847,0,0,1,370.329,220.1Z" transform="translate(-358.798 -220.1)" fill="#d77d14"/>
            <path id="Path_47" data-name="Path 47" d="M373.593,244.9l-6.993,3.8c5.625,6.993,14.745,14.593,21.738,12.009,1.064-.456,2.128-1.064,7.9-4.256C389.554,260.1,379.521,252.349,373.593,244.9Z" transform="translate(-355.677 -207.2)" fill="#d77d14"/>
            <g id="Group_20" data-name="Group 20" transform="translate(0 2.736)">
              <path id="Path_48" data-name="Path 48" d="M368.209,221.9l-6.993,3.8a1.152,1.152,0,0,0-.3.608h0c-4.256,8.057,1.064,23.714,9.577,34.355l6.993-3.8c-5.777-7.449-11.1-18.7-10.945-27.515A11.826,11.826,0,0,1,368.209,221.9Z" transform="translate(-359.415 -221.9)" fill="#e99709"/>
            </g>
          </g>
        </g>
        <g id="Group_23" data-name="Group 23" transform="translate(4.056)">
          <ellipse id="Ellipse_1" data-name="Ellipse 1" cx="11.553" cy="23.562" rx="11.553" ry="23.562" transform="translate(0 11.953) rotate(-31.151)" fill="#e3ad04"/>
        </g>
        <path id="Path_49" data-name="Path 49" d="M388.542,232.7c-7.9-9.881-17.178-13.225-20.826-7.3A9.974,9.974,0,0,0,366.5,228.6c.152-.456.456-.912.608-1.368,3.648-5.929,13.073-2.736,20.826,7.3,6.689,8.361,10.033,19,8.817,25.538C399.183,253.832,395.839,241.975,388.542,232.7Z" transform="translate(-355.729 -217.33)" fill="#cf9d04"/>
        <path id="Path_50" data-name="Path 50" d="M391.193,231.969c-9.577-12.161-20.978-16.114-25.386-8.817l.3.3-.3-.3c-4.408,7.3-.3,22.954,9.121,34.963h0c9.577,12.161,20.978,16.114,25.386,8.817S400.77,243.979,391.193,231.969Zm6.081,31.011c-3.648,5.929-13.073,2.736-20.826-7.3h0c-7.9-9.881-11.249-22.8-7.6-28.731h0c3.648-5.929,13.073-2.736,20.826,7.3C397.577,244.131,400.922,257.052,397.273,262.98Z" transform="translate(-357.012 -218.877)" fill="#e3cc50"/>
        <g id="Group_24" data-name="Group 24" transform="translate(6.957 4.276)">
          <path id="Path_51" data-name="Path 51" d="M365.829,221.9l3.04,3.952c-3.648,5.929-.3,18.85,7.6,28.731l-1.52,2.28C365.525,244.7,361.268,229.045,365.829,221.9Z" transform="translate(-363.991 -221.9)" fill="#deda7c"/>
        </g>
        <path id="Path_52" data-name="Path 52" d="M379.346,232.509c-3.04-4.56-7.6-10.185-11.705-12.009a6.189,6.189,0,0,0-1.824,2.128l.3.3-.3-.3c-4.408,7.145-.456,22.5,8.817,34.507a42.2,42.2,0,0,0,5.168,5.777C386.339,258.352,388.163,245.734,379.346,232.509Z" transform="translate(-357.022 -218.353)" fill="#fff" opacity="0.19"/>
      </g>
      <g id="Group_31" data-name="Group 31" transform="translate(222.511 115.246)">
        <path id="Path_53" data-name="Path 53" d="M467.85,327.279s-3.952-23.258,20.37-31.771c0,0-3.952-.456-5.776-.608h-2.888c-1.52.152-1.824.3-2.128.3h0a2.034,2.034,0,0,0-.76.152c-13.529,3.344-21.282,18.85-18.7,32.683h0a26.125,26.125,0,0,0,3.5,9.273h0c3.648,5.929,9.425,10.185,16.266,10.945h0l5.929.608C479.251,348.561,469.674,339.592,467.85,327.279Z" transform="translate(-457.475 -294.9)" fill="#e99709"/>
        <path id="Path_54" data-name="Path 54" d="M465.4,298.548h12.009a34.091,34.091,0,0,1,6.689-3.04s-3.952-.456-5.776-.608h-2.888c-1.52.152-1.824.3-2.128.3h0a2.035,2.035,0,0,0-.76.152A23.36,23.36,0,0,0,465.4,298.548Z" transform="translate(-453.353 -294.9)" fill="#d77d14"/>
        <path id="Path_55" data-name="Path 55" d="M463.916,300.2a27.989,27.989,0,0,0-5.016,8.513h10.489a26.444,26.444,0,0,1,5.777-8.513Z" transform="translate(-456.734 -292.143)" fill="#f7a00a"/>
        <path id="Path_56" data-name="Path 56" d="M467.933,317H457.9a27.931,27.931,0,0,0,3.344,8.817h0c3.648,5.929,9.425,10.185,16.266,10.945h0l5.929.608C479.182,337.066,470.061,328.705,467.933,317Z" transform="translate(-457.254 -283.405)" fill="#d77d14"/>
        <g id="Group_26" data-name="Group 26" transform="translate(10.375 8.846)">
          <path id="Path_57" data-name="Path 57" d="M479.957,301.3a15.137,15.137,0,0,1,5.777-.456,17.681,17.681,0,0,1,.608,2.736c2.432,13.833-5.473,27.667-17.482,30.859h-.152a23.906,23.906,0,0,1-4.408-10.185v-.3C464.3,313.459,470.685,303.882,479.957,301.3Z" transform="translate(-464.3 -300.719)" fill="#e9bd32"/>
        </g>
        <g id="Group_27" data-name="Group 27" transform="translate(5.843 1.216)">
          <path id="Path_58" data-name="Path 58" d="M479.988,295.7l.76,4.712c-10.337,2.736-17.026,14.593-14.9,26.45l-4.1,1.064C459.314,313.486,467.523,299.044,479.988,295.7Z" transform="translate(-461.319 -295.7)" fill="#e6e295"/>
        </g>
        <g id="Group_28" data-name="Group 28" transform="translate(10.075 5.32)">
          <path id="Path_59" data-name="Path 59" d="M479.452,299.008a20.811,20.811,0,0,1,5.168-.608,20.509,20.509,0,0,1,1.216,3.648,18.935,18.935,0,0,0-5.777.456c-9.273,2.432-15.657,12.009-15.657,22.5C462.578,313.449,469.267,301.744,479.452,299.008Z" transform="translate(-464.103 -298.4)" fill="#e9bd32"/>
        </g>
        <g id="Group_29" data-name="Group 29" transform="translate(6.422 0.608)">
          <path id="Path_60" data-name="Path 60" d="M480.4,300.62Zm-.152.152Zm-.3,0Zm-.3.152Zm-.152,0Zm-.3.152Zm-.152,0Zm-.3.152Zm-.152.152Zm-.3,0Zm-.152.152Zm-.3.152Zm-.152,0Zm-.3.152Zm-.152.152Zm-.152,0c-.152,0-.152.152,0,0C476.9,302.141,476.9,301.989,477.053,301.989Zm-.3.152Zm-.152.152Zm-.3.152Zm-.152.152Zm-.152,0c-.152,0-.152.152,0,0C475.837,302.749,475.837,302.6,475.989,302.6Zm-.3.152Zm-.152.152Zm-.3.152Zm-.152.152Zm-.152.152Zm-.3.152Zm-.152.152Zm-.152.152Zm-.152.152Zm-.3.152Zm-.152.152Zm-.152.152Zm-.3.152Zm-.152.152Zm-.152.152Zm-.152.152Zm-.152.152Zm-.3.152Zm-.152.152Zm-.152.3Zm-.152.152Zm-.152.152Zm-.152.152Zm-.152.152c0,.152-.152.152,0,0C471.277,306.549,471.429,306.549,471.429,306.4Zm-.152.3Zm-.3.152Zm-.152.152ZM483.134,295.3c-.912.152-1.824.3-2.888.456h-.608l.76,4.712a20.81,20.81,0,0,1,5.168-.608A16.668,16.668,0,0,0,483.134,295.3Zm-17.482,31.467a1.149,1.149,0,0,0-.152-.608C465.5,326.311,465.652,326.463,465.652,326.767Zm-.152-.608v0Zm.152.912v0Zm-3.952,1.064v.3a26.124,26.124,0,0,0,3.5,9.273,17.08,17.08,0,0,0,4.865-.608,23.905,23.905,0,0,1-4.408-10.185Zm3.8-2.584v0Zm0-.152v0Zm-.152-.3v0Zm0-.3v0Zm0-.3v0Zm0-.3v0Zm0-.152v0Zm0-.3v0Zm0-.3v0Zm0-.3v0Zm0-.3v0Zm0-.152v0Zm0-.912v0Zm0-.76a20.554,20.554,0,0,1,.76-4.408A37.992,37.992,0,0,0,465.348,320.99Zm.76-4.408v0Zm0-.3v-.152C466.26,316.126,466.26,316.278,466.108,316.278Zm.152-.3v0Zm0-.152v-.152C466.412,315.67,466.26,315.67,466.26,315.822Zm.152-.3v0Zm0-.3v-.152C466.564,315.214,466.412,315.214,466.412,315.214Zm.152-.152Zm0-.3c.152,0,.152-.152,0,0C466.716,314.606,466.716,314.758,466.564,314.758Zm.152-.3Zm.152-.152Zm0-.3Zm.152-.3Zm0-.152Zm.152-.3Zm.152-.152Zm0-.3Zm.152-.3Zm.152-.152Zm0-.3Zm.152-.152Zm.152-.3Zm.152-.152Zm0-.3Zm.152-.152Zm.152-.3Zm.152-.152Zm.152-.3Zm.152-.152Zm0-.3Zm.152-.152Zm.152-.152Zm.152-.3Zm.152-.152Zm.152-.3Zm.152-.152Zm.152-.152Zm.152-.3Zm.152-.152Zm.152-.152Zm.152-.3Zm.152-.152ZM465.5,325.551v0Z" transform="translate(-461.7 -295.3)" fill="#e9d771"/>
        </g>
        <g id="Group_30" data-name="Group 30" transform="translate(6.574 0.573)">
          <path id="Path_61" data-name="Path 61" d="M480.65,295.768c12.313-2.736,24.018,6.233,26.45,20.218,2.432,14.441-5.625,28.883-18.242,32.227-12.313,3.344-24.322-5.32-27.059-19.458a27.45,27.45,0,0,0,3.344,8.969,17.08,17.08,0,0,0,4.864-.608c4.408,5.473,11.1,8.209,17.938,6.385,10.337-2.736,17.026-14.593,14.9-26.45v-.3c-1.824-9.577-8.969-16.266-17.178-16.722a34.481,34.481,0,0,0-2.584-4.712C482.322,295.464,481.41,295.616,480.65,295.768Z" transform="translate(-461.8 -295.277)" fill="#e9d352"/>
        </g>
        <path id="Path_62" data-name="Path 62" d="M500.187,315.426v-.3c-1.824-9.577-8.969-16.266-17.178-16.722a20.509,20.509,0,0,1,1.216,3.648,17.679,17.679,0,0,1,.608,2.736c2.432,13.833-5.473,27.667-17.482,30.859H467.2c4.408,5.473,11.1,8.209,17.938,6.385C495.475,339.292,502.163,327.283,500.187,315.426Z" transform="translate(-452.417 -293.079)" fill="#e9b205"/>
        <path id="Path_63" data-name="Path 63" d="M495.87,315.426v-.3c-1.824-9.577-8.969-16.266-17.178-16.722,0,.152.152.152.152.3,7.145,1.52,13.073,7.753,14.745,16.417v.3c1.976,11.857-4.712,23.714-14.9,26.45a11.57,11.57,0,0,1-3.192.456,16.7,16.7,0,0,0,5.473-.456C491.157,339.292,497.846,327.283,495.87,315.426Z" transform="translate(-448.1 -293.079)" fill="#d4a205"/>
      </g>
    </g>
  </g>
</svg>
