<svg id="BNB" xmlns="http://www.w3.org/2000/svg" width="40.346" height="40.404" viewBox="0 0 40.346 40.404">
  <path id="Trazado_4662" data-name="Trazado 4662" d="M284.26,397.4a1.215,1.215,0,0,0,.114.156q6.06,6.052,12.108,12.1a.979.979,0,0,0,.154.11l-4.588,4.588-7.818-7.82-7.811,7.811-4.563-4.565c.019-.021.061-.065.105-.11L284.08,397.56a1.449,1.449,0,0,0,.114-.156Z" transform="translate(-264.083 -397.403)" fill="#fff"/>
  <path id="Trazado_4663" data-name="Trazado 4663" d="M284.2,424.412a1.542,1.542,0,0,0-.117-.156q-6.056-6.06-12.115-12.117a1.289,1.289,0,0,0-.124-.1l4.539-4.579,7.816,7.816,7.832-7.835,4.6,4.609a.973.973,0,0,0-.145.114q-6.049,6.045-12.094,12.094a1.557,1.557,0,0,0-.117.156Z" transform="translate(-264.093 -384.012)" fill="#fff"/>
  <path id="Trazado_4664" data-name="Trazado 4664" d="M290.993,408.688a1.285,1.285,0,0,0-.145.11q-2.139,2.135-4.271,4.273a1.143,1.143,0,0,0-.1.135l-4.548-4.546,4.548-4.551a.693.693,0,0,0,.1.133q2.132,2.139,4.271,4.273c.049.049.1.094.149.143Z" transform="translate(-250.649 -388.459)" fill="#fff"/>
  <path id="Trazado_4665" data-name="Trazado 4665" d="M279.784,404.094l4.562,4.563-4.586,4.586L275.2,408.68l4.588-4.586" transform="translate(-259.627 -388.479)" fill="#fff"/>
  <rect id="Rect치ngulo_5195" data-name="Rect치ngulo 5195" width="6.38" height="6.38" transform="translate(0 20.202) rotate(-45)" fill="#fff"/>
  <rect id="Rect치ngulo_5196" data-name="Rect치ngulo 5196" width="40.346" height="40.395" fill="none"/>
</svg>
