<svg xmlns="http://www.w3.org/2000/svg" width="18" height="18" viewBox="0 0 18 18">
  <g id="Copy" transform="translate(-837 -330)">
    <rect id="Rectangle_736" data-name="Rectangle 736" width="18" height="18" transform="translate(837 330)" fill="none"/>
    <g id="Icon_feather-copy" data-name="Icon feather-copy" transform="translate(837 330)">
      <path id="Path_109" data-name="Path 109" d="M14.8,13.5h5.85a1.3,1.3,0,0,1,1.3,1.3v5.85a1.3,1.3,0,0,1-1.3,1.3H14.8a1.3,1.3,0,0,1-1.3-1.3V14.8A1.3,1.3,0,0,1,14.8,13.5Z" transform="translate(-5.95 -5.95)" fill="none" stroke="#d1d1d1" stroke-linecap="round" stroke-linejoin="round" stroke-width="2"/>
      <path id="Path_110" data-name="Path 110" d="M4.95,11.45H4.3A1.3,1.3,0,0,1,3,10.15V4.3A1.3,1.3,0,0,1,4.3,3h5.85a1.3,1.3,0,0,1,1.3,1.3v.65" fill="none" stroke="#d1d1d1" stroke-linecap="round" stroke-linejoin="round" stroke-width="2"/>
    </g>
  </g>
</svg>
