<svg xmlns="http://www.w3.org/2000/svg" xmlns:xlink="http://www.w3.org/1999/xlink" width="1032" height="185" viewBox="0 0 1032 185">
  <defs>
    <linearGradient id="linear-gradient" x1="0.991" y1="0.071" x2="0" y2="1" gradientUnits="objectBoundingBox">
      <stop offset="0" stop-color="#8255ec"/>
      <stop offset="1" stop-color="#3c60fd"/>
    </linearGradient>
  </defs>
  <g id="Art_upload_banner" data-name="Art upload banner" transform="translate(-444 -428)">
    <g id="Rectángulo_5915" data-name="Rectángulo 5915" transform="translate(444 428)" stroke="#8255ec" stroke-width="2" fill="url(#linear-gradient)">
      <rect width="1032" height="185" stroke="none"/>
      <rect x="1" y="1" width="1030" height="183" fill="none"/>
    </g>
    <path id="Icon_metro-file-image" data-name="Icon metro-file-image" d="M51.313,14.821a7.726,7.726,0,0,1,1.594,2.523,7.663,7.663,0,0,1,.664,2.922v38.25A3.174,3.174,0,0,1,50.383,61.7H5.758a3.074,3.074,0,0,1-2.258-.93,3.074,3.074,0,0,1-.93-2.258V5.391A3.074,3.074,0,0,1,3.5,3.133,3.074,3.074,0,0,1,5.758,2.2h29.75a7.665,7.665,0,0,1,2.922.664,7.726,7.726,0,0,1,2.524,1.594Zm-14.742-8.1V19.2H49.055a3.628,3.628,0,0,0-.73-1.361L37.932,7.45a3.626,3.626,0,0,0-1.361-.73Zm12.75,50.734v-34H35.508a3.174,3.174,0,0,1-3.187-3.187V6.453H6.821v51h42.5Zm-4.25-14.875V53.2h-34V46.829l6.375-6.375L21.7,44.7l12.75-12.75ZM17.446,36.2a6.349,6.349,0,0,1-6.375-6.375,6.349,6.349,0,0,1,6.375-6.375,6.349,6.349,0,0,1,6.375,6.375A6.349,6.349,0,0,1,17.446,36.2Z" transform="translate(932.429 488.728)" fill="#fff"/>
  </g>
</svg>
