<svg xmlns="http://www.w3.org/2000/svg" width="24.687" height="19.75" viewBox="0 0 24.687 19.75">
  <path id="Icon_awesome-eye-slash" data-name="Icon awesome-eye-slash" d="M12.344,15.429a5.534,5.534,0,0,1-5.512-5.135L2.785,7.168A12.856,12.856,0,0,0,1.369,9.312a1.248,1.248,0,0,0,0,1.126,12.372,12.372,0,0,0,10.975,6.843,11.982,11.982,0,0,0,3-.4l-2-1.549a5.56,5.56,0,0,1-1,.1Zm12.105,2.241-4.264-3.3a12.778,12.778,0,0,0,3.134-3.937,1.248,1.248,0,0,0,0-1.126A12.372,12.372,0,0,0,12.344,2.469,11.886,11.886,0,0,0,6.661,3.923L1.754.13A.617.617,0,0,0,.887.238L.13,1.213a.617.617,0,0,0,.108.866l22.7,17.541a.617.617,0,0,0,.866-.108l.758-.975a.617.617,0,0,0-.109-.866Zm-7.087-5.477-1.516-1.172a3.655,3.655,0,0,0-4.479-4.7,1.838,1.838,0,0,1,.359,1.088,1.8,1.8,0,0,1-.059.386L8.828,5.6A5.489,5.489,0,0,1,12.344,4.32,5.552,5.552,0,0,1,17.9,9.875a5.423,5.423,0,0,1-.536,2.319Z" transform="translate(0 0)" fill="#fff"/>
</svg>
