<svg xmlns="http://www.w3.org/2000/svg" xmlns:xlink="http://www.w3.org/1999/xlink" width="193.875" height="23.911" viewBox="0 0 193.875 23.911">
  <defs>
    <clipPath id="clip-path">
      <rect id="Rectángulo_2" data-name="Rectángulo 2" width="193.875" height="23.911" fill="#fff"/>
    </clipPath>
  </defs>
  <g id="Hoardable_1" data-name="Hoardable 1" transform="translate(-245.125 -22.189)">
    <g id="Grupo_15" data-name="Grupo 15" transform="translate(245.125 22.189)">
      <g id="Grupo_4" data-name="Grupo 4" clip-path="url(#clip-path)">
        <path id="Trazado_3" data-name="Trazado 3" d="M15.929,0V9.953H3.974L0,13.958v9.951H3.974V13.958H15.929v9.951H19.9V0Zm21.1,0a11.419,11.419,0,0,0-8.437,3.526,11.513,11.513,0,0,0-3.526,8.427,11.466,11.466,0,0,0,3.526,8.428,11.836,11.836,0,0,0,16.856,0,11.332,11.332,0,0,0,3.556-8.427A11.427,11.427,0,0,0,45.45,3.528,11.466,11.466,0,0,0,37.027,0Zm0,4a7.673,7.673,0,0,1,5.619,2.331,7.673,7.673,0,0,1,2.331,5.619,7.672,7.672,0,0,1-2.335,5.651,8.045,8.045,0,0,1-11.266,0,7.713,7.713,0,0,1-2.3-5.649,7.645,7.645,0,0,1,2.3-5.619,7.672,7.672,0,0,1,5.648-2.334ZM57.383,15.961l3.526-7.022,3.5,7.022h4.483L60.905,0,48.946,23.909h4.423l2.038-4Zm13.474,3.974H66.433l1.973,3.974h4.453ZM83.7,12.463a7.556,7.556,0,0,0,1.4-4.513,7.721,7.721,0,0,0-2.331-5.619A7.673,7.673,0,0,0,77.157,0H66.669L68.73,3.557l.448.448h7.979A3.794,3.794,0,0,1,79.937,5.17a3.711,3.711,0,0,1,1.195,2.779,3.793,3.793,0,0,1-1.195,2.839,3.8,3.8,0,0,1-2.779,1.165l-3.556-.03,6.934,11.987h4.571l-4.9-8.578a7.709,7.709,0,0,0,3.5-2.869M107.7,7.353a12.567,12.567,0,0,0-2.6-3.826,12.345,12.345,0,0,0-3.8-2.57A11.578,11.578,0,0,0,96.669,0H88.721l3.974,4h3.974a8.184,8.184,0,0,1,3.078.6,8.332,8.332,0,0,1,2.54,1.733,8.166,8.166,0,0,1,1.733,2.54,7.9,7.9,0,0,1,0,6.156,8.616,8.616,0,0,1-1.7,2.54,7.835,7.835,0,0,1-2.54,1.736,8.224,8.224,0,0,1-3.108.6H92.7l-3.974,4h7.949a11.474,11.474,0,0,0,4.632-.956,12.133,12.133,0,0,0,3.826-2.57,13.036,13.036,0,0,0,2.57-3.826,11.31,11.31,0,0,0,.926-4.6,11.31,11.31,0,0,0-.926-4.6Zm9.265,8.607,3.53-7.022,3.5,7.022h4.483L120.492,0,108.534,23.909h4.423l2.033-4Zm13.478,3.974h-4.423l1.973,3.974h4.453Zm22.2-12.969a6.846,6.846,0,0,0-2.036-4.9A6.893,6.893,0,0,0,145.665,0H132.736l3.974,4h8.965a2.945,2.945,0,0,1,1.135.21,2.5,2.5,0,0,1,.986.658,3.119,3.119,0,0,1,.863,2.091,3.008,3.008,0,0,1-.239,1.165,2.951,2.951,0,0,1-.624.956,2.5,2.5,0,0,1-.986.658,2.506,2.506,0,0,1-1.135.238H132.736v3.974h12.939a3.279,3.279,0,0,1,1.195.239,2.908,2.908,0,0,1,.926.658,3.006,3.006,0,0,1,0,4.183,2.5,2.5,0,0,1-.986.658,2.946,2.946,0,0,1-1.135.21H136.71v4h8.965a6.755,6.755,0,0,0,2.69-.538,6.927,6.927,0,0,0,2.248-1.525,6.846,6.846,0,0,0,2.037-4.9,6.635,6.635,0,0,0-2.091-4.995,6.728,6.728,0,0,0,2.081-4.984ZM161.484,19.9l-3.974,4h15.924v-4ZM157.51,0V18.5l3.974-4V0Zm20.436,23.579v.328h15.929v-4H181.924Zm0-23.579,3.974,4h11.954V0Zm0,13.956h15.929V9.983H177.946Z" transform="translate(0 0)" fill="#fff"/>
      </g>
    </g>
  </g>
</svg>
