<svg xmlns="http://www.w3.org/2000/svg" width="24.5" height="21" viewBox="0 0 24.5 21">
  <g id="Icon_ionic-md-images" data-name="Icon ionic-md-images" transform="translate(-2.252 -4.502)">
    <path id="Trazado_4651" data-name="Trazado 4651" d="M25.526,8.668l-4.512-.219-.263-2.942a1.129,1.129,0,0,0-1.252-1L3.317,5.835A1.116,1.116,0,0,0,2.256,7.022l1.159,12.9a1.132,1.132,0,0,0,1.252,1l.82-.066-.131,2.5a1.242,1.242,0,0,0,1.225,1.285l18.053.859a1.255,1.255,0,0,0,1.356-1.159l.76-14.4A1.236,1.236,0,0,0,25.526,8.668Zm-19.409.29L5.729,16.33,4.772,17.68l-.88-9.735V7.891a.592.592,0,0,1,.525-.514L18.69,6.207a.528.528,0,0,1,.574.432c0,.011.016.011.016.022s.016.011.016.022l.148,1.684L7.468,7.793A1.262,1.262,0,0,0,6.117,8.958ZM24.383,21.913l-4.638-5.441L17.7,18.348l-3.784-4.419-6.71,7.148.569-10.888v-.022a.625.625,0,0,1,.651-.492l15.925.766a.581.581,0,0,1,.569.558c0,.011.016.016.016.027Z" fill="#fff"/>
    <path id="Trazado_4652" data-name="Trazado 4652" d="M26.5,17a1.75,1.75,0,1,0-1.75-1.75A1.755,1.755,0,0,0,26.5,17Z" transform="translate(-4.999 -1.999)" fill="#fff"/>
  </g>
</svg>
