<svg xmlns="http://www.w3.org/2000/svg" width="28.5" height="22.8" viewBox="0 0 28.5 22.8">
  <path id="Icon_awesome-eye-slash" data-name="Icon awesome-eye-slash" d="M14.25,17.812a6.389,6.389,0,0,1-6.363-5.928L3.215,8.275A14.842,14.842,0,0,0,1.58,10.75a1.441,1.441,0,0,0,0,1.3,14.283,14.283,0,0,0,12.67,7.9,13.832,13.832,0,0,0,3.469-.466L15.408,17.7A6.418,6.418,0,0,1,14.25,17.812ZM28.225,20.4l-4.923-3.8A14.751,14.751,0,0,0,26.92,12.05a1.441,1.441,0,0,0,0-1.3,14.283,14.283,0,0,0-12.67-7.9A13.722,13.722,0,0,0,7.69,4.529L2.024.15a.712.712,0,0,0-1,.125L.15,1.4a.712.712,0,0,0,.125,1l26.2,20.25a.712.712,0,0,0,1-.125L28.35,21.4a.713.713,0,0,0-.126-1Zm-8.181-6.323-1.75-1.353a4.22,4.22,0,0,0-5.17-5.43,2.122,2.122,0,0,1,.415,1.256A2.077,2.077,0,0,1,13.469,9L10.191,6.462A6.337,6.337,0,0,1,14.25,4.987,6.409,6.409,0,0,1,20.662,11.4a6.26,6.26,0,0,1-.619,2.677Z" transform="translate(0 0)" fill="#fff"/>
</svg>
