<svg xmlns="http://www.w3.org/2000/svg" width="23.385" height="23.385" viewBox="0 0 23.385 23.385">
  <path id="Icon_awesome-info-circle" data-name="Icon awesome-info-circle" d="M12.255.563A11.692,11.692,0,1,0,23.947,12.255,11.694,11.694,0,0,0,12.255.563Zm0,5.186a1.98,1.98,0,1,1-1.98,1.98A1.98,1.98,0,0,1,12.255,5.749ZM14.9,17.724a.566.566,0,0,1-.566.566H10.18a.566.566,0,0,1-.566-.566V16.592a.566.566,0,0,1,.566-.566h.566V13.009H10.18a.566.566,0,0,1-.566-.566V11.312a.566.566,0,0,1,.566-.566H13.2a.566.566,0,0,1,.566.566v4.715h.566a.566.566,0,0,1,.566.566Z" transform="translate(-0.563 -0.563)" fill="#fff"/>
</svg>
