<svg xmlns="http://www.w3.org/2000/svg" width="26" height="21.125" viewBox="0 0 26 21.125">
  <path id="Icon_awesome-list" data-name="Icon awesome-list" d="M6.063,19.625H.813A.812.812,0,0,0,0,20.438v3.25a.813.813,0,0,0,.813.813h3.25a.813.813,0,0,0,.813-.812v-3.25C4.875,19.989,6.511,19.625,6.063,19.625Zm-2-16.25H.813A.812.812,0,0,0,0,4.188v3.25a.812.812,0,0,0,.813.813h3.25a.812.812,0,0,0,.813-.812V4.188A.812.812,0,0,0,4.063,3.375Zm0,8.125H.813A.812.812,0,0,0,0,12.313v3.25a.813.813,0,0,0,.813.813h3.25a.813.813,0,0,0,.813-.812v-3.25A.812.812,0,0,0,4.063,11.5Zm21.125,8.938H8.938a.812.812,0,0,0-.812.813v1.625a.813.813,0,0,0,.813.813h16.25A.813.813,0,0,0,26,22.875V21.25A.812.812,0,0,0,25.188,20.438Zm0-16.25H8.938A.812.812,0,0,0,8.125,5V6.625a.812.812,0,0,0,.813.813h16.25A.813.813,0,0,0,26,6.625V5A.813.813,0,0,0,25.188,4.188Zm0,8.125H8.938a.812.812,0,0,0-.812.813V14.75a.812.812,0,0,0,.813.813h16.25A.813.813,0,0,0,26,14.75V13.125A.813.813,0,0,0,25.188,12.313Z" transform="translate(0 -3.375)" fill="#fff"/>
</svg>
