<svg xmlns="http://www.w3.org/2000/svg" xmlns:xlink="http://www.w3.org/1999/xlink" width="311" height="145" viewBox="0 0 311 145">
  <defs>
    <linearGradient id="linear-gradient" x1="0.276" y1="-0.781" x2="0.77" y2="1.322" gradientUnits="objectBoundingBox">
      <stop offset="0" stop-color="#3c60fd"/>
      <stop offset="1" stop-color="#8255ec"/>
    </linearGradient>
    <clipPath id="clip-path">
      <rect id="Rectangle_5910" data-name="Rectangle 5910" width="311" height="145" transform="translate(8406.5 3057)" fill="#fff" stroke="#707070" stroke-width="1"/>
    </clipPath>
    <filter id="Path_730" x="-23.242" y="-157.847" width="357.568" height="315.689" filterUnits="userSpaceOnUse">
      <feOffset input="SourceAlpha"/>
      <feGaussianBlur stdDeviation="7.5" result="blur"/>
      <feFlood flood-opacity="0.78"/>
      <feComposite operator="in" in2="blur"/>
      <feComposite in="SourceGraphic"/>
    </filter>
    <clipPath id="clip-path-2">
      <rect id="Rectangle_2" data-name="Rectangle 2" width="139.61" height="17.218" fill="#fff"/>
    </clipPath>
    <clipPath id="clip-path-3">
      <rect id="Rectangle_1" data-name="Rectangle 1" width="79.652" height="79.602" fill="#fff"/>
    </clipPath>
    <clipPath id="clip-path-4">
      <rect id="Rectangle_2-2" data-name="Rectangle 2" width="139.61" height="17.218" fill="url(#linear-gradient)"/>
    </clipPath>
    <clipPath id="clip-path-5">
      <rect id="Rectangle_1-2" data-name="Rectangle 1" width="79.652" height="79.602" fill="url(#linear-gradient)"/>
    </clipPath>
  </defs>
  <g id="Mask_Group_9752" data-name="Mask Group 9752" transform="translate(-8406.5 -3057)" clip-path="url(#clip-path)">
    <g transform="matrix(1, 0, 0, 1, 8406.5, 3057)" filter="url(#Path_730)">
      <path id="Path_730-2" data-name="Path 730" d="M234.055.642H78.513L.741,135.346l77.771,134.7H234.055l77.771-134.7Z" transform="translate(-0.74 -135.35)" fill="#1c1c1c" stroke="#fff" stroke-miterlimit="10" stroke-width="1.285"/>
    </g>
    <g id="Group_590" data-name="Group 590" transform="translate(7611.321 3041)">
      <g id="Group_15" data-name="Group 15" transform="translate(880.679 117.839)">
        <g id="Group_4" data-name="Group 4" clip-path="url(#clip-path-2)">
          <path id="Path_3" data-name="Path 3" d="M11.47,0V7.167H2.862L0,10.051v7.166H2.862V10.051H11.47v7.166h2.862V0Zm15.2,0a8.223,8.223,0,0,0-6.08,2.541,8.291,8.291,0,0,0-2.539,6.068,8.257,8.257,0,0,0,2.539,6.069,8.523,8.523,0,0,0,12.138,0A8.161,8.161,0,0,0,35.289,8.61a8.229,8.229,0,0,0-2.561-6.069A8.257,8.257,0,0,0,26.663,0Zm0,2.884a5.525,5.525,0,0,1,4.046,1.679A5.525,5.525,0,0,1,32.391,8.61a5.524,5.524,0,0,1-1.681,4.07,5.794,5.794,0,0,1-8.113,0A5.554,5.554,0,0,1,20.94,8.612,5.506,5.506,0,0,1,22.6,4.565a5.525,5.525,0,0,1,4.067-1.68Zm14.656,8.608,2.539-5.057,2.518,5.057h3.228L43.858,0,35.246,17.217h3.185L39.9,14.334Zm9.7,2.862H47.839l1.421,2.862h3.206Zm9.25-5.38a5.441,5.441,0,0,0,1.012-3.249,5.56,5.56,0,0,0-1.679-4.046A5.525,5.525,0,0,0,55.561,0H48.009l1.484,2.561.323.323h5.745a2.732,2.732,0,0,1,2,.839,2.672,2.672,0,0,1,.86,2,2.731,2.731,0,0,1-.86,2.045,2.733,2.733,0,0,1-2,.839L53,8.586l4.993,8.632h3.292l-3.529-6.177a5.551,5.551,0,0,0,2.519-2.066M77.554,5.3A9.049,9.049,0,0,0,75.681,2.54,8.89,8.89,0,0,0,72.948.689,8.337,8.337,0,0,0,69.612,0H63.888L66.75,2.884h2.862a5.894,5.894,0,0,1,2.216.431,6,6,0,0,1,1.829,1.248A5.881,5.881,0,0,1,74.9,6.392a5.688,5.688,0,0,1,0,4.433,6.2,6.2,0,0,1-1.226,1.829A5.642,5.642,0,0,1,71.85,13.9a5.922,5.922,0,0,1-2.238.431H66.75l-2.862,2.884h5.724a8.262,8.262,0,0,0,3.336-.689,8.737,8.737,0,0,0,2.755-1.85,9.387,9.387,0,0,0,1.85-2.755,8.144,8.144,0,0,0,.667-3.314A8.145,8.145,0,0,0,77.553,5.3Zm6.672,6.2,2.542-5.057,2.518,5.057h3.228L86.767,0,78.156,17.217h3.185L82.8,14.334Zm9.705,2.862H90.745l1.421,2.862h3.206Zm15.986-9.339A5.045,5.045,0,0,0,104.894,0h-9.31l2.862,2.884H104.9a2.121,2.121,0,0,1,.817.151,1.8,1.8,0,0,1,.71.474,2.246,2.246,0,0,1,.621,1.506,2.166,2.166,0,0,1-.172.839,2.125,2.125,0,0,1-.45.689,1.8,1.8,0,0,1-.71.474,1.8,1.8,0,0,1-.817.172H95.584V10.05H104.9a2.361,2.361,0,0,1,.86.172,2.094,2.094,0,0,1,.667.474,2.165,2.165,0,0,1,0,3.012,1.8,1.8,0,0,1-.71.474,2.122,2.122,0,0,1-.817.151H98.446v2.884H104.9a4.864,4.864,0,0,0,1.937-.388,4.989,4.989,0,0,0,1.618-1.1,4.93,4.93,0,0,0,1.467-3.529,4.778,4.778,0,0,0-1.506-3.6,4.845,4.845,0,0,0,1.5-3.589Zm6.369,9.319-2.862,2.884H124.89V14.334ZM113.424,0V13.322l2.862-2.884V0ZM128.14,16.981v.236h11.47V14.334H131ZM128.14,0,131,2.885h8.608V0Zm0,10.05h11.47V7.189H128.14Z" fill="#fff"/>
        </g>
      </g>
      <g id="Group_16" data-name="Group 16" transform="translate(910.951 28.5)">
        <path id="Path_1" data-name="Path 1" d="M342.234,210.829h0l-2.044-1.147V186.193l-9.622,5.757V203.8l-12.462-6.857V194.4l8.232-4.864V159.054l-3.943,2.476v25.743l-3.831,2.274V159.054l10.01-5.917,1.993,1.316v23.1l9.624-5.686v-12.06l12.27,7.345v2.4l-8.179,4.818v30.151l3.972-2.076V176.62l4.206-2.252v30.671Zm-15.779-16.521-2,1.251,2,1.352Zm13.656-17.485-9.486,5.655v4.432l9.486-5.429Zm4.112-9.728v2.528l1.988-1.2Z" transform="translate(-295.423 -142.217)" fill="#fff"/>
        <g id="Group_2" data-name="Group 2">
          <g id="Group_1" data-name="Group 1" clip-path="url(#clip-path-3)">
            <path id="Path_2" data-name="Path 2" d="M39.828,79.6A39.767,39.767,0,0,1,6.568,61.666l4.18-2.386a35.008,35.008,0,0,0,61.328-33.1c-.151-.359-.314-.723-.479-1.08l4.183-2.4A39.79,39.79,0,0,1,39.828,79.6M4.172,57.5h0a39.808,39.808,0,0,1,69.284-39l-4.173,2.385A35.008,35.008,0,0,0,7.583,53.42c.24.57.5,1.137.772,1.7L4.174,57.5Z" transform="translate(0 0.005)" fill="#fff"/>
          </g>
        </g>
      </g>
    </g>
    <g id="Group_9461" data-name="Group 9461" transform="translate(7611.321 3041)" opacity="0">
      <g id="Group_15-2" data-name="Group 15" transform="translate(880.679 117.839)">
        <g id="Group_4-2" data-name="Group 4" clip-path="url(#clip-path-4)">
          <path id="Path_3-2" data-name="Path 3" d="M11.47,0V7.167H2.862L0,10.051v7.166H2.862V10.051H11.47v7.166h2.862V0Zm15.2,0a8.223,8.223,0,0,0-6.08,2.541,8.291,8.291,0,0,0-2.539,6.068,8.257,8.257,0,0,0,2.539,6.069,8.523,8.523,0,0,0,12.138,0A8.161,8.161,0,0,0,35.289,8.61a8.229,8.229,0,0,0-2.561-6.069A8.257,8.257,0,0,0,26.663,0Zm0,2.884a5.525,5.525,0,0,1,4.046,1.679A5.525,5.525,0,0,1,32.391,8.61a5.524,5.524,0,0,1-1.681,4.07,5.794,5.794,0,0,1-8.113,0A5.554,5.554,0,0,1,20.94,8.612,5.506,5.506,0,0,1,22.6,4.565a5.525,5.525,0,0,1,4.067-1.68Zm14.656,8.608,2.539-5.057,2.518,5.057h3.228L43.858,0,35.246,17.217h3.185L39.9,14.334Zm9.7,2.862H47.839l1.421,2.862h3.206Zm9.25-5.38a5.441,5.441,0,0,0,1.012-3.249,5.56,5.56,0,0,0-1.679-4.046A5.525,5.525,0,0,0,55.561,0H48.009l1.484,2.561.323.323h5.745a2.732,2.732,0,0,1,2,.839,2.672,2.672,0,0,1,.86,2,2.731,2.731,0,0,1-.86,2.045,2.733,2.733,0,0,1-2,.839L53,8.586l4.993,8.632h3.292l-3.529-6.177a5.551,5.551,0,0,0,2.519-2.066M77.554,5.3A9.049,9.049,0,0,0,75.681,2.54,8.89,8.89,0,0,0,72.948.689,8.337,8.337,0,0,0,69.612,0H63.888L66.75,2.884h2.862a5.894,5.894,0,0,1,2.216.431,6,6,0,0,1,1.829,1.248A5.881,5.881,0,0,1,74.9,6.392a5.688,5.688,0,0,1,0,4.433,6.2,6.2,0,0,1-1.226,1.829A5.642,5.642,0,0,1,71.85,13.9a5.922,5.922,0,0,1-2.238.431H66.75l-2.862,2.884h5.724a8.262,8.262,0,0,0,3.336-.689,8.737,8.737,0,0,0,2.755-1.85,9.387,9.387,0,0,0,1.85-2.755,8.144,8.144,0,0,0,.667-3.314A8.145,8.145,0,0,0,77.553,5.3Zm6.672,6.2,2.542-5.057,2.518,5.057h3.228L86.767,0,78.156,17.217h3.185L82.8,14.334Zm9.705,2.862H90.745l1.421,2.862h3.206Zm15.986-9.339A5.045,5.045,0,0,0,104.894,0h-9.31l2.862,2.884H104.9a2.121,2.121,0,0,1,.817.151,1.8,1.8,0,0,1,.71.474,2.246,2.246,0,0,1,.621,1.506,2.166,2.166,0,0,1-.172.839,2.125,2.125,0,0,1-.45.689,1.8,1.8,0,0,1-.71.474,1.8,1.8,0,0,1-.817.172H95.584V10.05H104.9a2.361,2.361,0,0,1,.86.172,2.094,2.094,0,0,1,.667.474,2.165,2.165,0,0,1,0,3.012,1.8,1.8,0,0,1-.71.474,2.122,2.122,0,0,1-.817.151H98.446v2.884H104.9a4.864,4.864,0,0,0,1.937-.388,4.989,4.989,0,0,0,1.618-1.1,4.93,4.93,0,0,0,1.467-3.529,4.778,4.778,0,0,0-1.506-3.6,4.845,4.845,0,0,0,1.5-3.589Zm6.369,9.319-2.862,2.884H124.89V14.334ZM113.424,0V13.322l2.862-2.884V0ZM128.14,16.981v.236h11.47V14.334H131ZM128.14,0,131,2.885h8.608V0Zm0,10.05h11.47V7.189H128.14Z" fill="url(#linear-gradient)"/>
        </g>
      </g>
      <g id="Group_16-2" data-name="Group 16" transform="translate(910.951 28.5)">
        <path id="Path_1-2" data-name="Path 1" d="M342.234,210.829h0l-2.044-1.147V186.193l-9.622,5.757V203.8l-12.462-6.857V194.4l8.232-4.864V159.054l-3.943,2.476v25.743l-3.831,2.274V159.054l10.01-5.917,1.993,1.316v23.1l9.624-5.686v-12.06l12.27,7.345v2.4l-8.179,4.818v30.151l3.972-2.076V176.62l4.206-2.252v30.671Zm-15.779-16.521-2,1.251,2,1.352Zm13.656-17.485-9.486,5.655v4.432l9.486-5.429Zm4.112-9.728v2.528l1.988-1.2Z" transform="translate(-295.423 -142.217)" fill="url(#linear-gradient)"/>
        <g id="Group_2-2" data-name="Group 2">
          <g id="Group_1-2" data-name="Group 1" clip-path="url(#clip-path-5)">
            <path id="Path_2-2" data-name="Path 2" d="M39.828,79.6A39.767,39.767,0,0,1,6.568,61.666l4.18-2.386a35.008,35.008,0,0,0,61.328-33.1c-.151-.359-.314-.723-.479-1.08l4.183-2.4A39.79,39.79,0,0,1,39.828,79.6M4.172,57.5h0a39.808,39.808,0,0,1,69.284-39l-4.173,2.385A35.008,35.008,0,0,0,7.583,53.42c.24.57.5,1.137.772,1.7L4.174,57.5Z" transform="translate(0 0.005)" fill="url(#linear-gradient)"/>
          </g>
        </g>
      </g>
    </g>
  </g>
</svg>
