<svg xmlns="http://www.w3.org/2000/svg" xmlns:xlink="http://www.w3.org/1999/xlink" width="369" height="369" viewBox="0 0 369 369">
  <defs>
    <clipPath id="clip-path">
      <path id="Rectangle_5927" data-name="Rectangle 5927" d="M10,0H222a10,10,0,0,1,10,10V232a0,0,0,0,1,0,0H0a0,0,0,0,1,0,0V10A10,10,0,0,1,10,0Z" transform="translate(5688 3516)" fill="#151825"/>
    </clipPath>
    <clipPath id="clip-path-2">
      <path id="Path_5102" data-name="Path 5102" d="M333.892,174.6V159.3l-165.732,7.6c0-.027,0-.053-.008-.079l164.881-18.425-2.394-15.113L168.142,166.7c-.005-.027-.016-.051-.024-.077l159.967-43.991-4.728-14.552L168.085,166.518c-.01-.025-.018-.05-.029-.074L319.169,97.971l-6.947-13.634L168,166.346c-.013-.023-.023-.048-.038-.07L306.505,75.007l-8.994-12.379L167.9,166.188c-.016-.021-.033-.042-.051-.062L290.4,54.307l-10.82-10.82L167.766,166.047c-.02-.018-.041-.034-.062-.051L271.264,36.381l-12.379-8.994L167.617,165.928c-.022-.015-.047-.025-.07-.038L249.555,21.67l-13.634-6.947L167.449,165.837c-.025-.011-.049-.02-.074-.029L225.811,10.535,211.259,5.807,167.269,165.774c-.026-.007-.05-.018-.077-.024l33.427-162.5L185.506.859,167.081,165.739c-.026,0-.052-.007-.079-.008L174.6,0H159.3l7.6,165.732c-.027,0-.053,0-.079.008L148.387.859,133.273,3.252l33.427,162.5c-.027.005-.051.016-.077.024L122.633,5.807l-14.552,4.728,58.437,155.272c-.025.01-.05.018-.074.029L97.971,14.723,84.337,21.67l82.008,144.22c-.023.013-.048.023-.07.038L75.007,27.387,62.628,36.381,166.188,166c-.021.016-.042.033-.062.051L54.307,43.488l-10.82,10.82,122.56,111.819c-.018.02-.034.041-.051.062L36.381,62.628,27.387,75.007l138.541,91.268c-.015.022-.025.047-.038.07L21.669,84.337,14.723,97.971l151.114,68.472c-.011.025-.02.049-.029.074L10.535,108.081,5.807,122.633l159.967,43.991c-.007.026-.018.05-.024.077L3.252,133.273.859,148.387l164.881,18.425c0,.026-.007.052-.008.079L0,159.3v15.3L165.731,167c0,.027.005.053.008.079L.859,185.506l2.394,15.113,162.5-33.427c.005.027.016.051.024.077L5.807,211.259l4.728,14.552,155.272-58.437c.009.025.018.05.029.074L14.723,235.921l6.947,13.634,144.22-82.008c.013.023.023.048.038.07L27.387,258.885l8.994,12.379L166,167.7c.016.021.033.042.051.062L43.488,279.585l10.82,10.82,111.819-122.56c.02.018.041.034.062.051L62.628,297.511l12.379,8.994,91.268-138.541c.022.015.047.025.07.038L84.337,312.223l13.634,6.947,68.472-151.114c.024.011.049.02.074.029L108.081,323.357l14.552,4.729,43.991-159.968c.026.007.05.018.077.024l-33.427,162.5,15.113,2.394,18.425-164.881c.026,0,.052.007.079.008l-7.6,165.731h15.3L167,168.161c.027,0,.053-.005.079-.008l18.425,164.881,15.113-2.394-33.427-162.5c.027-.005.051-.016.077-.024l43.991,159.968,14.552-4.729L167.375,168.085c.025-.009.05-.018.074-.029L235.921,319.17l13.634-6.947L167.547,168c.023-.013.048-.023.07-.038l91.268,138.541,12.379-8.994L167.7,167.9c.021-.016.042-.033.062-.051L279.585,290.4l10.82-10.82L167.845,167.766c.018-.02.034-.041.051-.062L297.511,271.264l8.994-12.379L167.965,167.617c.015-.022.025-.047.038-.07l144.22,82.008,6.947-13.634L168.056,167.449c.011-.024.02-.049.029-.074l155.272,58.437,4.728-14.552L168.118,167.269c.007-.026.018-.05.024-.077l162.5,33.427,2.394-15.113L168.153,167.081c0-.026.007-.052.008-.079Z" fill="#8255ec"/>
    </clipPath>
    <radialGradient id="radial-gradient" cx="0.5" cy="0.5" r="0.5" gradientUnits="objectBoundingBox">
      <stop offset="0" stop-color="#8255ec"/>
      <stop offset="1" stop-color="#151825" stop-opacity="0"/>
    </radialGradient>
    <linearGradient id="linear-gradient" x1="0.5" x2="0.5" y2="1" gradientUnits="objectBoundingBox">
      <stop offset="0" stop-color="#e23be9"/>
      <stop offset="1" stop-color="#21eeff"/>
    </linearGradient>
    <filter id="Path_5101" x="105.807" y="108.92" width="136.84" height="166.528" filterUnits="userSpaceOnUse">
      <feOffset dy="3" input="SourceAlpha"/>
      <feGaussianBlur stdDeviation="3" result="blur"/>
      <feFlood flood-opacity="0.161"/>
      <feComposite operator="in" in2="blur"/>
      <feComposite in="SourceGraphic"/>
    </filter>
    <filter id="Path_5101-2" x="105.807" y="108.92" width="136.84" height="166.528" filterUnits="userSpaceOnUse">
      <feOffset dy="3" input="SourceAlpha"/>
      <feGaussianBlur stdDeviation="3" result="blur-2"/>
      <feFlood flood-color="#9124ff" result="color"/>
      <feComposite operator="out" in="SourceGraphic" in2="blur-2"/>
      <feComposite operator="in" in="color"/>
      <feComposite operator="in" in2="SourceGraphic"/>
    </filter>
  </defs>
  <g id="Group_12576" data-name="Group 12576" transform="translate(-201 -859)">
    <path id="Rectangle_5232" data-name="Rectangle 5232" d="M10,0H222a10,10,0,0,1,10,10V232a0,0,0,0,1,0,0H0a0,0,0,0,1,0,0V10A10,10,0,0,1,10,0Z" transform="translate(269 919)" fill="#151825"/>
    <g id="Mask_Group_9753" data-name="Mask Group 9753" transform="translate(-5419 -2597)" clip-path="url(#clip-path)">
      <g id="Group_12573" data-name="Group 12573" transform="translate(5637 3465)" opacity="0.094" clip-path="url(#clip-path-2)">
        <rect id="Rectangle_5926" data-name="Rectangle 5926" width="471.814" height="471.814" transform="matrix(0.735, -0.678, 0.678, 0.735, -166.408, 153.549)" fill="#8255ec"/>
      </g>
    </g>
    <circle id="Ellipse_20" data-name="Ellipse 20" cx="94.5" cy="94.5" r="94.5" transform="translate(291 949)" fill="url(#radial-gradient)"/>
    <g id="Rectangle_5233" data-name="Rectangle 5233" transform="translate(269 1153)" fill="#151825" stroke="#8255ec" stroke-width="1">
      <path d="M0,0H232a0,0,0,0,1,0,0V62a10,10,0,0,1-10,10H10A10,10,0,0,1,0,62V0A0,0,0,0,1,0,0Z" stroke="none"/>
      <path d="M1,.5H231a.5.5,0,0,1,.5.5V62a9.5,9.5,0,0,1-9.5,9.5H10A9.5,9.5,0,0,1,.5,62V1A.5.5,0,0,1,1,.5Z" fill="none"/>
    </g>
    <line id="Line_27" data-name="Line 27" x2="232" transform="translate(269 1153)" fill="none" stroke="#8255ec" stroke-width="6"/>
    <g data-type="innerShadowGroup">
      <g transform="matrix(1, 0, 0, 1, 201, 859)" filter="url(#Path_5101)">
        <path id="Path_5101-3" data-name="Path 5101" d="M276.889,49.255a12.884,12.884,0,0,0-11.5-2.014L205.979,65.066a12.916,12.916,0,0,0-9.269,12.443v76.237a21.972,21.972,0,0,0-11.141-3.1,22.281,22.281,0,1,0,22.281,22.281V77.508a1.873,1.873,0,0,1,1.319-1.783L268.6,57.9a1.851,1.851,0,0,1,2.389,1.782v71.8a21.972,21.972,0,0,0-11.141-3.1,22.281,22.281,0,1,0,22.281,22.281V59.684a12.866,12.866,0,0,0-5.241-10.427Zm-91.3,134.828a11.141,11.141,0,1,1,11.141-11.141A11.145,11.145,0,0,1,185.589,184.083ZM259.85,161.8a11.141,11.141,0,1,1,11.141-11.141A11.145,11.145,0,0,1,259.85,161.8Z" transform="translate(-48.48 68.24)" fill="url(#linear-gradient)"/>
      </g>
      <g transform="matrix(1, 0, 0, 1, 201, 859)" filter="url(#Path_5101-2)">
        <path id="Path_5101-4" data-name="Path 5101" d="M276.889,49.255a12.884,12.884,0,0,0-11.5-2.014L205.979,65.066a12.916,12.916,0,0,0-9.269,12.443v76.237a21.972,21.972,0,0,0-11.141-3.1,22.281,22.281,0,1,0,22.281,22.281V77.508a1.873,1.873,0,0,1,1.319-1.783L268.6,57.9a1.851,1.851,0,0,1,2.389,1.782v71.8a21.972,21.972,0,0,0-11.141-3.1,22.281,22.281,0,1,0,22.281,22.281V59.684a12.866,12.866,0,0,0-5.241-10.427Zm-91.3,134.828a11.141,11.141,0,1,1,11.141-11.141A11.145,11.145,0,0,1,185.589,184.083ZM259.85,161.8a11.141,11.141,0,1,1,11.141-11.141A11.145,11.145,0,0,1,259.85,161.8Z" transform="translate(-48.48 68.24)" fill="#fff"/>
      </g>
    </g>
  </g>
</svg>
