<?xml version="1.0" encoding="UTF-8"?><svg id="Capa_2" xmlns="http://www.w3.org/2000/svg" xmlns:xlink="http://www.w3.org/1999/xlink" viewBox="0 0 222.1 147.3"><defs><style>.cls-1{fill:#3c60fd;fill-rule:evenodd;}.cls-2{clip-path:url(#clippath);}.cls-3{fill:none;}</style><clipPath id="clippath"><rect class="cls-3" width="222.1" height="147.3"/></clipPath></defs><g id="Capa_1-2"><g class="cls-2"><path class="cls-1" d="M5.1,52.6c-5.9,19.9-3,41.8,8.5,59.3,8.5,.8,16.1,1.1,24.8,.2,0-7,3.2-13.4,9.1-17.2-3.8-11.4-5.7-25.4-5.1-37.5-6.1-1.9-11-7-12.9-13.1-8.5,1.8-16.7,4.5-24.4,8.3h0Zm14.2,67.2c15,17.6,37.3,26.7,60.4,25-5.1-4.7-9.7-9.5-14-15-10.2,4.2-21.6-.6-25.9-10.6-6.7,.8-13.7,1.1-20.5,.6h0Zm38.8-20.7c-6.8,0-12.5,5.7-12.5,12.5,0,11,13.6,16.7,21.4,8.9,7.9-7.7,2.6-21.4-8.9-21.4h0Zm77.2-24.2c3.4,4,6.6,8.3,9.3,12.7,3.8-18.2,.2-37.7-10-53.4-1.1,4.5-2.3,9.1-4,13.6,8.5,6.1,10.6,18.2,4.7,27.1h0Zm-26.5-18.4c-3.6,4.9-2.8,11.9,1.3,16.1,5.1,4.9,12.9,4.9,17.8,0,12.9-13-9.4-30.8-19.1-16.1h0Zm1.9,25c-9.3,10.8-20.6,19.7-33.3,26.1,1.5,6.6-.6,13.6-5.3,18-1.5,1.5,15,16.3,17.2,17.8,24.4-5.1,44.3-22.7,52.6-46-3.2-6.1-7.2-12.1-11.7-17.4-5.7,3.8-13.4,4.4-19.5,1.5h0Zm-56.6,10.8c8.1-1.7,16.1,1.9,20.8,8.7,11.2-5.9,21.4-14,29.9-23.7-5.5-5.7-7-14.4-3.6-21.6-10.6-5.9-21.8-10-33.7-11.9-2.1,8.3-9.3,14.2-18,14.6-.1,11.8,1,22.6,4.6,33.9h0Zm13.8-55.8c13.1,2.1,25.6,6.6,37.3,13.1,4.9-4.9,12.1-6.8,18.9-5.1,2.3-5.9,3.8-11.9,4.9-18.2C114.2,8.9,91.9-.4,69,1.3c-4.5,6.1-8.3,12.9-11.2,19.9,5.4,3,9.4,8.8,10.1,15.3h0Zm-28.4,11.1c11.7,11.7,29.5-6.1,17.8-17.8s-29.5,6.1-17.8,17.8ZM59.4,2.6C36.9,7.3,18.1,22.3,8.5,43.1c6.6-2.5,13.4-4.7,20.1-5.9,.8-11,10-18.9,22-18,2.6-5.8,5.4-11.3,8.8-16.6h0Z"/></g></g></svg>