<?xml version="1.0" encoding="UTF-8"?><svg id="Capa_2" xmlns="http://www.w3.org/2000/svg" xmlns:xlink="http://www.w3.org/1999/xlink" viewBox="0 0 222.1 147.3"><defs><style>.cls-1{fill:#3c60fd;}.cls-2{clip-path:url(#clippath);}.cls-3{fill:none;}.cls-4{fill:red;}</style><clipPath id="clippath"><rect class="cls-3" width="222.1" height="147.3"/></clipPath></defs><g id="Capa_1-2"><g class="cls-2"><g><g><path class="cls-1" d="M69,36.9h0c7.7,1.2,15.2,3.3,22.4,6.1V3.3c-6.9-1.6-14.1-2.2-21.4-1.6-4.4,6.1-8.3,12.9-11.2,19.9,5.6,3,9.6,8.7,10.2,15.3Z"/><path class="cls-1" d="M76,101.3c8.6-4.6,16.6-10.4,23.7-17.3h-8.3V50.7c-7.3-3.1-15-5.3-22.9-6.6-2.1,8.3-9.3,14.2-18,14.6,0,11.9,1.1,22.7,4.7,33.9,8.1-1.7,16.2,1.9,20.8,8.7Z"/><path class="cls-1" d="M58.4,30.1c-11.7-11.7-29.4,6.1-17.8,17.8,11.7,11.7,29.5-6.1,17.8-17.8Z"/><path class="cls-1" d="M68.2,120.8c7.8-7.6,2.5-21.4-8.9-21.4h0c-6.8,0-12.5,5.7-12.5,12.5,0,11,13.5,16.7,21.4,8.9Z"/><path class="cls-1" d="M39.6,112.5c0-7,3.2-13.3,9.1-17.2-3.8-11.4-5.7-25.4-5.1-37.5-6.1-1.9-11-7-12.9-13.1-8.5,1.7-16.7,4.4-24.4,8.3h0C.4,72.9,3.3,94.7,14.8,112.3c8.5,.9,16.1,1.1,24.8,.2Z"/><path class="cls-1" d="M109.9,84c-8.9,9.8-19.5,17.9-31.3,23.8,1.5,6.6-.6,13.6-5.3,18-1.5,1.5,15,16.3,17.2,17.8,24.4-5.1,44.3-22.7,52.5-46-2.5-4.7-5.4-9.4-8.7-13.7h-24.4v.1Z"/><path class="cls-1" d="M51.9,19.5c2.5-5.7,5.3-11.2,8.7-16.5C38.1,7.7,19.3,22.7,9.8,43.5c6.6-2.5,13.3-4.7,20.1-5.9,.8-11.1,9.9-18.9,22-18.1Z"/><path class="cls-1" d="M143.1,84c.9,1.3,1.8,2.6,2.6,3.9,.3-1.3,.5-2.6,.7-3.9h-3.3Z"/><path class="cls-1" d="M66.9,130.1c-10.2,4.2-21.6-.6-25.8-10.6-6.8,.8-13.8,1.1-20.6,.6,15,17.6,37.3,26.7,60.4,25-5.1-4.6-9.7-9.5-14-15Z"/></g><path class="cls-4" d="M99.5,4.2V77h85.9V4.2H99.5Zm50.5,54.9h-8.7V28.3l-10.1,9.5-5.1-5.7,13.3-11.6h10.6V59.1Z"/></g></g></g></svg>