<?xml version="1.0" encoding="UTF-8"?><svg id="Capa_2" xmlns="http://www.w3.org/2000/svg" xmlns:xlink="http://www.w3.org/1999/xlink" viewBox="0 0 222.11 147.34"><defs><style>.cls-1{fill:#fff;fill-rule:evenodd;}.cls-2{clip-path:url(#clippath);}.cls-3{fill:none;}</style><clipPath id="clippath"><rect class="cls-3" width="222.11" height="147.34"/></clipPath></defs><g id="Capa_1-2"><g class="cls-2"><path class="cls-1" d="M5.16,52.61c-5.93,19.92-2.97,41.75,8.48,59.34,8.48,.85,16.11,1.06,24.8,.21,0-6.99,3.18-13.35,9.11-17.17-3.82-11.45-5.72-25.43-5.09-37.51-6.15-1.91-11.02-6.99-12.93-13.14-8.48,1.7-16.74,4.45-24.37,8.27h0Zm14.2,67.19c15.05,17.59,37.3,26.7,60.4,25.01-5.09-4.66-9.75-9.54-13.99-15.05-10.17,4.24-21.62-.64-25.86-10.6-6.78,.85-13.78,1.06-20.56,.64h0Zm38.79-20.77c-6.78,0-12.5,5.72-12.5,12.5,0,11.02,13.56,16.74,21.41,8.9,7.84-7.63,2.54-21.41-8.9-21.41h0Zm77.15-24.16c3.39,4.03,6.57,8.27,9.33,12.72,3.82-18.23,.21-37.73-9.96-53.41-1.06,4.45-2.33,9.11-4.03,13.56,8.48,6.15,10.6,18.23,4.66,27.13h0Zm-26.49-18.44c-3.6,4.87-2.75,11.87,1.27,16.11,5.09,4.87,12.93,4.87,17.8,0,12.93-12.93-9.33-30.73-19.07-16.11h0Zm1.91,25.01c-9.33,10.81-20.56,19.71-33.27,26.07,1.48,6.57-.64,13.56-5.3,18.02-1.48,1.48,15.05,16.32,17.17,17.8,24.37-5.09,44.3-22.68,52.56-45.99-3.18-6.15-7.21-12.08-11.66-17.38-5.72,3.82-13.35,4.45-19.5,1.48h0Zm-56.59,10.81c8.05-1.7,16.11,1.91,20.77,8.69,11.23-5.93,21.41-13.99,29.88-23.74-5.51-5.72-6.99-14.41-3.6-21.62-10.6-5.93-21.83-9.96-33.7-11.87-2.12,8.27-9.33,14.2-18.02,14.62,0,11.87,1.06,22.68,4.66,33.91h0Zm13.78-55.74c13.14,2.12,25.65,6.57,37.3,13.14,4.87-4.87,12.08-6.78,18.86-5.09,2.33-5.93,3.82-11.87,4.87-18.23C114.1,8.95,91.84-.38,68.95,1.32c-4.45,6.15-8.27,12.93-11.23,19.92,5.51,2.97,9.54,8.69,10.17,15.26h0Zm-28.4,11.02c11.66,11.66,29.46-6.15,17.8-17.8-11.66-11.66-29.46,6.15-17.8,17.8ZM59.42,2.59C36.95,7.26,18.09,22.3,8.55,43.07c6.57-2.54,13.35-4.66,20.13-5.93,.85-11.02,9.96-18.86,22.04-18.02,2.54-5.72,5.3-11.23,8.69-16.53h0Z"/></g></g></svg>