<?xml version="1.0" encoding="UTF-8"?><svg id="Capa_2" xmlns="http://www.w3.org/2000/svg" xmlns:xlink="http://www.w3.org/1999/xlink" viewBox="0 0 222.11 147.34"><defs><style>.cls-1{fill:#fff;}.cls-2{clip-path:url(#clippath);}.cls-3{fill:none;}.cls-4{fill:red;}</style><clipPath id="clippath"><rect class="cls-3" width="222.11" height="147.34"/></clipPath></defs><g id="Capa_1-2"><g class="cls-2"><g><g><path class="cls-1" d="M69.01,36.87h0c7.72,1.24,15.21,3.32,22.44,6.13V3.33c-6.92-1.59-14.12-2.16-21.38-1.63-4.45,6.14-8.26,12.92-11.23,19.91,5.51,2.97,9.53,8.69,10.17,15.25Z"/><polygon class="cls-1" points="60.54 2.97 60.54 2.97 60.54 2.97 60.54 2.97"/><path class="cls-1" d="M76,101.27c8.64-4.56,16.64-10.39,23.73-17.27h-8.29V50.66c-7.34-3.09-14.96-5.32-22.86-6.59-2.12,8.26-9.32,14.19-18.01,14.62,0,11.86,1.06,22.67,4.66,33.9,8.05-1.69,16.1,1.91,20.76,8.69Z"/><path class="cls-1" d="M58.42,30.09c-11.65-11.65-29.45,6.14-17.8,17.8,11.65,11.65,29.45-6.14,17.8-17.8Z"/><polygon class="cls-1" points="55.24 92.59 55.24 92.59 55.24 92.59 55.24 92.59"/><path class="cls-1" d="M68.16,120.76c7.84-7.63,2.54-21.4-8.9-21.4h0c-6.78,0-12.5,5.72-12.5,12.5,0,11.02,13.56,16.74,21.4,8.9Z"/><path class="cls-1" d="M39.56,112.5c0-6.99,3.18-13.35,9.11-17.16-3.81-11.44-5.72-25.42-5.08-37.5-6.14-1.91-11.02-6.99-12.92-13.14-8.47,1.69-16.74,4.45-24.36,8.26h0C.37,72.88,3.34,94.7,14.78,112.29c8.47,.85,16.1,1.06,24.79,.21Z"/><path class="cls-1" d="M109.83,84c-8.92,9.8-19.46,17.92-31.29,23.84,1.48,6.57-.64,13.56-5.3,18.01-1.48,1.48,15.04,16.31,17.16,17.8,24.36-5.08,44.28-22.67,52.54-45.97-2.46-4.75-5.42-9.37-8.7-13.67h-24.42Z"/><path class="cls-1" d="M51.85,19.5c2.54-5.72,5.3-11.23,8.69-16.52C38.08,7.63,19.22,22.68,9.69,43.44c6.57-2.54,13.35-4.66,20.13-5.93,.85-11.02,9.96-18.86,22.03-18.01Z"/><path class="cls-1" d="M143.12,84c.89,1.29,1.76,2.59,2.59,3.92,.27-1.3,.5-2.61,.69-3.92h-3.28Z"/><polygon class="cls-1" points="20.5 120.13 20.5 120.13 20.5 120.13 20.5 120.13"/><path class="cls-1" d="M66.89,130.08c-10.17,4.24-21.61-.64-25.85-10.59-6.78,.85-13.77,1.06-20.55,.64,15.04,17.58,37.29,26.69,60.38,25-5.08-4.66-9.75-9.53-13.98-15.04Z"/></g><path class="cls-4" d="M99.43,4.16V76.92h85.92V4.16H99.43Zm50.54,54.87h-8.67V28.27l-10.12,9.48-5.09-5.67,13.3-11.62h10.58V59.03Z"/></g></g></g></svg>