<svg xmlns="http://www.w3.org/2000/svg" width="27.7" height="24.238" viewBox="0 0 27.7 24.238">
  <path id="Icon_awesome-list-ol" data-name="Icon awesome-list-ol" d="M3.342,22.214l.947-1.09a1.078,1.078,0,0,0,.274-.768v-.179a.549.549,0,0,0-.614-.614H.866A.433.433,0,0,0,.433,20v.866a.433.433,0,0,0,.433.433H2.1a8.516,8.516,0,0,0-.6.666l-.3.379a.719.719,0,0,0-.151.805l.057.1a.658.658,0,0,0,.663.426h.256c.559,0,.862.132.862.492,0,.255-.227.445-.777.445a2.247,2.247,0,0,1-.837-.169c-.351-.21-.635-.189-.844.169l-.3.5a.583.583,0,0,0,.142.862,3.885,3.885,0,0,0,2,.511A2.371,2.371,0,0,0,4.9,24.1,1.956,1.956,0,0,0,3.342,22.214Zm23.493-9.576H9.522a.866.866,0,0,0-.866.866v1.731a.866.866,0,0,0,.866.866H26.835a.866.866,0,0,0,.866-.866V13.5A.866.866,0,0,0,26.835,12.638Zm0-8.656H9.522a.866.866,0,0,0-.866.866V6.578a.866.866,0,0,0,.866.866H26.835a.866.866,0,0,0,.866-.866V4.847A.866.866,0,0,0,26.835,3.981Zm0,17.313H9.522a.866.866,0,0,0-.866.866v1.731a.866.866,0,0,0,.866.866H26.835a.866.866,0,0,0,.866-.866V22.16A.866.866,0,0,0,26.835,21.294ZM.866,9.175H4.328a.433.433,0,0,0,.433-.433V7.877a.433.433,0,0,0-.433-.433H3.463V2.683A.433.433,0,0,0,3.03,2.25h-1.3a.433.433,0,0,0-.386.239l-.433.866a.433.433,0,0,0,.386.627h.433V7.444H.866a.433.433,0,0,0-.433.433v.866A.433.433,0,0,0,.866,9.175ZM.654,17.831H4.328a.433.433,0,0,0,.433-.433v-.866a.433.433,0,0,0-.433-.433H2.235c.178-.557,2.615-1.011,2.615-3.054a2.191,2.191,0,0,0-2.406-2.14A2.623,2.623,0,0,0,.256,11.921a.535.535,0,0,0,.151.832l.464.372c.3.247.6.134.872-.132a.727.727,0,0,1,.512-.208.461.461,0,0,1,.5.473C2.759,13.946,0,14.44,0,17v.216A.592.592,0,0,0,.654,17.831Z" transform="translate(0 -2.25)" fill="#fff"/>
</svg>
