<svg id="Icon_awesome-plus" data-name="Icon awesome-plus" xmlns="http://www.w3.org/2000/svg" width="31.682" height="31.682" viewBox="0 0 31.682 31.682">
  <path id="Icon_awesome-plus-2" data-name="Icon awesome-plus" d="M29.419,14.7H19.236V4.513A2.263,2.263,0,0,0,16.973,2.25H14.71a2.263,2.263,0,0,0-2.263,2.263V14.7H2.263A2.263,2.263,0,0,0,0,16.96v2.263a2.263,2.263,0,0,0,2.263,2.263H12.447V31.669a2.263,2.263,0,0,0,2.263,2.263h2.263a2.263,2.263,0,0,0,2.263-2.263V21.486H29.419a2.263,2.263,0,0,0,2.263-2.263V16.96A2.263,2.263,0,0,0,29.419,14.7Z" transform="translate(0 -2.25)" fill="#3c60fd"/>
</svg>
