<svg xmlns="http://www.w3.org/2000/svg" width="26.998" height="27" viewBox="0 0 26.998 27">
  <path id="Icon_material-update" data-name="Icon material-update" d="M31.5,15.18H21.33l4.11-4.23a10.558,10.558,0,0,0-14.82-.15,10.313,10.313,0,0,0,0,14.685,10.529,10.529,0,0,0,14.82,0A9.77,9.77,0,0,0,28.5,18.15h3a14.011,14.011,0,0,1-3.96,9.435,13.581,13.581,0,0,1-19.08,0,13.26,13.26,0,0,1-.03-18.87,13.481,13.481,0,0,1,18.975,0L31.5,4.5ZM18.75,12v6.375L24,21.495,22.92,23.31,16.5,19.5V12Z" transform="translate(-4.502 -4.5)" fill="#fff"/>
</svg>
