<svg xmlns="http://www.w3.org/2000/svg" width="19.75" height="19.75" viewBox="0 0 19.75 19.75">
  <path id="Icon_awesome-paint-roller" data-name="Icon awesome-paint-roller" d="M16.047,4.938v-3.7A1.235,1.235,0,0,0,14.813,0H1.234A1.235,1.235,0,0,0,0,1.234v3.7A1.235,1.235,0,0,0,1.234,6.172H14.813A1.235,1.235,0,0,0,16.047,4.938Zm1.234-2.469V7.406a1.235,1.235,0,0,1-1.234,1.234H9.875a2.469,2.469,0,0,0-2.469,2.469v1.234a1.235,1.235,0,0,0-1.234,1.234v4.938A1.235,1.235,0,0,0,7.406,19.75H9.875a1.235,1.235,0,0,0,1.234-1.234V13.578a1.235,1.235,0,0,0-1.234-1.234V11.109h6.172a3.7,3.7,0,0,0,3.7-3.7V4.938A2.469,2.469,0,0,0,17.281,2.469Z" fill="#fff"/>
</svg>
