<svg xmlns="http://www.w3.org/2000/svg" width="17.265" height="21.055" viewBox="0 0 17.265 21.055">
  <g id="Icon_feather-share" data-name="Icon feather-share" transform="translate(-4.5 -1.5)">
    <path id="Trazado_5290" data-name="Trazado 5290" d="M18.817,28.08H7.448A2.951,2.951,0,0,1,4.5,25.132v-7.58a1.053,1.053,0,0,1,2.105,0v7.58a.843.843,0,0,0,.842.842h11.37a.843.843,0,0,0,.842-.842v-7.58a1.053,1.053,0,0,1,2.105,0v7.58A2.951,2.951,0,0,1,18.817,28.08Z" transform="translate(0 -5.525)" fill="#fff"/>
    <path id="Trazado_5291" data-name="Trazado 5291" d="M19.132,7.4a1.049,1.049,0,0,1-.744-.308L15.343,4.042,12.3,7.087A1.053,1.053,0,0,1,10.808,5.6l3.79-3.79a1.053,1.053,0,0,1,1.489,0l3.79,3.79a1.053,1.053,0,0,1-.744,1.8Z" transform="translate(-2.21 0)" fill="#fff"/>
    <path id="Trazado_5292" data-name="Trazado 5292" d="M17.553,15.922A1.053,1.053,0,0,1,16.5,14.87V2.553a1.053,1.053,0,0,1,2.105,0V14.87A1.053,1.053,0,0,1,17.553,15.922Z" transform="translate(-4.42 0)" fill="#fff"/>
  </g>
</svg>
