<svg xmlns="http://www.w3.org/2000/svg" width="22.5" height="22.5" viewBox="0 0 22.5 22.5">
  <path id="Activity-icon-white" d="M13.376,20.877a1.249,1.249,0,1,0,1.249-1.249A1.253,1.253,0,0,0,13.376,20.877Zm0-17.5v5h2.5v-2.4a8.745,8.745,0,1,1-10,8.648A8.657,8.657,0,0,1,7.848,9.1l6.777,6.777,1.763-1.763-8.5-8.5v.027a11.226,11.226,0,1,0,6.739-2.266Zm8.751,11.25a1.249,1.249,0,1,0-1.249,1.249A1.253,1.253,0,0,0,22.127,14.625Zm-15,0a1.249,1.249,0,1,0,1.249-1.249A1.253,1.253,0,0,0,7.123,14.625Z" transform="translate(-3.375 -3.375)" fill="#fff"/>
</svg>
