<svg id="Icon_awesome-user-alt" data-name="Icon awesome-user-alt" xmlns="http://www.w3.org/2000/svg" width="31.5" height="31.5" viewBox="0 0 31.5 31.5">
  <path id="Icon_awesome-user-alt-2" data-name="Icon awesome-user-alt" d="M15.75,17.719A8.859,8.859,0,1,0,6.891,8.859,8.862,8.862,0,0,0,15.75,17.719Zm7.875,1.969h-3.39a10.71,10.71,0,0,1-8.97,0H7.875A7.874,7.874,0,0,0,0,27.563v.984A2.954,2.954,0,0,0,2.953,31.5H28.547A2.954,2.954,0,0,0,31.5,28.547v-.984A7.874,7.874,0,0,0,23.625,19.688Z" fill="#fff"/>
</svg>
