<svg xmlns="http://www.w3.org/2000/svg" xmlns:xlink="http://www.w3.org/1999/xlink" width="297" height="292.5" viewBox="0 0 297 292.5">
  <defs>
    <linearGradient id="linear-gradient" x1="0.024" y1="1.25" x2="0.833" y2="1.7" gradientUnits="objectBoundingBox">
      <stop offset="0" stop-color="#168bf8"/>
      <stop offset="1" stop-color="#46fab9"/>
    </linearGradient>
    <filter id="Vector" x="0" y="0" width="297" height="292.5" filterUnits="userSpaceOnUse">
      <feOffset dx="10" dy="8" input="SourceAlpha"/>
      <feGaussianBlur stdDeviation="42" result="blur"/>
      <feFlood flood-color="#3ce1c7" flood-opacity="0.322"/>
      <feComposite operator="in" in2="blur"/>
      <feComposite in="SourceGraphic"/>
    </filter>
  </defs>
  <g id="Wallet" transform="translate(78.5 78.25)">
    <g id="Bg" fill="#070520" stroke="#4f66a1" stroke-width="2">
      <circle cx="60" cy="60" r="60" stroke="none"/>
      <circle cx="60" cy="60" r="59" fill="none"/>
    </g>
    <g id="Icon_-_Wallet" data-name="Icon - Wallet" transform="translate(33 33)">
      <rect id="Icon_-_Wallet-2" data-name="Icon - Wallet" width="54" height="54" fill="rgba(0,0,0,0)"/>
      <g transform="matrix(1, 0, 0, 1, -111.5, -111.25)" filter="url(#Vector)">
        <path id="Vector-2" data-name="Vector" d="M32.66,0C40.42,0,45,4.465,45,12.109H35.48v.078a7.9,7.9,0,0,0-8,7.8,7.9,7.9,0,0,0,8,7.8H45v.7C45,36.035,40.42,40.5,32.66,40.5H12.34C4.58,40.5,0,36.035,0,28.488V12.012C0,4.465,4.58,0,12.34,0ZM43.32,15.463A1.659,1.659,0,0,1,45,17.1v5.694a1.679,1.679,0,0,1-1.68,1.638H35.66a4.738,4.738,0,0,1-4.7-3.588,4.46,4.46,0,0,1,.974-3.717,4.706,4.706,0,0,1,3.546-1.665ZM36.56,18.1h-.74a1.723,1.723,0,0,0-1.215.479,1.637,1.637,0,0,0-.5,1.179,1.718,1.718,0,0,0,1.72,1.7h.74a1.677,1.677,0,1,0,0-3.354Zm-13.2-9.34H10.66a1.7,1.7,0,0,0-1.72,1.657,1.718,1.718,0,0,0,1.72,1.7h12.7a1.677,1.677,0,1,0,0-3.354Z" transform="translate(116 118)" fill="url(#linear-gradient)"/>
      </g>
    </g>
  </g>
</svg>
