<svg id="Icon_awesome-wallet" data-name="Icon awesome-wallet" xmlns="http://www.w3.org/2000/svg" width="36" height="31.5" viewBox="0 0 36 31.5">
  <path id="Icon_awesome-wallet-2" data-name="Icon awesome-wallet" d="M32.428,9H5.625a1.125,1.125,0,0,1,0-2.25h27A1.125,1.125,0,0,0,33.75,5.625,3.375,3.375,0,0,0,30.375,2.25H4.5A4.5,4.5,0,0,0,0,6.75v22.5a4.5,4.5,0,0,0,4.5,4.5H32.428A3.481,3.481,0,0,0,36,30.375v-18A3.481,3.481,0,0,0,32.428,9ZM29.25,23.625a2.25,2.25,0,1,1,2.25-2.25A2.25,2.25,0,0,1,29.25,23.625Z" transform="translate(0 -2.25)" fill="#fff"/>
</svg>
