<svg xmlns="http://www.w3.org/2000/svg" width="21.745" height="20.908" viewBox="0 0 21.745 20.908">
  <path id="Icon_ionic-ios-heart-empty" data-name="Icon ionic-ios-heart-empty" d="M19.265,3.938h-.052a5.947,5.947,0,0,0-4.966,2.718A5.947,5.947,0,0,0,9.282,3.938H9.229A5.91,5.91,0,0,0,3.375,9.844a12.724,12.724,0,0,0,2.5,6.936,43.785,43.785,0,0,0,8.374,8.065,43.785,43.785,0,0,0,8.374-8.065,12.724,12.724,0,0,0,2.5-6.936A5.91,5.91,0,0,0,19.265,3.938Z" transform="translate(-3.375 -3.938)" fill="#fff"/>
</svg>
