<svg width="16" height="17" viewBox="0 0 16 17" fill="none" xmlns="http://www.w3.org/2000/svg">
<path fill-rule="evenodd" clip-rule="evenodd" d="M7.74525 13.957L8.45365 14.6654C8.60648 14.8182 8.67652 15.0172 8.68766 15.2289C8.69722 15.4422 8.59374 15.6412 8.45524 15.7924C8.31993 15.9389 8.08751 16.0249 7.89171 16.0249C7.68635 16.0249 7.47303 15.9373 7.32817 15.7924L7.31544 15.7797C7.12228 15.5908 6.93196 15.3991 6.74163 15.2073C6.64647 15.1115 6.55132 15.0156 6.4558 14.9201L4.69037 13.1546L2.63681 11.1011L0.946198 9.41047C0.828411 9.29189 0.710226 9.1737 0.591841 9.05532C0.486403 8.94988 0.380806 8.84428 0.275193 8.73811C0.260886 8.72651 0.24683 8.71449 0.23303 8.70209C0.0770231 8.55722 0.0101629 8.34391 0.000611392 8.13855C-0.00894008 7.93956 0.0945342 7.71351 0.23303 7.57501C0.240983 7.56715 0.249146 7.55945 0.257507 7.55191C0.443638 7.36177 0.632473 7.17433 0.821308 6.98689C0.917181 6.89172 1.01305 6.79656 1.10857 6.70104L2.874 4.93561L4.92757 2.88204L6.61818 1.19143L7.32658 0.48303C7.4794 0.331799 7.67839 0.260163 7.89012 0.250611C8.10343 0.24106 8.30242 0.344534 8.45365 0.48303C8.60011 0.618343 8.68607 0.850762 8.68607 1.04657C8.68607 1.25192 8.59852 1.46524 8.45365 1.6101L8.44092 1.62284C8.25201 1.81599 8.06027 2.00631 7.86854 2.19663C7.77267 2.29179 7.6768 2.38696 7.58128 2.48247L5.81586 4.2479L3.76229 6.30147L2.72116 7.34259H14.9534C15.1699 7.34259 15.361 7.43174 15.517 7.57501C15.673 7.71988 15.7398 7.93319 15.7494 8.13855C15.7589 8.33754 15.6555 8.56359 15.517 8.70209C15.3721 8.84536 15.1572 8.9345 14.9534 8.9345H14.9296C14.8074 8.93557 14.6846 8.93521 14.5621 8.93486C14.5009 8.93468 14.4397 8.9345 14.3788 8.9345H2.72279L4.00108 10.2128L6.05464 12.2664L7.74525 13.957Z" fill="black"/>
</svg>
