<svg width="104" height="108" viewBox="0 0 104 108" fill="none" xmlns="http://www.w3.org/2000/svg">
<rect width="103.652" height="107.311" rx="20" fill="#FC223B"/>
<g clip-path="url(#clip0_4777_86639)">
<path d="M18.6489 94.8382C18.6489 96.6749 20.1425 98.1679 21.9864 98.1679H88.1145C89.9555 98.1679 91.4521 96.6778 91.4521 94.8382V35.293H18.6489V94.8382Z" fill="#100C25"/>
<path d="M88.1237 16.4281H21.9957C20.1517 16.4281 18.6581 17.9182 18.6581 19.7579V35.3137H91.4583V19.7579C91.4583 17.9182 89.9647 16.4281 88.1208 16.4281H88.1237Z" fill="#100C25"/>
<path d="M13.4138 94.8382C13.4138 96.6749 14.9074 98.1679 16.7514 98.1679H82.8765C84.7205 98.1679 86.2141 96.6778 86.2141 94.8382V35.293H13.4138V94.8382Z" fill="white"/>
<path d="M82.8765 16.4103H16.7514C14.9074 16.4103 13.4138 17.9004 13.4138 19.7401V35.2959H86.2141V19.7371C86.2141 17.8975 84.7205 16.4073 82.8765 16.4073V16.4103Z" fill="#EAEAEA"/>
<path d="M33.6353 30.1324C35.7508 30.1324 37.4658 28.4214 37.4658 26.3108C37.4658 24.2002 35.7508 22.4893 33.6353 22.4893C31.5198 22.4893 29.8048 24.2002 29.8048 26.3108C29.8048 28.4214 31.5198 30.1324 33.6353 30.1324Z" fill="#100C25"/>
<path d="M32.8276 24.2638C31.726 24.2638 30.8352 23.375 30.8352 22.276V13.9663C30.8352 13.0065 31.4855 12.1207 32.4297 11.94C33.7006 11.6941 34.8201 12.6628 34.8201 13.8893V16.4103H38.1933V14.0789C38.1903 11.229 36.0435 8.73758 33.1929 8.54798C30.0691 8.34061 27.462 10.8143 27.462 13.8893V22.1041C27.462 24.8948 29.5316 27.3477 32.3199 27.6054C32.6168 27.6321 32.9108 27.635 33.1988 27.6173C35.3219 27.4721 35.1467 24.2667 33.0177 24.2667H32.8276V24.2638Z" fill="white"/>
<path d="M64.1813 30.1324C66.2968 30.1324 68.0118 28.4214 68.0118 26.3108C68.0118 24.2002 66.2968 22.4893 64.1813 22.4893C62.0658 22.4893 60.3508 24.2002 60.3508 26.3108C60.3508 28.4214 62.0658 30.1324 64.1813 30.1324Z" fill="#100C25"/>
<path d="M63.3707 24.2638C62.269 24.2638 61.3782 23.3751 61.3782 22.276V13.9663C61.3782 13.0065 62.0285 12.1207 62.9728 11.94C64.2437 11.6941 65.3631 12.6628 65.3631 13.8893V16.4103H68.7363V14.0789C68.7363 11.232 66.5865 8.74057 63.7389 8.55097C60.6151 8.3436 58.008 10.8172 58.008 13.8923V22.1071C58.008 24.8978 60.0776 27.3507 62.8659 27.6084C63.1628 27.6351 63.4568 27.638 63.7448 27.6202C65.8679 27.4751 65.6927 24.2697 63.5637 24.2697H63.3736L63.3707 24.2638Z" fill="white"/>
<path d="M29.0095 41.4609H22.1208C21.0162 41.4609 20.1208 42.3564 20.1208 43.4609V50.3242C20.1208 51.4288 21.0162 52.3242 22.1208 52.3242H29.0095C30.114 52.3242 31.0095 51.4288 31.0095 50.3242V43.4609C31.0095 42.3564 30.114 41.4609 29.0095 41.4609Z" fill="#EAEAEA"/>
<path d="M29.0095 60.9719H22.1208C21.0162 60.9719 20.1208 61.8674 20.1208 62.9719V69.8352C20.1208 70.9398 21.0162 71.8352 22.1208 71.8352H29.0095C30.114 71.8352 31.0095 70.9398 31.0095 69.8352V62.9719C31.0095 61.8674 30.114 60.9719 29.0095 60.9719Z" fill="#FC223B"/>
<path d="M29.0095 80.483H22.1208C21.0162 80.483 20.1208 81.3785 20.1208 82.483V89.3463C20.1208 90.4509 21.0162 91.3463 22.1208 91.3463H29.0095C30.114 91.3463 31.0095 90.4509 31.0095 89.3463V82.483C31.0095 81.3785 30.114 80.483 29.0095 80.483Z" fill="#EAEAEA"/>
<path d="M46.0816 41.4609H39.1929C38.0883 41.4609 37.1929 42.3564 37.1929 43.4609V50.3242C37.1929 51.4288 38.0883 52.3242 39.1929 52.3242H46.0816C47.1862 52.3242 48.0816 51.4288 48.0816 50.3242V43.4609C48.0816 42.3564 47.1862 41.4609 46.0816 41.4609Z" fill="#FC223B"/>
<path d="M46.0816 60.9719H39.1929C38.0883 60.9719 37.1929 61.8674 37.1929 62.9719V69.8352C37.1929 70.9398 38.0883 71.8352 39.1929 71.8352H46.0816C47.1862 71.8352 48.0816 70.9398 48.0816 69.8352V62.9719C48.0816 61.8674 47.1862 60.9719 46.0816 60.9719Z" fill="#FC223B"/>
<path d="M46.0816 80.483H39.1929C38.0883 80.483 37.1929 81.3785 37.1929 82.483V89.3463C37.1929 90.4509 38.0883 91.3463 39.1929 91.3463H46.0816C47.1862 91.3463 48.0816 90.4509 48.0816 89.3463V82.483C48.0816 81.3785 47.1862 80.483 46.0816 80.483Z" fill="#EAEAEA"/>
<path d="M63.1538 41.4609H56.2651C55.1605 41.4609 54.2651 42.3564 54.2651 43.4609V50.3242C54.2651 51.4288 55.1605 52.3242 56.2651 52.3242H63.1538C64.2584 52.3242 65.1538 51.4288 65.1538 50.3242V43.4609C65.1538 42.3564 64.2584 41.4609 63.1538 41.4609Z" fill="#FC223B"/>
<path d="M63.1538 60.9719H56.2651C55.1605 60.9719 54.2651 61.8674 54.2651 62.9719V69.8352C54.2651 70.9398 55.1605 71.8352 56.2651 71.8352H63.1538C64.2584 71.8352 65.1538 70.9398 65.1538 69.8352V62.9719C65.1538 61.8674 64.2584 60.9719 63.1538 60.9719Z" fill="#FC223B"/>
<path d="M63.1538 80.483H56.2651C55.1605 80.483 54.2651 81.3785 54.2651 82.483V89.3463C54.2651 90.4509 55.1605 91.3463 56.2651 91.3463H63.1538C64.2584 91.3463 65.1538 90.4509 65.1538 89.3463V82.483C65.1538 81.3785 64.2584 80.483 63.1538 80.483Z" fill="#FC223B"/>
<path d="M80.2259 41.4609H73.3372C72.2327 41.4609 71.3372 42.3564 71.3372 43.4609V50.3242C71.3372 51.4288 72.2327 52.3242 73.3372 52.3242H80.2259C81.3305 52.3242 82.2259 51.4288 82.2259 50.3242V43.4609C82.2259 42.3564 81.3305 41.4609 80.2259 41.4609Z" fill="#EAEAEA"/>
<path d="M80.2259 60.9719H73.3372C72.2327 60.9719 71.3372 61.8674 71.3372 62.9719V69.8352C71.3372 70.9398 72.2327 71.8352 73.3372 71.8352H80.2259C81.3305 71.8352 82.2259 70.9398 82.2259 69.8352V62.9719C82.2259 61.8674 81.3305 60.9719 80.2259 60.9719Z" fill="#EAEAEA"/>
<path d="M80.2259 80.483H73.3372C72.2327 80.483 71.3372 81.3785 71.3372 82.483V89.3463C71.3372 90.4509 72.2327 91.3463 73.3372 91.3463H80.2259C81.3305 91.3463 82.2259 90.4509 82.2259 89.3463V82.483C82.2259 81.3785 81.3305 80.483 80.2259 80.483Z" fill="#FC223B"/>
</g>
<path d="M42.2049 63.0453C42.3545 62.5847 43.0063 62.5847 43.1559 63.0453L43.6633 64.6067C43.7302 64.8128 43.9222 64.9522 44.1388 64.9522H45.7806C46.2649 64.9522 46.4663 65.572 46.0745 65.8567L44.7462 66.8218C44.571 66.9491 44.4977 67.1748 44.5646 67.3808L45.0719 68.9422C45.2216 69.4029 44.6944 69.7859 44.3025 69.5012L42.9743 68.5362C42.7991 68.4089 42.5618 68.4089 42.3865 68.5362L41.0583 69.5012C40.6664 69.7859 40.1392 69.4029 40.2889 68.9422L40.7962 67.3808C40.8631 67.1748 40.7898 66.9491 40.6146 66.8218L39.2863 65.8567C38.8945 65.572 39.0959 64.9522 39.5802 64.9522H41.222C41.4386 64.9522 41.6306 64.8128 41.6975 64.6067L42.2049 63.0453Z" fill="white"/>
<path d="M76.3492 82.5563C76.4989 82.0956 77.1506 82.0956 77.3002 82.5563L77.8076 84.1177C77.8745 84.3237 78.0665 84.4632 78.2831 84.4632H79.9249C80.4092 84.4632 80.6106 85.083 80.2188 85.3677L78.8905 86.3327C78.7153 86.4601 78.642 86.6858 78.7089 86.8918L79.2163 88.4532C79.3659 88.9139 78.8387 89.2969 78.4468 89.0122L77.1186 88.0472C76.9434 87.9199 76.7061 87.9199 76.5308 88.0472L75.2026 89.0122C74.8107 89.2969 74.2835 88.9139 74.4332 88.4532L74.9405 86.8918C75.0074 86.6858 74.9341 86.4601 74.7589 86.3327L73.4306 85.3677C73.0388 85.083 73.2402 84.4632 73.7245 84.4632H75.3663C75.5829 84.4632 75.7749 84.3237 75.8418 84.1177L76.3492 82.5563Z" fill="white"/>
<defs>
<clipPath id="clip0_4777_86639">
<rect width="78.0441" height="89.6288" fill="white" transform="translate(13.4138 8.53607)"/>
</clipPath>
</defs>
</svg>
