<svg width="29" height="29" viewBox="0 0 29 29" fill="none" xmlns="http://www.w3.org/2000/svg">
<circle cx="14.5" cy="14.5" r="13.5" stroke="#49494A" stroke-width="2"/>
<path fill-rule="evenodd" clip-rule="evenodd" d="M19.3932 10.0031C19.7882 9.64528 20.3963 9.67726 20.7521 10.0751C21.1087 10.4738 21.0765 11.0884 20.6806 11.4471L12.3476 18.997C12.1545 19.172 11.8997 19.2608 11.641 19.2437C11.3823 19.2267 11.1411 19.1051 10.9723 18.9061L7.9417 15.4824C7.59707 15.0744 7.64567 14.4622 8.05 14.1145C8.45401 13.7672 9.06103 13.8149 9.40654 14.222L9.41099 14.2271L11.6399 16.7064C11.6821 16.7534 11.7412 16.7815 11.8043 16.7848C11.8673 16.788 11.929 16.766 11.9757 16.7236L19.3932 10.0031Z" fill="#49494A"/>
<path d="M20.7521 10.0751L21.1248 9.74177L21.1248 9.74177L20.7521 10.0751ZM19.3932 10.0031L19.0575 9.63261V9.63261L19.3932 10.0031ZM20.6806 11.4471L21.0163 11.8176L21.0163 11.8176L20.6806 11.4471ZM12.3476 18.997L12.0119 18.6265H12.0119L12.3476 18.997ZM11.641 19.2437L11.6081 19.7426H11.6081L11.641 19.2437ZM10.9723 18.9061L11.3536 18.5825L11.3467 18.5747L10.9723 18.9061ZM7.9417 15.4824L7.55963 15.8051L7.5673 15.8138L7.9417 15.4824ZM8.05 14.1145L8.37597 14.4937L8.37597 14.4937L8.05 14.1145ZM9.40654 14.222L9.02529 14.5456L9.02998 14.551L9.40654 14.222ZM9.41099 14.2271L9.03439 14.5561L9.03916 14.5614L9.41099 14.2271ZM11.6399 16.7064L11.2681 17.0407L11.2681 17.0407L11.6399 16.7064ZM11.8043 16.7848L11.7787 17.2841H11.7787L11.8043 16.7848ZM11.9757 16.7236L11.64 16.3531L11.64 16.3531L11.9757 16.7236ZM21.1248 9.74177C20.5842 9.13739 19.6583 9.0883 19.0575 9.63261L19.729 10.3737C19.9182 10.2023 20.2083 10.2171 20.3794 10.4084L21.1248 9.74177ZM21.0163 11.8176C21.6161 11.2742 21.6645 10.3452 21.1248 9.74177L20.3794 10.4084C20.553 10.6025 20.5368 10.9026 20.3449 11.0765L21.0163 11.8176ZM12.6833 19.3676L21.0163 11.8176L20.3449 11.0765L12.0119 18.6265L12.6833 19.3676ZM11.6081 19.7426C12.0024 19.7686 12.3901 19.6332 12.6833 19.3676L12.0119 18.6265C11.9188 18.7108 11.797 18.7529 11.6739 18.7448L11.6081 19.7426ZM10.5911 19.2297C10.8471 19.5313 11.2138 19.7166 11.6081 19.7426L11.6739 18.7448C11.5509 18.7367 11.4352 18.6788 11.3535 18.5826L10.5911 19.2297ZM7.5673 15.8138L10.5979 19.2375L11.3467 18.5747L8.31609 15.151L7.5673 15.8138ZM7.72402 13.7354C7.11122 14.2623 7.03834 15.1878 7.55973 15.805L8.32366 15.1597C8.1558 14.961 8.18013 14.662 8.37597 14.4937L7.72402 13.7354ZM9.78774 13.8985C9.26302 13.2803 8.33871 13.2069 7.72402 13.7354L8.37597 14.4937C8.56931 14.3274 8.85903 14.3496 9.02533 14.5456L9.78774 13.8985ZM9.78754 13.8982L9.78309 13.8931L9.02998 14.551L9.03443 14.5561L9.78754 13.8982ZM12.0118 16.3722L9.78281 13.8928L9.03916 14.5614L11.2681 17.0407L12.0118 16.3722ZM11.8298 16.2854C11.8996 16.289 11.9651 16.3202 12.0118 16.3722L11.2681 17.0407C11.3992 17.1865 11.5829 17.2741 11.7787 17.2841L11.8298 16.2854ZM11.64 16.3531C11.6918 16.3062 11.7601 16.2819 11.8298 16.2854L11.7787 17.2841C11.9744 17.2942 12.1662 17.2258 12.3114 17.0942L11.64 16.3531ZM19.0575 9.63261L11.64 16.3531L12.3114 17.0942L19.729 10.3737L19.0575 9.63261Z" fill="#49494A"/>
</svg>
