<svg width="29" height="29" viewBox="0 0 29 29" fill="none" xmlns="http://www.w3.org/2000/svg">
<circle cx="14.5" cy="14.5" r="14" fill="#03BD64" stroke="#03BD64"/>
<path fill-rule="evenodd" clip-rule="evenodd" d="M8.58181 8.16362H8.89934C8.90556 10.3568 9.097 11.6461 12.3901 13.8761C12.3919 13.8779 12.396 13.8814 12.402 13.8865C12.4834 13.9553 12.919 14.3237 12.919 15.0132C12.919 15.0132 12.919 15.8066 12.3901 16.1239C9.09708 18.3537 8.88021 19.6431 8.89785 21.8362H8.58181C8.26454 21.8362 8 22.1007 8 22.418C8 22.7353 8.26452 22.9998 8.58181 22.9998H9.47721L9.48097 22.9998V23L9.49608 22.9998H18.5498C18.5513 22.9998 18.5527 22.9998 18.5542 22.9998V22.9998H19.3189C19.6361 22.9998 19.9007 22.7353 19.9007 22.418C19.9007 22.1007 19.6362 21.8362 19.3189 21.8362H19.1112C19.128 19.6591 18.9242 18.3706 15.6187 16.124C15.1162 15.8067 15.1162 15.0396 15.1162 15.0132C15.1162 14.3295 15.5446 13.9839 15.6311 13.9142C15.6382 13.9084 15.643 13.9045 15.6451 13.9025C18.9514 11.6637 19.1567 10.3729 19.1371 8.16362H19.3189C19.6361 8.16362 19.9007 7.89929 19.9007 7.58181C19.9007 7.26454 19.6362 7 19.3189 7H8.58181C8.26454 7 8 7.26454 8 7.58181C8 7.89909 8.26452 8.16362 8.58181 8.16362ZM17.9724 8.16362H10.061C10.0381 9.95507 10.1073 10.9097 13.0247 12.8976C13.0264 12.8993 13.0321 12.9037 13.0415 12.9107L13.0415 12.9107C13.1562 12.9976 13.8081 13.4916 14.0176 14.405C14.2271 13.4914 14.879 12.9975 14.9937 12.9107C15.003 12.9036 15.0088 12.8992 15.0105 12.8976C17.9423 10.8997 17.9723 9.97111 17.9724 8.16362ZM14.0158 15.5788C13.9134 16.0505 13.654 16.6963 12.9981 17.1025C10.0924 19.0742 10.0373 20.0279 10.0611 21.8362H17.9742C17.9971 20.0449 17.9278 19.0903 15.0105 17.1024C14.3666 16.7098 14.1145 16.0561 14.0158 15.5788Z" fill="white"/>
<path d="M17 9H11.0426C10.8771 9.8559 11.2081 10.7467 11.7873 11.2358C12.3665 11.7249 14.1702 13 14.1702 13C14.1702 13 14.989 12.371 16.156 11.2358C17 10.4148 17 9.64629 17 9Z" fill="white"/>
</svg>
