<svg width="104" height="108" viewBox="0 0 104 108" fill="none" xmlns="http://www.w3.org/2000/svg">
<rect width="103.652" height="107.311" rx="20" fill="#FFDC52"/>
<path d="M80.3974 46.2542L82.296 48.7535L85.4304 48.0763L87.3585 51.0291L90.4743 49.2811L92.8032 52.5232L95.8713 51.2663L98.6243 54.0197L97.5787 55.0593L95.5203 53.0013L92.2827 54.3272L90.0441 51.21L86.8765 52.9872L84.7482 49.7302L81.6873 50.3916L79.9288 48.0739L78.0099 48.9284L77.4096 47.5828L80.3974 46.2542Z" fill="#298FFF"/>
<path d="M24.9021 83.6074C24.9021 85.0711 26.0923 86.2608 27.5617 86.2608H80.2575C81.7245 86.2608 82.9171 85.0734 82.9171 83.6074V36.1573H24.9021V83.6074Z" fill="#100C25"/>
<path d="M80.2647 21.1244H27.5689C26.0995 21.1244 24.9093 22.3118 24.9093 23.7778V36.1739H82.922V23.7778C82.922 22.3118 81.7318 21.1244 80.2623 21.1244H80.2647Z" fill="#100C25"/>
<path d="M20.7305 83.6074C20.7305 85.0711 21.9207 86.2608 23.3901 86.2608H76.0835C77.5529 86.2608 78.7432 85.0734 78.7432 83.6074V36.1573H20.7305V83.6074Z" fill="#FFA629"/>
<path d="M76.0835 21.1103H23.3901C21.9207 21.1103 20.7305 22.2977 20.7305 23.7637V36.1597H78.7432V23.7613C78.7432 22.2953 77.5529 21.1079 76.0835 21.1079V21.1103Z" fill="#FFA629"/>
<path d="M74.3973 6.33932L70.7173 7.62161L71.6905 11.1165L68.1214 12.5377L68.6383 15.9909L66.1437 17.4912L66.905 18.7525L70.2425 16.7469L69.7537 13.4744L73.466 11.994L72.5093 8.55789L75.8436 7.39581L74.3973 6.33932Z" fill="#03BD64"/>
<path d="M8.03641 17.0721L9.52112 19.8374L12.7229 19.6583L14.1659 22.8761L17.5166 21.6365L19.3102 25.2027L22.537 24.4406L24.826 27.5904L23.6307 28.4538L21.9192 26.0995L18.5143 26.9032L16.7902 23.4744L13.3839 24.7349L11.7906 21.1853L8.66396 21.3602L7.28918 18.7963L5.2604 19.3404L4.87775 17.9175L8.03641 17.0721Z" fill="#FC223B"/>
<path d="M37.5162 99.7581L40.4751 97.229L38.3098 94.3142L41.1155 91.6936L39.3889 88.6529L41.169 86.3485L40.0037 85.4446L37.6236 88.5278L39.2599 91.4094L36.3413 94.135L38.4708 97.0023L35.7889 99.2937L37.5162 99.7581Z" fill="#298FFF"/>
<g clip-path="url(#clip0_4777_86695)">
<path d="M56.4524 39.5229C64.6205 42.0518 69.1949 50.7251 66.663 58.8947C64.1341 67.0627 55.4608 71.6371 47.2913 69.1053C39.1262 66.5749 34.5518 57.9016 37.0836 49.7321C39.6125 41.564 48.2828 36.9911 56.4524 39.5229Z" fill="#FFF3D9"/>
<path d="M59.4671 51.7767L55.8401 55.4915L56.8455 60.585C56.9264 60.9961 56.5009 61.3237 56.1255 61.1351L51.4714 58.8353L46.9388 61.3638C46.573 61.5689 46.1317 61.2646 46.1919 60.8496L46.9412 55.7121L43.1361 52.1822C42.829 51.8973 42.9817 51.3841 43.3954 51.313L48.5124 50.4382L50.692 45.7287C50.8694 45.3482 51.4043 45.3346 51.5986 45.7063L54.0101 50.3026L59.1639 50.9221C59.5819 50.9723 59.7588 51.4771 59.4649 51.7779L59.4671 51.7767Z" fill="#FFA629"/>
</g>
<path d="M76.6202 91.8569L76.0814 88.0019L72.4595 88.2577L71.7611 84.4827L68.2691 84.3011L67.2853 81.5604L65.8962 82.0559L67.2135 85.7215L70.5228 85.8934L71.2488 89.8203L74.8116 89.569L75.2991 93.0627L76.6202 91.8569Z" fill="#FC223B"/>
<path d="M27.0187 65.24L26.1351 67.4389L22.431 66.4102L20.7403 69.467L17.8433 69.1491L17.6819 70.6122L21.5571 71.037L23.1601 68.1413L27.0131 69.2116L28.3434 65.9021L27.0187 65.24Z" fill="#03BD64"/>
<defs>
<clipPath id="clip0_4777_86695">
<rect width="30.9663" height="30.9663" fill="white" transform="translate(31.0957 47.4009) rotate(-26.6019)"/>
</clipPath>
</defs>
</svg>
