<svg width="16" height="17" viewBox="0 0 16 17" fill="none" xmlns="http://www.w3.org/2000/svg">
<path fill-rule="evenodd" clip-rule="evenodd" d="M15.5292 12.2747V5.17315C15.5292 3.12413 13.8528 1.44765 11.8037 1.44765H11.2916V0.86555C11.2916 0.469745 10.9889 0.166992 10.5931 0.166992C10.1973 0.166992 9.89452 0.469732 9.89452 0.86555V1.4244H6.63486V0.86555C6.63486 0.469745 6.33212 0.166992 5.9363 0.166992C5.54049 0.166992 5.23775 0.469732 5.23775 0.86555V1.4244H4.7255C2.67648 1.4244 1 3.10084 1 5.1499L1.00016 12.2748C1.00016 14.3238 2.6766 16.0003 4.72566 16.0003H11.8272C13.8761 16.0001 15.5292 14.3237 15.5292 12.2748L15.5292 12.2747ZM2.39712 5.17315C2.39712 3.89249 3.44485 2.84476 4.7255 2.84476H5.23775V3.40362C5.23775 3.79942 5.54049 4.10217 5.9363 4.10217C6.33212 4.10217 6.63486 3.79943 6.63486 3.40362V2.84476H9.89452V3.40362C9.89452 3.79942 10.1973 4.10217 10.5931 4.10217C10.9889 4.10217 11.2916 3.79943 11.2916 3.40362V2.84476H11.8271C13.1078 2.84476 14.1555 3.89249 14.1555 5.17315V12.2747C14.1555 13.5554 13.1078 14.6031 11.8271 14.6031H4.72554C3.44489 14.6031 2.39716 13.5554 2.39716 12.2747L2.39712 5.17315ZM12.5023 5.8252C12.5023 6.31391 12.1062 6.71003 11.6175 6.71003C11.1288 6.71003 10.7327 6.3139 10.7327 5.8252C10.7327 5.33649 11.1288 4.94037 11.6175 4.94037C12.1062 4.94037 12.5023 5.3365 12.5023 5.8252ZM4.88861 10.0629C5.37715 10.0629 5.77327 9.66675 5.77327 9.17803C5.77327 8.68933 5.37716 8.29321 4.88861 8.29321C4.39991 8.29321 4.00378 8.68932 4.00378 9.17803C4.00378 9.66673 4.3999 10.0629 4.88861 10.0629ZM9.14933 9.17803C9.14933 9.66675 8.7532 10.0629 8.2645 10.0629C7.7758 10.0629 7.37967 9.66673 7.37967 9.17803C7.37967 8.68932 7.7758 8.29321 8.2645 8.29321C8.7532 8.29321 9.14933 8.68933 9.14933 9.17803ZM11.6175 10.0629C12.1062 10.0629 12.5023 9.66675 12.5023 9.17803C12.5023 8.68933 12.1062 8.29321 11.6175 8.29321C11.1288 8.29321 10.7327 8.68932 10.7327 9.17803C10.7327 9.66673 11.1288 10.0629 11.6175 10.0629ZM5.77327 12.5542C5.77327 13.0429 5.37715 13.439 4.88861 13.439C4.3999 13.439 4.00378 13.0429 4.00378 12.5542C4.00378 12.0655 4.39991 11.6694 4.88861 11.6694C5.37716 11.6694 5.77327 12.0655 5.77327 12.5542ZM8.2645 13.439C8.7532 13.439 9.14933 13.0429 9.14933 12.5542C9.14933 12.0655 8.7532 11.6694 8.2645 11.6694C7.7758 11.6694 7.37967 12.0655 7.37967 12.5542C7.37967 13.0429 7.7758 13.439 8.2645 13.439Z" fill="#298FFF"/>
<path d="M15.5292 12.2747L15.6304 12.3855L15.6792 12.3409V12.2747H15.5292ZM11.2916 1.44765H11.1416V1.59765H11.2916V1.44765ZM9.89452 1.4244V1.5744H10.0445V1.4244H9.89452ZM6.63486 1.4244H6.48486V1.5744H6.63486V1.4244ZM5.23775 1.4244V1.5744H5.38775V1.4244H5.23775ZM1 5.1499H0.85V5.14991L1 5.1499ZM1.00016 12.2748H1.15016V12.2748L1.00016 12.2748ZM11.8272 16.0003V16.1503H11.8273L11.8272 16.0003ZM15.5292 12.2748L15.428 12.164L15.3792 12.2086V12.2748H15.5292ZM2.39712 5.17315H2.24712V5.17315L2.39712 5.17315ZM5.23775 2.84476H5.38775V2.69476H5.23775V2.84476ZM6.63486 2.84476V2.69476H6.48486V2.84476H6.63486ZM9.89452 2.84476H10.0445V2.69476H9.89452V2.84476ZM11.2916 2.84476V2.69476H11.1416V2.84476H11.2916ZM2.39716 12.2747H2.54716V12.2747L2.39716 12.2747ZM15.3792 5.17315V12.2747H15.6792V5.17315H15.3792ZM11.8037 1.59765C13.7699 1.59765 15.3792 3.20697 15.3792 5.17315H15.6792C15.6792 3.04128 13.9356 1.29765 11.8037 1.29765V1.59765ZM11.2916 1.59765H11.8037V1.29765H11.2916V1.59765ZM11.1416 0.86555V1.44765H11.4416V0.86555H11.1416ZM10.5931 0.316992C10.906 0.316992 11.1416 0.552586 11.1416 0.86555H11.4416C11.4416 0.386904 11.0717 0.0169922 10.5931 0.0169922V0.316992ZM10.0445 0.86555C10.0445 0.552575 10.2801 0.316992 10.5931 0.316992V0.0169922C10.1144 0.0169922 9.74452 0.38689 9.74452 0.86555H10.0445ZM10.0445 1.4244V0.86555H9.74452V1.4244H10.0445ZM6.63486 1.5744H9.89452V1.2744H6.63486V1.5744ZM6.48486 0.86555V1.4244H6.78486V0.86555H6.48486ZM5.9363 0.316992C6.24928 0.316992 6.48486 0.552586 6.48486 0.86555H6.78486C6.78486 0.386904 6.41497 0.0169922 5.9363 0.0169922V0.316992ZM5.38775 0.86555C5.38775 0.552575 5.62333 0.316992 5.9363 0.316992V0.0169922C5.45764 0.0169922 5.08775 0.38689 5.08775 0.86555H5.38775ZM5.38775 1.4244V0.86555H5.08775V1.4244H5.38775ZM4.7255 1.5744H5.23775V1.2744H4.7255V1.5744ZM1.15 5.1499C1.15 3.18369 2.75932 1.5744 4.7255 1.5744V1.2744C2.59364 1.2744 0.85 3.018 0.85 5.1499H1.15ZM1.15016 12.2748L1.15 5.1499L0.85 5.14991L0.850162 12.2748L1.15016 12.2748ZM4.72566 15.8503C2.75944 15.8503 1.15016 14.2409 1.15016 12.2748H0.850162C0.850162 14.4066 2.59376 16.1503 4.72566 16.1503V15.8503ZM11.8272 15.8503H4.72566V16.1503H11.8272V15.8503ZM15.3792 12.2748C15.3792 14.2421 13.792 15.8501 11.8272 15.8503L11.8273 16.1503C13.9602 16.1501 15.6792 14.4053 15.6792 12.2748H15.3792ZM15.4281 12.164L15.428 12.164L15.6303 12.3855L15.6304 12.3855L15.4281 12.164ZM4.7255 2.69476C3.362 2.69476 2.24712 3.80965 2.24712 5.17315H2.54712C2.54712 3.97534 3.52769 2.99476 4.7255 2.99476V2.69476ZM5.23775 2.69476H4.7255V2.99476H5.23775V2.69476ZM5.38775 3.40362V2.84476H5.08775V3.40362H5.38775ZM5.9363 3.95217C5.62333 3.95217 5.38775 3.71658 5.38775 3.40362H5.08775C5.08775 3.88226 5.45764 4.25217 5.9363 4.25217V3.95217ZM6.48486 3.40362C6.48486 3.71659 6.24928 3.95217 5.9363 3.95217V4.25217C6.41496 4.25217 6.78486 3.88227 6.78486 3.40362H6.48486ZM6.48486 2.84476V3.40362H6.78486V2.84476H6.48486ZM9.89452 2.69476H6.63486V2.99476H9.89452V2.69476ZM10.0445 3.40362V2.84476H9.74452V3.40362H10.0445ZM10.5931 3.95217C10.2801 3.95217 10.0445 3.71658 10.0445 3.40362H9.74452C9.74452 3.88226 10.1144 4.25217 10.5931 4.25217V3.95217ZM11.1416 3.40362C11.1416 3.71659 10.9061 3.95217 10.5931 3.95217V4.25217C11.0717 4.25217 11.4416 3.88228 11.4416 3.40362H11.1416ZM11.1416 2.84476V3.40362H11.4416V2.84476H11.1416ZM11.8271 2.69476H11.2916V2.99476H11.8271V2.69476ZM14.3055 5.17315C14.3055 3.80965 13.1906 2.69476 11.8271 2.69476V2.99476C13.0249 2.99476 14.0055 3.97534 14.0055 5.17315H14.3055ZM14.3055 12.2747V5.17315H14.0055V12.2747H14.3055ZM11.8271 14.7531C13.1906 14.7531 14.3055 13.6382 14.3055 12.2747H14.0055C14.0055 13.4725 13.0249 14.4531 11.8271 14.4531V14.7531ZM4.72554 14.7531H11.8271V14.4531H4.72554V14.7531ZM2.24716 12.2747C2.24716 13.6382 3.36205 14.7531 4.72554 14.7531V14.4531C3.52773 14.4531 2.54716 13.4725 2.54716 12.2747H2.24716ZM2.24712 5.17315L2.24716 12.2747L2.54716 12.2747L2.54712 5.17315L2.24712 5.17315ZM11.6175 6.86003C12.189 6.86003 12.6523 6.39676 12.6523 5.8252H12.3523C12.3523 6.23107 12.0233 6.56003 11.6175 6.56003V6.86003ZM10.5827 5.8252C10.5827 6.39674 11.0459 6.86003 11.6175 6.86003V6.56003C11.2116 6.56003 10.8827 6.23106 10.8827 5.8252H10.5827ZM11.6175 4.79037C11.0459 4.79037 10.5827 5.25365 10.5827 5.8252H10.8827C10.8827 5.41934 11.2116 5.09037 11.6175 5.09037V4.79037ZM12.6523 5.8252C12.6523 5.25366 12.189 4.79037 11.6175 4.79037V5.09037C12.0233 5.09037 12.3523 5.41935 12.3523 5.8252H12.6523ZM5.62327 9.17803C5.62327 9.58392 5.29429 9.91286 4.88861 9.91286V10.2129C5.46001 10.2129 5.92327 9.74957 5.92327 9.17803H5.62327ZM4.88861 8.4432C5.29429 8.4432 5.62327 8.77216 5.62327 9.17803H5.92327C5.92327 8.60651 5.46002 8.14321 4.88861 8.14321V8.4432ZM4.15378 9.17803C4.15378 8.77217 4.48275 8.4432 4.88861 8.4432V8.14321C4.31707 8.14321 3.85378 8.60648 3.85378 9.17803H4.15378ZM4.88861 9.91286C4.48274 9.91286 4.15378 9.58389 4.15378 9.17803H3.85378C3.85378 9.74957 4.31706 10.2129 4.88861 10.2129V9.91286ZM8.2645 10.2129C8.83604 10.2129 9.29933 9.74959 9.29933 9.17803H8.99933C8.99933 9.5839 8.67036 9.91286 8.2645 9.91286V10.2129ZM7.22967 9.17803C7.22967 9.74958 7.69296 10.2129 8.2645 10.2129V9.91286C7.85864 9.91286 7.52967 9.58389 7.52967 9.17803H7.22967ZM8.2645 8.14321C7.69296 8.14321 7.22967 8.60648 7.22967 9.17803H7.52967C7.52967 8.77217 7.85864 8.4432 8.2645 8.4432V8.14321ZM9.29933 9.17803C9.29933 8.60649 8.83604 8.14321 8.2645 8.14321V8.4432C8.67036 8.4432 8.99933 8.77218 8.99933 9.17803H9.29933ZM12.3523 9.17803C12.3523 9.5839 12.0233 9.91286 11.6175 9.91286V10.2129C12.189 10.2129 12.6523 9.74959 12.6523 9.17803H12.3523ZM11.6175 8.4432C12.0233 8.4432 12.3523 8.77218 12.3523 9.17803H12.6523C12.6523 8.60649 12.189 8.14321 11.6175 8.14321V8.4432ZM10.8827 9.17803C10.8827 8.77217 11.2116 8.4432 11.6175 8.4432V8.14321C11.0459 8.14321 10.5827 8.60648 10.5827 9.17803H10.8827ZM11.6175 9.91286C11.2116 9.91286 10.8827 9.58389 10.8827 9.17803H10.5827C10.5827 9.74958 11.0459 10.2129 11.6175 10.2129V9.91286ZM4.88861 13.589C5.46001 13.589 5.92327 13.1257 5.92327 12.5542H5.62327C5.62327 12.9601 5.29429 13.289 4.88861 13.289V13.589ZM3.85378 12.5542C3.85378 13.1257 4.31706 13.589 4.88861 13.589V13.289C4.48274 13.289 4.15378 12.9601 4.15378 12.5542H3.85378ZM4.88861 11.5194C4.31707 11.5194 3.85378 11.9826 3.85378 12.5542H4.15378C4.15378 12.1483 4.48275 11.8194 4.88861 11.8194V11.5194ZM5.92327 12.5542C5.92327 11.9827 5.46002 11.5194 4.88861 11.5194V11.8194C5.2943 11.8194 5.62327 12.1483 5.62327 12.5542H5.92327ZM8.99933 12.5542C8.99933 12.9601 8.67036 13.289 8.2645 13.289V13.589C8.83604 13.589 9.29933 13.1258 9.29933 12.5542H8.99933ZM8.2645 11.8194C8.67036 11.8194 8.99933 12.1483 8.99933 12.5542H9.29933C9.29933 11.9827 8.83604 11.5194 8.2645 11.5194V11.8194ZM7.52967 12.5542C7.52967 12.1483 7.85864 11.8194 8.2645 11.8194V11.5194C7.69296 11.5194 7.22967 11.9826 7.22967 12.5542H7.52967ZM8.2645 13.289C7.85864 13.289 7.52967 12.9601 7.52967 12.5542H7.22967C7.22967 13.1257 7.69296 13.589 8.2645 13.589V13.289Z" fill="#298FFF"/>
</svg>
