<svg width="29" height="29" viewBox="0 0 29 29" fill="none" xmlns="http://www.w3.org/2000/svg">
<circle opacity="0.8" cx="14.5" cy="14.5" r="14.5" fill="#C7C7C7"/>
<path fill-rule="evenodd" clip-rule="evenodd" d="M13.8333 15.5387C13.8332 15.5362 13.8332 15.5336 13.8332 15.5312V10.8645C13.8332 10.4963 14.1317 10.1978 14.4999 10.1978C14.8681 10.1978 15.1665 10.4963 15.1665 10.8645V14.8796H18.3193C18.6875 14.8796 18.9859 15.1781 18.9859 15.5463C18.9859 15.9144 18.6874 16.2129 18.3193 16.2129H14.5C14.1318 16.2129 13.8333 15.9144 13.8333 15.5463C13.8333 15.5437 13.8332 15.5411 13.8333 15.5387ZM22 14.4999C22 10.3578 18.6422 7 14.5001 7C10.358 7 7 10.3578 7 14.4999C7 18.642 10.3578 22 14.5001 22C18.6422 22 22 18.6422 22 14.4999ZM8.33357 14.4999C8.33357 11.0942 11.0944 8.3333 14.5001 8.3333C17.9058 8.3333 20.6667 11.0942 20.6667 14.4999C20.6667 17.9056 17.9058 20.6664 14.5001 20.6664C11.0944 20.6664 8.33357 17.9056 8.33357 14.4999Z" fill="white" stroke="white" stroke-width="0.7"/>
</svg>
