<svg width="21" height="20" viewBox="0 0 21 20" fill="none" xmlns="http://www.w3.org/2000/svg">
<path d="M1.73077 1C1.92458 1 2.11046 1.08128 2.2475 1.22595C2.38455 1.37062 2.46154 1.56683 2.46154 1.77143V16.1714C2.4618 16.5123 2.5902 16.8392 2.81855 17.0803C3.04691 17.3213 3.35655 17.4569 3.67949 17.4571H19.2692C19.463 17.4571 19.6489 17.5384 19.786 17.6831C19.923 17.8278 20 18.024 20 18.2286C20 18.4332 19.923 18.6294 19.786 18.7741C19.6489 18.9187 19.463 19 19.2692 19H3.67949C2.96908 18.9992 2.28799 18.7009 1.78566 18.1706C1.28332 17.6403 1.00077 16.9214 1 16.1714V1.77143C1 1.56683 1.07699 1.37062 1.21404 1.22595C1.35108 1.08128 1.53696 1 1.73077 1ZM17.7785 7.39772L14.3438 11.0234L9.98262 7.34114C9.84221 7.22246 9.66528 7.16261 9.48568 7.17305C9.30609 7.18349 9.13644 7.26348 9.00923 7.39772L5.11179 11.512C4.98271 11.6582 4.91244 11.8517 4.91578 12.0515C4.91912 12.2514 4.99581 12.442 5.1297 12.5834C5.26359 12.7247 5.44422 12.8057 5.63354 12.8092C5.82286 12.8127 6.00609 12.7386 6.14462 12.6023L9.57923 8.97657L13.9405 12.6589C14.0809 12.7775 14.2578 12.8374 14.4374 12.827C14.617 12.8165 14.7866 12.7365 14.9138 12.6023L18.8113 8.488C18.9404 8.34176 19.0106 8.14834 19.0073 7.94849C19.004 7.74864 18.9273 7.55796 18.7934 7.41662C18.6595 7.27528 18.4789 7.19432 18.2895 7.19079C18.1002 7.18727 17.917 7.26145 17.7785 7.39772Z" fill="black" stroke="black" stroke-width="0.3"/>
</svg>
