<svg width="29" height="29" viewBox="0 0 29 29" fill="none" xmlns="http://www.w3.org/2000/svg">
<circle cx="14.5" cy="14.5" r="14.5" fill="#298FFF"/>
<path d="M14.5245 8.46352C14.6741 8.00287 15.3259 8.00287 15.4755 8.46353L16.6839 12.1824C16.7508 12.3884 16.9428 12.5279 17.1594 12.5279H21.0696C21.554 12.5279 21.7554 13.1477 21.3635 13.4324L18.2001 15.7307C18.0248 15.8581 17.9515 16.0838 18.0184 16.2898L19.2268 20.0086C19.3764 20.4693 18.8492 20.8523 18.4573 20.5676L15.2939 18.2693C15.1186 18.1419 14.8814 18.1419 14.7061 18.2693L11.5427 20.5676C11.1508 20.8523 10.6236 20.4693 10.7732 20.0086L11.9816 16.2898C12.0485 16.0838 11.9752 15.8581 11.7999 15.7307L8.6365 13.4324C8.24464 13.1477 8.44603 12.5279 8.93039 12.5279H12.8406C13.0572 12.5279 13.2492 12.3884 13.3161 12.1824L14.5245 8.46352Z" fill="white"/>
</svg>
